EncodeSansCondensed-ExtraBold.ufo
<glyph name="exclam" format="2">
  <advance width="558.9090909090909"/>
  <unicode hex="0021"/>
  <outline>
    <contour>
      <point x="176.0" y="502.54545454545456" type="line"/>
      <point x="386.3636363636364" y="502.54545454545456" type="line"/>
      <point x="464.0" y="981.5454545454545" type="line"/>
      <point x="464.0" y="1480.0" type="line"/>
      <point x="94.9090909090909" y="1480.0" type="line"/>
      <point x="94.9090909090909" y="981.5454545454545" type="line"/>
    </contour>
    <contour>
      <point x="279.45454545454544" y="-18.636363636363637" type="curve" smooth="yes"/>
      <point x="408.72727272727275" y="-18.636363636363637"/>
      <point x="500.3636363636364" y="67.54545454545455"/>
      <point x="500.3636363636364" y="193.63636363636363" type="curve" smooth="yes"/>
      <point x="500.3636363636364" y="319.72727272727275"/>
      <point x="412.1818181818182" y="406.1818181818182"/>
      <point x="279.45454545454544" y="406.1818181818182" type="curve" smooth="yes"/>
      <point x="146.72727272727272" y="406.1818181818182"/>
      <point x="58.54545454545455" y="323.1818181818182"/>
      <point x="58.54545454545455" y="193.63636363636363" type="curve" smooth="yes"/>
      <point x="58.54545454545455" y="64.0909090909091"/>
      <point x="150.1818181818182" y="-18.636363636363637"/>
    </contour>
  </outline>
</glyph>
<glyph name="numbersign" format="2">
  <advance width="1172.7272727272727"/>
  <unicode hex="0023"/>
  <outline>
    <contour>
      <point x="587.9090909090909" y="0.0" type="line"/>
      <point x="845.6363636363636" y="0.0" type="line"/>
      <point x="969.6363636363636" y="1480.0" type="line"/>
      <point x="711.9090909090909" y="1480.0" type="line"/>
    </contour>
    <contour>
      <point x="90.0" y="395.54545454545456" type="line"/>
      <point x="1082.7272727272727" y="395.54545454545456" type="line"/>
      <point x="1082.7272727272727" y="651.5454545454545" type="line"/>
      <point x="90.0" y="651.5454545454545" type="line"/>
    </contour>
    <contour>
      <point x="203.0909090909091" y="0.0" type="line"/>
      <point x="460.8181818181818" y="0.0" type="line"/>
      <point x="584.8181818181818" y="1480.0" type="line"/>
      <point x="327.0909090909091" y="1480.0" type="line"/>
    </contour>
    <contour>
      <point x="90.0" y="828.4545454545455" type="line"/>
      <point x="1082.7272727272727" y="828.4545454545455" type="line"/>
      <point x="1082.7272727272727" y="1084.4545454545455" type="line"/>
      <point x="90.0" y="1084.4545454545455" type="line"/>
    </contour>
  </outline>
</glyph>
<glyph name="dollar" format="2">
  <advance width="1024.909090909091"/>
  <unicode hex="0024"/>
  <outline>
    <contour>
      <point x="426.1818181818182" y="-19.727272727272727" type="curve" smooth="yes"/>
      <point x="792.2727272727273" y="-19.727272727272727"/>
      <point x="998.3636363636364" y="160.0"/>
      <point x="998.3636363636364" y="445.0909090909091" type="curve" smooth="yes"/>
      <point x="998.3636363636364" y="682.1818181818182"/>
      <point x="860.4545454545455" y="809.0909090909091"/>
      <point x="643.0" y="881.3636363636364" type="curve" smooth="yes"/>
      <point x="532.2727272727273" y="918.3636363636364" type="line" smooth="yes"/>
      <point x="408.27272727272725" y="960.7272727272727"/>
      <point x="376.6363636363636" y="996.3636363636364"/>
      <point x="376.6363636363636" y="1063.5454545454545" type="curve" smooth="yes"/>
      <point x="376.6363636363636" y="1144.090909090909"/>
      <point x="437.3636363636364" y="1207.4545454545455"/>
      <point x="656.3636363636364" y="1207.4545454545455" type="curve" smooth="yes"/>
      <point x="738.6363636363636" y="1207.4545454545455"/>
      <point x="839.3636363636364" y="1195.7272727272727"/>
      <point x="920.1818181818182" y="1174.6363636363635" type="curve"/>
      <point x="920.1818181818182" y="1465.4545454545455" type="line"/>
      <point x="838.3636363636364" y="1486.0"/>
      <point x="729.7272727272727" y="1499.7272727272727"/>
      <point x="624.0909090909091" y="1499.7272727272727" type="curve" smooth="yes"/>
      <point x="218.0" y="1499.7272727272727"/>
      <point x="26.545454545454547" y="1323.1818181818182"/>
      <point x="26.545454545454547" y="1037.090909090909" type="curve" smooth="yes"/>
      <point x="26.545454545454547" y="807.4545454545455"/>
      <point x="167.63636363636363" y="674.1818181818182"/>
      <point x="359.8181818181818" y="609.0909090909091" type="curve" smooth="yes"/>
      <point x="470.54545454545456" y="572.0909090909091" type="line" smooth="yes"/>
      <point x="610.9090909090909" y="524.2727272727273"/>
      <point x="648.2727272727273" y="485.1818181818182"/>
      <point x="648.2727272727273" y="413.45454545454544" type="curve" smooth="yes"/>
      <point x="648.2727272727273" y="327.0"/>
      <point x="584.7272727272727" y="272.54545454545456"/>
      <point x="416.6363636363636" y="272.54545454545456" type="curve" smooth="yes"/>
      <point x="304.1818181818182" y="272.54545454545456"/>
      <point x="177.36363636363637" y="295.4545454545455"/>
      <point x="68.18181818181819" y="328.0" type="curve"/>
      <point x="68.18181818181819" y="37.18181818181818" type="line"/>
      <point x="174.27272727272728" y="-0.2727272727272727"/>
      <point x="319.72727272727275" y="-19.727272727272727"/>
    </contour>
    <contour>
      <point x="353.6363636363636" y="-240.0" type="line"/>
      <point x="673.2727272727273" y="-240.0" type="line"/>
      <point x="673.2727272727273" y="89.0909090909091" type="line"/>
      <point x="353.6363636363636" y="86.36363636363636" type="line"/>
    </contour>
    <contour>
      <point x="353.6363636363636" y="1428.1818181818182" type="line"/>
      <point x="673.2727272727273" y="1428.1818181818182" type="line"/>
      <point x="673.2727272727273" y="1720.0" type="line"/>
      <point x="353.6363636363636" y="1720.0" type="line"/>
    </contour>
  </outline>
</glyph>
<glyph name="ampersand" format="2">
  <advance width="1467.3636363636365"/>
  <unicode hex="0026"/>
  <outline>
    <contour>
      <point x="1283.1818181818182" y="-20.0" type="line"/>
      <point x="1467.3636363636365" y="245.9090909090909" type="line"/>
      <point x="648.6363636363636" y="851.8181818181818" type="line" smooth="yes"/>
      <point x="569.8181818181818" y="913.7272727272727"/>
      <point x="538.5454545454545" y="963.2727272727273"/>
      <point x="538.5454545454545" y="1036.090909090909" type="curve" smooth="yes"/>
      <point x="538.5454545454545" y="1143.8181818181818"/>
      <point x="611.3636363636364" y="1207.4545454545455"/>
      <point x="811.0909090909091" y="1207.4545454545455" type="curve" smooth="yes"/>
      <point x="875.7272727272727" y="1207.4545454545455"/>
      <point x="955.6363636363636" y="1198.2727272727273"/>
      <point x="1019.2727272727273" y="1185.1818181818182" type="curve"/>
      <point x="1019.2727272727273" y="1476.0" type="line"/>
      <point x="947.4545454545455" y="1490.0"/>
      <point x="869.9090909090909" y="1499.7272727272727"/>
      <point x="778.8181818181818" y="1499.7272727272727" type="curve" smooth="yes"/>
      <point x="379.3636363636364" y="1499.7272727272727"/>
      <point x="188.45454545454544" y="1323.4545454545455"/>
      <point x="188.45454545454544" y="1034.090909090909" type="curve" smooth="yes"/>
      <point x="188.45454545454544" y="875.6363636363636"/>
      <point x="252.72727272727272" y="744.7272727272727"/>
      <point x="464.45454545454544" y="585.9090909090909" type="curve" smooth="yes"/>
    </contour>
    <contour>
      <point x="612.8181818181819" y="-18.0" type="curve" smooth="yes"/>
      <point x="998.1818181818182" y="-18.0"/>
      <point x="1245.5454545454545" y="203.27272727272728"/>
      <point x="1245.5454545454545" y="641.4545454545455" type="curve" smooth="yes"/>
      <point x="1245.5454545454545" y="715.0909090909091"/>
      <point x="1235.5454545454545" y="804.7272727272727"/>
      <point x="1216.7272727272727" y="886.0909090909091" type="curve"/>
      <point x="936.0" y="886.0909090909091" type="line"/>
      <point x="955.0909090909091" y="804.7272727272727"/>
      <point x="965.3636363636364" y="713.3636363636364"/>
      <point x="965.3636363636364" y="637.7272727272727" type="curve" smooth="yes"/>
      <point x="965.3636363636364" y="338.0909090909091"/>
      <point x="828.9090909090909" y="239.72727272727272"/>
      <point x="652.8181818181818" y="239.72727272727272" type="curve" smooth="yes"/>
      <point x="505.1818181818182" y="239.72727272727272"/>
      <point x="417.54545454545456" y="315.8181818181818"/>
      <point x="417.54545454545456" y="448.0" type="curve" smooth="yes"/>
      <point x="417.54545454545456" y="536.9090909090909"/>
      <point x="451.27272727272725" y="599.9090909090909"/>
      <point x="507.54545454545456" y="649.7272727272727" type="curve"/>
      <point x="330.1818181818182" y="790.3636363636364" type="line"/>
      <point x="186.27272727272728" y="738.9090909090909"/>
      <point x="70.9090909090909" y="600.0909090909091"/>
      <point x="70.9090909090909" y="405.72727272727275" type="curve" smooth="yes"/>
      <point x="70.9090909090909" y="148.0"/>
      <point x="258.1818181818182" y="-18.0"/>
    </contour>
  </outline>
</glyph>
<glyph name="parenleft" format="2">
  <advance width="656.5454545454545"/>
  <unicode hex="0028"/>
  <outline>
    <contour>
      <point x="352.3636363636364" y="-440.0" type="curve"/>
      <point x="693.5454545454545" y="-440.0" type="line"/>
      <point x="522.3636363636364" y="-145.54545454545453"/>
      <point x="437.0" y="200.72727272727272"/>
      <point x="437.0" y="588.0" type="curve" smooth="yes"/>
      <point x="437.0" y="975.2727272727273"/>
      <point x="522.3636363636364" y="1321.5454545454545"/>
      <point x="693.5454545454545" y="1616.0" type="curve"/>
      <point x="352.3636363636364" y="1616.0" type="line"/>
      <point x="163.36363636363637" y="1330.7272727272727"/>
      <point x="80.0" y="984.7272727272727"/>
      <point x="80.0" y="588.0" type="curve" smooth="yes"/>
      <point x="80.0" y="191.27272727272728"/>
      <point x="163.36363636363637" y="-154.72727272727272"/>
    </contour>
  </outline>
</glyph>
<glyph name="parenright" format="2">
  <advance width="656.5454545454545"/>
  <unicode hex="0029"/>
  <outline>
    <contour>
      <point x="-37.0" y="-440.0" type="curve"/>
      <point x="304.1818181818182" y="-440.0" type="line"/>
      <point x="493.1818181818182" y="-154.72727272727272"/>
      <point x="576.5454545454545" y="191.27272727272728"/>
      <point x="576.5454545454545" y="588.0" type="curve" smooth="yes"/>
      <point x="576.5454545454545" y="984.7272727272727"/>
      <point x="493.1818181818182" y="1330.7272727272727"/>
      <point x="304.1818181818182" y="1616.0" type="curve"/>
      <point x="-37.0" y="1616.0" type="line"/>
      <point x="134.1818181818182" y="1321.5454545454545"/>
      <point x="219.54545454545453" y="975.2727272727273"/>
      <point x="219.54545454545453" y="588.0" type="curve" smooth="yes"/>
      <point x="219.54545454545453" y="200.72727272727272"/>
      <point x="134.1818181818182" y="-145.54545454545453"/>
    </contour>
  </outline>
</glyph>
<glyph name="asterisk" format="2">
  <advance width="986.9090909090909"/>
  <unicode hex="002A"/>
  <outline>
    <contour>
      <point x="617.9090909090909" y="1125.909090909091" type="line"/>
      <point x="817.6363636363636" y="1148.0" type="line"/>
      <point x="956.9090909090909" y="1193.090909090909" type="line"/>
      <point x="883.3636363636364" y="1418.909090909091" type="line"/>
      <point x="744.3636363636364" y="1372.090909090909" type="line"/>
      <point x="569.9090909090909" y="1271.6363636363637" type="line"/>
      <point x="611.8181818181818" y="1468.7272727272727" type="line"/>
      <point x="611.8181818181818" y="1616.0" type="line"/>
      <point x="375.09090909090907" y="1616.0" type="line"/>
      <point x="375.09090909090907" y="1468.7272727272727" type="line"/>
      <point x="417.0" y="1271.6363636363637" type="line"/>
      <point x="242.54545454545456" y="1372.090909090909" type="line"/>
      <point x="103.54545454545455" y="1418.909090909091" type="line"/>
      <point x="30.0" y="1193.090909090909" type="line"/>
      <point x="169.27272727272728" y="1148.0" type="line"/>
      <point x="369.0" y="1125.909090909091" type="line"/>
      <point x="219.72727272727272" y="992.3636363636364" type="line"/>
      <point x="133.54545454545456" y="873.6363636363636" type="line"/>
      <point x="325.45454545454544" y="733.7272727272727" type="line"/>
      <point x="411.6363636363636" y="852.4545454545455" type="line"/>
      <point x="493.45454545454544" y="1038.5454545454545" type="line"/>
      <point x="575.2727272727273" y="852.4545454545455" type="line"/>
      <point x="661.4545454545455" y="733.7272727272727" type="line"/>
      <point x="853.3636363636364" y="873.6363636363636" type="line"/>
      <point x="767.1818181818182" y="992.3636363636364" type="line"/>
    </contour>
  </outline>
</glyph>
<glyph name="plus" format="2">
  <advance width="1033.2727272727273"/>
  <unicode hex="002B"/>
  <outline>
    <contour>
      <point x="377.27272727272725" y="326.1818181818182" type="line"/>
      <point x="656.0" y="326.1818181818182" type="line"/>
      <point x="656.0" y="626.0909090909091" type="line"/>
      <point x="946.2727272727273" y="626.0909090909091" type="line"/>
      <point x="946.2727272727273" y="893.9090909090909" type="line"/>
      <point x="656.0" y="893.9090909090909" type="line"/>
      <point x="656.0" y="1193.8181818181818" type="line"/>
      <point x="377.27272727272725" y="1193.8181818181818" type="line"/>
      <point x="377.27272727272725" y="893.9090909090909" type="line"/>
      <point x="87.0" y="893.9090909090909" type="line"/>
      <point x="87.0" y="626.0909090909091" type="line"/>
      <point x="377.27272727272725" y="626.0909090909091" type="line"/>
    </contour>
  </outline>
</glyph>
<glyph name="hyphen" format="2">
  <advance width="750.2727272727273"/>
  <unicode hex="002D"/>
  <outline>
    <contour>
      <point x="87.0" y="429.54545454545456" type="line"/>
      <point x="663.2727272727273" y="429.54545454545456" type="line"/>
      <point x="663.2727272727273" y="707.7272727272727" type="line"/>
      <point x="87.0" y="707.7272727272727" type="line"/>
    </contour>
  </outline>
</glyph>
<glyph name="period" format="2">
  <advance width="518.9090909090909"/>
  <unicode hex="002E"/>
  <outline>
    <contour>
      <point x="259.45454545454544" y="-18.636363636363637" type="curve" smooth="yes"/>
      <point x="388.72727272727275" y="-18.636363636363637"/>
      <point x="480.3636363636364" y="67.54545454545455"/>
      <point x="480.3636363636364" y="198.8181818181818" type="curve" smooth="yes"/>
      <point x="480.3636363636364" y="330.0909090909091"/>
      <point x="392.1818181818182" y="416.54545454545456"/>
      <point x="259.45454545454544" y="416.54545454545456" type="curve" smooth="yes"/>
      <point x="126.72727272727272" y="416.54545454545456"/>
      <point x="38.54545454545455" y="333.54545454545456"/>
      <point x="38.54545454545455" y="198.8181818181818" type="curve" smooth="yes"/>
      <point x="38.54545454545455" y="64.0909090909091"/>
      <point x="130.1818181818182" y="-18.636363636363637"/>
    </contour>
  </outline>
</glyph>
<glyph name="zero" format="2">
  <advance width="1194.909090909091"/>
  <unicode hex="0030"/>
  <note>
600
</note>
  <outline>
    <contour>
      <point x="597.4545454545455" y="-19.727272727272727" type="curve" smooth="yes"/>
      <point x="937.2727272727273" y="-19.727272727272727"/>
      <point x="1124.909090909091" y="205.0909090909091"/>
      <point x="1124.909090909091" y="740.0" type="curve" smooth="yes"/>
      <point x="1124.909090909091" y="1274.909090909091"/>
      <point x="937.5454545454545" y="1499.7272727272727"/>
      <point x="597.4545454545455" y="1499.7272727272727" type="curve" smooth="yes"/>
      <point x="257.3636363636364" y="1499.7272727272727"/>
      <point x="70.0" y="1274.909090909091"/>
      <point x="70.0" y="740.0" type="curve" smooth="yes"/>
      <point x="70.0" y="205.0909090909091"/>
      <point x="257.6363636363636" y="-19.727272727272727"/>
    </contour>
    <contour>
      <point x="597.4545454545455" y="269.0909090909091" type="curve" smooth="yes"/>
      <point x="472.9090909090909" y="269.0909090909091"/>
      <point x="413.1818181818182" y="378.72727272727275"/>
      <point x="413.1818181818182" y="740.5454545454545" type="curve" smooth="yes"/>
      <point x="413.1818181818182" y="1101.2727272727273"/>
      <point x="472.9090909090909" y="1210.909090909091"/>
      <point x="597.4545454545455" y="1210.909090909091" type="curve" smooth="yes"/>
      <point x="722.0" y="1210.909090909091"/>
      <point x="781.7272727272727" y="1101.2727272727273"/>
      <point x="781.7272727272727" y="739.4545454545455" type="curve" smooth="yes"/>
      <point x="781.7272727272727" y="378.72727272727275"/>
      <point x="722.0" y="269.0909090909091"/>
    </contour>
  </outline>
</glyph>
<glyph name="one" format="2">
  <advance width="700.5454545454545"/>
  <unicode hex="0031"/>
  <outline>
    <contour>
      <point x="244.36363636363637" y="0.0" type="line"/>
      <point x="592.1818181818182" y="0.0" type="line"/>
      <point x="592.1818181818182" y="1485.7272727272727" type="line"/>
      <point x="379.72727272727275" y="1485.7272727272727" type="line"/>
      <point x="9.636363636363637" y="1251.5454545454545" type="line"/>
      <point x="9.636363636363637" y="928.8181818181818" type="line"/>
      <point x="379.72727272727275" y="1163.0" type="line"/>
      <point x="244.36363636363637" y="1264.4545454545455" type="line"/>
    </contour>
  </outline>
</glyph>
<glyph name="two" format="2">
  <advance width="957.7272727272727"/>
  <unicode hex="0032"/>
  <outline>
    <contour>
      <point x="34.72727272727273" y="0.0" type="line"/>
      <point x="916.7272727272727" y="0.0" type="line"/>
      <point x="916.7272727272727" y="304.0909090909091" type="line"/>
      <point x="410.27272727272725" y="304.0909090909091" type="line"/>
      <point x="423.0909090909091" y="219.63636363636363" type="line"/>
      <point x="681.4545454545455" y="586.0" type="line" smooth="yes"/>
      <point x="816.2727272727273" y="774.2727272727273"/>
      <point x="857.3636363636364" y="924.0909090909091"/>
      <point x="857.6363636363636" y="1060.2727272727273" type="curve" smooth="yes"/>
      <point x="858.1818181818182" y="1375.0"/>
      <point x="660.0909090909091" y="1499.7272727272727"/>
      <point x="338.27272727272725" y="1499.7272727272727" type="curve" smooth="yes"/>
      <point x="232.45454545454544" y="1499.7272727272727"/>
      <point x="97.0909090909091" y="1479.7272727272727"/>
      <point x="15.272727272727273" y="1449.1818181818182" type="curve"/>
      <point x="15.272727272727273" y="1158.3636363636365" type="line"/>
      <point x="96.0909090909091" y="1191.1818181818182"/>
      <point x="192.1818181818182" y="1207.4545454545455"/>
      <point x="284.72727272727275" y="1207.4545454545455" type="curve" smooth="yes"/>
      <point x="444.1818181818182" y="1207.4545454545455"/>
      <point x="513.0" y="1149.0"/>
      <point x="513.0" y="1030.909090909091" type="curve" smooth="yes"/>
      <point x="513.0" y="936.0909090909091"/>
      <point x="469.9090909090909" y="829.7272727272727"/>
      <point x="363.1818181818182" y="674.3636363636364" type="curve" smooth="yes"/>
      <point x="34.72727272727273" y="195.45454545454547" type="line"/>
    </contour>
  </outline>
</glyph>
<glyph name="three" format="2">
  <advance width="966.8181818181818"/>
  <unicode hex="0033"/>
  <outline>
    <contour>
      <point x="351.72727272727275" y="-19.727272727272727" type="curve" smooth="yes"/>
      <point x="714.4545454545455" y="-19.727272727272727"/>
      <point x="925.3636363636364" y="134.36363636363637"/>
      <point x="925.3636363636364" y="409.6363636363636" type="curve" smooth="yes"/>
      <point x="925.3636363636364" y="605.4545454545455"/>
      <point x="821.5454545454545" y="735.3636363636364"/>
      <point x="613.8181818181818" y="769.6363636363636" type="curve"/>
      <point x="613.5454545454545" y="756.2727272727273" type="line"/>
      <point x="784.0909090909091" y="793.3636363636364"/>
      <point x="882.8181818181818" y="923.8181818181819"/>
      <point x="882.8181818181818" y="1106.909090909091" type="curve" smooth="yes"/>
      <point x="882.8181818181818" y="1359.6363636363637"/>
      <point x="708.8181818181818" y="1499.7272727272727"/>
      <point x="373.6363636363636" y="1499.7272727272727" type="curve" smooth="yes"/>
      <point x="260.3636363636364" y="1499.7272727272727"/>
      <point x="125.0" y="1479.7272727272727"/>
      <point x="39.72727272727273" y="1449.1818181818182" type="curve"/>
      <point x="39.72727272727273" y="1177.3636363636365" type="line"/>
      <point x="122.27272727272728" y="1208.4545454545455"/>
      <point x="228.72727272727272" y="1226.4545454545455"/>
      <point x="325.54545454545456" y="1226.4545454545455" type="curve" smooth="yes"/>
      <point x="483.72727272727275" y="1226.4545454545455"/>
      <point x="550.2727272727273" y="1175.3636363636365"/>
      <point x="550.2727272727273" y="1067.4545454545455" type="curve" smooth="yes"/>
      <point x="550.2727272727273" y="961.0909090909091"/>
      <point x="480.27272727272725" y="895.9090909090909"/>
      <point x="306.45454545454544" y="895.9090909090909" type="curve" smooth="yes"/>
      <point x="151.54545454545456" y="895.9090909090909" type="line"/>
      <point x="151.54545454545456" y="615.7272727272727" type="line"/>
      <point x="324.6363636363636" y="615.7272727272727" type="line" smooth="yes"/>
      <point x="517.1818181818182" y="615.7272727272727"/>
      <point x="592.8181818181818" y="552.2727272727273"/>
      <point x="592.8181818181818" y="433.54545454545456" type="curve" smooth="yes"/>
      <point x="592.8181818181818" y="311.72727272727275"/>
      <point x="516.4545454545455" y="253.54545454545456"/>
      <point x="342.8181818181818" y="253.54545454545456" type="curve" smooth="yes"/>
      <point x="250.27272727272728" y="253.54545454545456"/>
      <point x="123.81818181818181" y="268.0909090909091"/>
      <point x="24.09090909090909" y="295.72727272727275" type="curve"/>
      <point x="24.09090909090909" y="23.909090909090907" type="line"/>
      <point x="128.1818181818182" y="-5.181818181818182"/>
      <point x="238.54545454545453" y="-19.727272727272727"/>
    </contour>
  </outline>
</glyph>
<glyph name="four" format="2">
  <advance width="1151.1818181818182"/>
  <unicode hex="0034"/>
  <outline>
    <contour>
      <point x="29.272727272727273" y="299.3636363636364" type="line"/>
      <point x="1126.4545454545455" y="299.3636363636364" type="line"/>
      <point x="1126.4545454545455" y="567.1818181818182" type="line"/>
      <point x="323.9090909090909" y="567.1818181818182" type="line"/>
      <point x="370.72727272727275" y="494.54545454545456" type="line"/>
      <point x="803.4545454545455" y="1480.0" type="line"/>
      <point x="473.8181818181818" y="1480.0" type="line"/>
      <point x="29.272727272727273" y="494.8181818181818" type="line"/>
    </contour>
    <contour>
      <point x="652.9090909090909" y="0.0" type="line"/>
      <point x="961.0" y="0.0" type="line"/>
      <point x="961.0" y="980.0" type="line"/>
      <point x="689.3636363636364" y="980.0" type="line"/>
      <point x="652.9090909090909" y="567.1818181818182" type="line"/>
    </contour>
  </outline>
</glyph>
<glyph name="five" format="2">
  <advance width="980.6363636363636"/>
  <unicode hex="0035"/>
  <outline>
    <contour>
      <point x="381.1818181818182" y="-19.727272727272727" type="curve" smooth="yes"/>
      <point x="740.3636363636364" y="-19.727272727272727"/>
      <point x="949.3636363636364" y="134.9090909090909"/>
      <point x="949.3636363636364" y="448.0909090909091" type="curve" smooth="yes"/>
      <point x="949.3636363636364" y="738.8181818181818"/>
      <point x="777.6363636363636" y="880.0"/>
      <point x="387.1818181818182" y="906.9090909090909" type="curve" smooth="yes"/>
      <point x="262.6363636363636" y="915.1818181818182" type="line"/>
      <point x="423.4545454545455" y="792.9090909090909" type="line"/>
      <point x="457.0909090909091" y="1354.1818181818182" type="line"/>
      <point x="302.45454545454544" y="1193.1818181818182" type="line"/>
      <point x="896.0" y="1193.1818181818182" type="line"/>
      <point x="896.0" y="1480.0" type="line"/>
      <point x="137.1818181818182" y="1480.0" type="line"/>
      <point x="91.18181818181819" y="647.0909090909091" type="line"/>
      <point x="215.72727272727272" y="638.8181818181818" type="line" smooth="yes"/>
      <point x="542.7272727272727" y="617.3636363636364"/>
      <point x="616.8181818181818" y="557.7272727272727"/>
      <point x="616.8181818181818" y="434.0" type="curve" smooth="yes"/>
      <point x="616.8181818181818" y="312.8181818181818"/>
      <point x="542.9090909090909" y="253.54545454545456"/>
      <point x="372.54545454545456" y="253.54545454545456" type="curve" smooth="yes"/>
      <point x="279.1818181818182" y="253.54545454545456"/>
      <point x="152.72727272727272" y="270.0909090909091"/>
      <point x="53.27272727272727" y="299.1818181818182" type="curve"/>
      <point x="53.27272727272727" y="27.363636363636363" type="line"/>
      <point x="156.8181818181818" y="-3.4545454545454546"/>
      <point x="267.72727272727275" y="-19.727272727272727"/>
    </contour>
  </outline>
</glyph>
<glyph name="six" format="2">
  <advance width="1133.3636363636365"/>
  <unicode hex="0036"/>
  <outline>
    <contour>
      <point x="610.8181818181818" y="-19.727272727272727" type="curve" smooth="yes"/>
      <point x="895.1818181818182" y="-19.727272727272727"/>
      <point x="1095.4545454545455" y="152.27272727272728"/>
      <point x="1095.4545454545455" y="456.3636363636364" type="curve" smooth="yes"/>
      <point x="1095.4545454545455" y="766.5454545454545"/>
      <point x="893.8181818181818" y="900.5454545454545"/>
      <point x="667.7272727272727" y="900.5454545454545" type="curve" smooth="yes"/>
      <point x="542.1818181818182" y="900.5454545454545"/>
      <point x="422.0" y="852.3636363636364"/>
      <point x="359.4545454545455" y="764.1818181818182" type="curve"/>
      <point x="359.4545454545455" y="509.8181818181818" type="line"/>
      <point x="417.6363636363636" y="602.9090909090909"/>
      <point x="509.8181818181818" y="639.3636363636364"/>
      <point x="598.0909090909091" y="639.3636363636364" type="curve" smooth="yes"/>
      <point x="703.5454545454545" y="639.3636363636364"/>
      <point x="780.1818181818181" y="580.8181818181818"/>
      <point x="780.1818181818181" y="443.72727272727275" type="curve" smooth="yes"/>
      <point x="780.1818181818181" y="303.4545454545455"/>
      <point x="704.9090909090909" y="244.9090909090909"/>
      <point x="614.5454545454545" y="244.9090909090909" type="curve" smooth="yes"/>
      <point x="498.0" y="244.9090909090909"/>
      <point x="420.27272727272725" y="318.1818181818182"/>
      <point x="420.27272727272725" y="636.7272727272727" type="curve" smooth="yes"/>
      <point x="420.27272727272725" y="781.7272727272727" type="line" smooth="yes"/>
      <point x="420.27272727272725" y="1096.0"/>
      <point x="538.2727272727273" y="1219.5454545454545"/>
      <point x="773.0909090909091" y="1219.5454545454545" type="curve" smooth="yes"/>
      <point x="870.0909090909091" y="1219.5454545454545"/>
      <point x="942.3636363636364" y="1209.0"/>
      <point x="1023.3636363636364" y="1184.4545454545455" type="curve"/>
      <point x="1023.3636363636364" y="1463.1818181818182" type="line"/>
      <point x="954.4545454545455" y="1489.4545454545455"/>
      <point x="857.7272727272727" y="1499.7272727272727"/>
      <point x="763.2727272727273" y="1499.7272727272727" type="curve" smooth="yes"/>
      <point x="344.0" y="1499.7272727272727"/>
      <point x="79.0909090909091" y="1259.5454545454545"/>
      <point x="79.0909090909091" y="700.3636363636364" type="curve" smooth="yes"/>
      <point x="79.0909090909091" y="173.0909090909091"/>
      <point x="297.3636363636364" y="-19.727272727272727"/>
    </contour>
  </outline>
</glyph>
<glyph name="seven" format="2">
  <advance width="911.8181818181818"/>
  <unicode hex="0037"/>
  <outline>
    <contour>
      <point x="94.0909090909091" y="0.0" type="line"/>
      <point x="454.27272727272725" y="0.0" type="line"/>
      <point x="855.8181818181818" y="1284.5454545454545" type="line"/>
      <point x="855.8181818181818" y="1480.0" type="line"/>
      <point x="9.727272727272727" y="1480.0" type="line"/>
      <point x="9.727272727272727" y="1175.909090909091" type="line"/>
      <point x="645.8181818181819" y="1175.909090909091" type="line"/>
      <point x="521.8181818181818" y="1284.8181818181818" type="line"/>
    </contour>
  </outline>
</glyph>
<glyph name="eight" format="2">
  <advance width="1194.909090909091"/>
  <unicode hex="0038"/>
  <outline>
    <contour>
      <point x="600.8181818181818" y="-19.727272727272727" type="curve" smooth="yes"/>
      <point x="934.5454545454545" y="-19.727272727272727"/>
      <point x="1134.2727272727273" y="152.72727272727272"/>
      <point x="1134.2727272727273" y="404.6363636363636" type="curve" smooth="yes"/>
      <point x="1134.2727272727273" y="623.8181818181819"/>
      <point x="1033.1818181818182" y="751.3636363636364"/>
      <point x="699.1818181818182" y="869.5454545454545" type="curve" smooth="yes"/>
      <point x="468.54545454545456" y="951.5454545454545"/>
      <point x="421.9090909090909" y="999.1818181818181"/>
      <point x="421.9090909090909" y="1097.7272727272727" type="curve" smooth="yes"/>
      <point x="421.9090909090909" y="1188.4545454545455"/>
      <point x="490.4545454545455" y="1250.6363636363635"/>
      <point x="614.1818181818182" y="1250.6363636363635" type="curve" smooth="yes"/>
      <point x="733.0" y="1250.6363636363635"/>
      <point x="802.9090909090909" y="1196.1818181818182"/>
      <point x="802.9090909090909" y="1093.4545454545455" type="curve" smooth="yes"/>
      <point x="802.9090909090909" y="992.9090909090909"/>
      <point x="755.4545454545455" y="920.5454545454545"/>
      <point x="642.0" y="851.8181818181818" type="curve"/>
      <point x="850.1818181818182" y="753.0" type="line"/>
      <point x="1033.7272727272727" y="846.5454545454545"/>
      <point x="1098.909090909091" y="979.0909090909091"/>
      <point x="1098.909090909091" y="1119.3636363636363" type="curve" smooth="yes"/>
      <point x="1098.909090909091" y="1354.0"/>
      <point x="909.1818181818182" y="1499.7272727272727"/>
      <point x="610.7272727272727" y="1499.7272727272727" type="curve" smooth="yes"/>
      <point x="282.0" y="1499.7272727272727"/>
      <point x="92.54545454545455" y="1336.7272727272727"/>
      <point x="92.54545454545455" y="1087.090909090909" type="curve" smooth="yes"/>
      <point x="92.54545454545455" y="875.0909090909091"/>
      <point x="202.8181818181818" y="724.0"/>
      <point x="533.7272727272727" y="615.0" type="curve" smooth="yes"/>
      <point x="752.2727272727273" y="543.3636363636364"/>
      <point x="810.0909090909091" y="492.1818181818182"/>
      <point x="810.0909090909091" y="388.27272727272725" type="curve" smooth="yes"/>
      <point x="810.0909090909091" y="289.54545454545456"/>
      <point x="742.2727272727273" y="229.36363636363637"/>
      <point x="600.8181818181818" y="229.36363636363637" type="curve" smooth="yes"/>
      <point x="456.4545454545455" y="229.36363636363637"/>
      <point x="383.0909090909091" y="293.54545454545456"/>
      <point x="383.0909090909091" y="405.72727272727275" type="curve" smooth="yes"/>
      <point x="383.0909090909091" y="500.72727272727275"/>
      <point x="443.27272727272725" y="600.4545454545455"/>
      <point x="564.2727272727273" y="646.0909090909091" type="curve"/>
      <point x="346.27272727272725" y="745.4545454545455" type="line"/>
      <point x="155.9090909090909" y="669.3636363636364"/>
      <point x="58.90909090909091" y="535.5454545454545"/>
      <point x="58.90909090909091" y="376.3636363636364" type="curve" smooth="yes"/>
      <point x="58.90909090909091" y="144.72727272727272"/>
      <point x="243.0909090909091" y="-19.727272727272727"/>
    </contour>
  </outline>
</glyph>
<glyph name="nine" format="2">
  <advance width="1133.3636363636365"/>
  <unicode hex="0039"/>
  <outline>
    <contour>
      <point x="522.5454545454545" y="1499.7272727272727" type="curve" smooth="yes"/>
      <point x="238.1818181818182" y="1499.7272727272727"/>
      <point x="37.90909090909091" y="1327.7272727272727"/>
      <point x="37.90909090909091" y="1023.6363636363636" type="curve" smooth="yes"/>
      <point x="37.90909090909091" y="713.4545454545455"/>
      <point x="239.54545454545453" y="579.4545454545455"/>
      <point x="465.6363636363636" y="579.4545454545455" type="curve" smooth="yes"/>
      <point x="591.1818181818181" y="579.4545454545455"/>
      <point x="711.3636363636364" y="627.6363636363636"/>
      <point x="773.9090909090909" y="715.8181818181818" type="curve"/>
      <point x="773.9090909090909" y="970.1818181818181" type="line"/>
      <point x="715.7272727272727" y="877.0909090909091"/>
      <point x="623.5454545454545" y="840.6363636363636"/>
      <point x="535.2727272727273" y="840.6363636363636" type="curve" smooth="yes"/>
      <point x="429.8181818181818" y="840.6363636363636"/>
      <point x="353.1818181818182" y="899.1818181818182"/>
      <point x="353.1818181818182" y="1036.2727272727273" type="curve" smooth="yes"/>
      <point x="353.1818181818182" y="1176.5454545454545"/>
      <point x="428.4545454545455" y="1235.090909090909"/>
      <point x="518.8181818181818" y="1235.090909090909" type="curve" smooth="yes"/>
      <point x="635.3636363636364" y="1235.090909090909"/>
      <point x="713.0909090909091" y="1161.8181818181818"/>
      <point x="713.0909090909091" y="843.2727272727273" type="curve" smooth="yes"/>
      <point x="713.0909090909091" y="698.2727272727273" type="line" smooth="yes"/>
      <point x="713.0909090909091" y="384.0"/>
      <point x="595.0909090909091" y="260.4545454545455"/>
      <point x="360.27272727272725" y="260.4545454545455" type="curve" smooth="yes"/>
      <point x="263.27272727272725" y="260.4545454545455"/>
      <point x="191.0" y="271.0"/>
      <point x="110.0" y="295.54545454545456" type="curve"/>
      <point x="110.0" y="16.81818181818182" type="line"/>
      <point x="178.9090909090909" y="-9.454545454545455"/>
      <point x="275.6363636363636" y="-19.727272727272727"/>
      <point x="370.0909090909091" y="-19.727272727272727" type="curve" smooth="yes"/>
      <point x="789.3636363636364" y="-19.727272727272727"/>
      <point x="1054.2727272727273" y="220.45454545454544"/>
      <point x="1054.2727272727273" y="779.6363636363636" type="curve" smooth="yes"/>
      <point x="1054.2727272727273" y="1306.909090909091"/>
      <point x="836.0" y="1499.7272727272727"/>
    </contour>
  </outline>
</glyph>
<glyph name="colon" format="2">
  <advance width="518.9090909090909"/>
  <unicode hex="003A"/>
  <outline>
    <contour>
      <point x="259.45454545454544" y="-18.636363636363637" type="curve" smooth="yes"/>
      <point x="388.72727272727275" y="-18.636363636363637"/>
      <point x="480.3636363636364" y="67.54545454545455"/>
      <point x="480.3636363636364" y="198.8181818181818" type="curve" smooth="yes"/>
      <point x="480.3636363636364" y="330.0909090909091"/>
      <point x="392.1818181818182" y="416.54545454545456"/>
      <point x="259.45454545454544" y="416.54545454545456" type="curve" smooth="yes"/>
      <point x="126.72727272727272" y="416.54545454545456"/>
      <point x="38.54545454545455" y="333.54545454545456"/>
      <point x="38.54545454545455" y="198.8181818181818" type="curve" smooth="yes"/>
      <point x="38.54545454545455" y="64.0909090909091"/>
      <point x="130.1818181818182" y="-18.636363636363637"/>
    </contour>
    <contour>
      <point x="259.45454545454544" y="680.7272727272727" type="curve" smooth="yes"/>
      <point x="388.72727272727275" y="680.7272727272727"/>
      <point x="480.3636363636364" y="766.9090909090909"/>
      <point x="480.3636363636364" y="898.1818181818182" type="curve" smooth="yes"/>
      <point x="480.3636363636364" y="1029.4545454545455"/>
      <point x="392.1818181818182" y="1115.909090909091"/>
      <point x="259.45454545454544" y="1115.909090909091" type="curve" smooth="yes"/>
      <point x="126.72727272727272" y="1115.909090909091"/>
      <point x="38.54545454545455" y="1032.909090909091"/>
      <point x="38.54545454545455" y="898.1818181818182" type="curve" smooth="yes"/>
      <point x="38.54545454545455" y="763.4545454545455"/>
      <point x="130.1818181818182" y="680.7272727272727"/>
    </contour>
  </outline>
</glyph>
<glyph name="less" format="2">
  <advance width="1033.2727272727273"/>
  <unicode hex="003C"/>
  <outline>
    <contour>
      <point x="946.2727272727273" y="255.72727272727272" type="line"/>
      <point x="946.2727272727273" y="524.6363636363636" type="line"/>
      <point x="282.27272727272725" y="772.0" type="line"/>
      <point x="282.27272727272725" y="748.0" type="line"/>
      <point x="946.2727272727273" y="995.3636363636364" type="line"/>
      <point x="946.2727272727273" y="1264.2727272727273" type="line"/>
      <point x="87.0" y="931.0909090909091" type="line"/>
      <point x="87.0" y="588.9090909090909" type="line"/>
    </contour>
  </outline>
</glyph>
<glyph name="equal" format="2">
  <advance width="1033.2727272727273"/>
  <unicode hex="003D"/>
  <outline>
    <contour>
      <point x="87.0" y="849.5454545454545" type="line"/>
      <point x="946.2727272727273" y="849.5454545454545" type="line"/>
      <point x="946.2727272727273" y="1117.3636363636365" type="line"/>
      <point x="87.0" y="1117.3636363636365" type="line"/>
    </contour>
    <contour>
      <point x="87.0" y="402.6363636363636" type="line"/>
      <point x="946.2727272727273" y="402.6363636363636" type="line"/>
      <point x="946.2727272727273" y="670.4545454545455" type="line"/>
      <point x="87.0" y="670.4545454545455" type="line"/>
    </contour>
  </outline>
</glyph>
<glyph name="greater" format="2">
  <advance width="1033.2727272727273"/>
  <unicode hex="003E"/>
  <outline>
    <contour>
      <point x="87.0" y="255.72727272727272" type="line"/>
      <point x="946.2727272727273" y="588.9090909090909" type="line"/>
      <point x="946.2727272727273" y="931.0909090909091" type="line"/>
      <point x="87.0" y="1264.2727272727273" type="line"/>
      <point x="87.0" y="995.3636363636364" type="line"/>
      <point x="751.0" y="748.0" type="line"/>
      <point x="751.0" y="772.0" type="line"/>
      <point x="87.0" y="524.6363636363636" type="line"/>
    </contour>
  </outline>
</glyph>
<glyph name="question" format="2">
  <advance width="891.2727272727273"/>
  <unicode hex="003F"/>
  <outline>
    <contour>
      <point x="278.3636363636364" y="500.3636363636364" type="line"/>
      <point x="488.72727272727275" y="500.3636363636364" type="line"/>
      <point x="516.0" y="692.2727272727273" type="line"/>
      <point x="730.2727272727273" y="760.4545454545455"/>
      <point x="857.1818181818182" y="898.2727272727273"/>
      <point x="857.1818181818182" y="1106.909090909091" type="curve" smooth="yes"/>
      <point x="857.1818181818182" y="1359.6363636363637"/>
      <point x="683.1818181818182" y="1499.7272727272727"/>
      <point x="348.0" y="1499.7272727272727" type="curve" smooth="yes"/>
      <point x="234.72727272727272" y="1499.7272727272727"/>
      <point x="99.36363636363636" y="1479.7272727272727"/>
      <point x="14.09090909090909" y="1449.1818181818182" type="curve"/>
      <point x="14.09090909090909" y="1177.3636363636365" type="line"/>
      <point x="96.63636363636364" y="1208.4545454545455"/>
      <point x="203.0909090909091" y="1226.4545454545455"/>
      <point x="299.6363636363636" y="1226.4545454545455" type="curve" smooth="yes"/>
      <point x="458.0909090909091" y="1226.4545454545455"/>
      <point x="524.6363636363636" y="1175.3636363636365"/>
      <point x="524.6363636363636" y="1067.4545454545455" type="curve" smooth="yes"/>
      <point x="524.6363636363636" y="964.6363636363636"/>
      <point x="461.0909090909091" y="901.9090909090909"/>
      <point x="219.72727272727272" y="850.0" type="curve"/>
    </contour>
    <contour>
      <point x="383.54545454545456" y="-18.636363636363637" type="curve" smooth="yes"/>
      <point x="513.0909090909091" y="-18.636363636363637"/>
      <point x="604.4545454545455" y="67.81818181818181"/>
      <point x="604.4545454545455" y="193.63636363636363" type="curve" smooth="yes"/>
      <point x="604.4545454545455" y="319.72727272727275"/>
      <point x="516.2727272727273" y="406.1818181818182"/>
      <point x="383.54545454545456" y="406.1818181818182" type="curve" smooth="yes"/>
      <point x="250.8181818181818" y="406.1818181818182"/>
      <point x="162.63636363636363" y="323.1818181818182"/>
      <point x="162.63636363636363" y="193.63636363636363" type="curve" smooth="yes"/>
      <point x="162.63636363636363" y="64.36363636363637"/>
      <point x="254.27272727272728" y="-18.636363636363637"/>
    </contour>
  </outline>
</glyph>
<glyph name="at" format="2">
  <advance width="1924.2727272727273"/>
  <unicode hex="0040"/>
  <outline>
    <contour>
      <point x="1004.0" y="-460.0" type="curve" smooth="yes"/>
      <point x="1146.1818181818182" y="-460.0"/>
      <point x="1283.5454545454545" y="-441.1818181818182"/>
      <point x="1415.909090909091" y="-405.72727272727275" type="curve"/>
      <point x="1415.909090909091" y="-175.36363636363637" type="line"/>
      <point x="1279.090909090909" y="-211.63636363636363"/>
      <point x="1145.090909090909" y="-229.9090909090909"/>
      <point x="1004.0" y="-229.9090909090909" type="curve" smooth="yes"/>
      <point x="532.0909090909091" y="-229.9090909090909"/>
      <point x="330.6363636363636" y="-35.72727272727272"/>
      <point x="330.6363636363636" y="520.5454545454545" type="curve" smooth="yes"/>
      <point x="330.6363636363636" y="1075.4545454545455"/>
      <point x="532.0909090909091" y="1267.909090909091"/>
      <point x="971.4545454545455" y="1267.909090909091" type="curve" smooth="yes"/>
      <point x="1410.8181818181818" y="1267.909090909091"/>
      <point x="1613.1818181818182" y="1082.3636363636365"/>
      <point x="1614.909090909091" y="576.4545454545455" type="curve" smooth="yes"/>
      <point x="1616.6363636363635" y="282.0"/>
      <point x="1563.2727272727273" y="219.0"/>
      <point x="1483.6363636363635" y="219.0" type="curve" smooth="yes"/>
      <point x="1434.7272727272727" y="219.0"/>
      <point x="1406.7272727272727" y="250.54545454545456"/>
      <point x="1406.7272727272727" y="325.1818181818182" type="curve" smooth="yes"/>
      <point x="1406.7272727272727" y="652.9090909090909" type="line" smooth="yes"/>
      <point x="1406.7272727272727" y="980.9090909090909"/>
      <point x="1266.2727272727273" y="1097.7272727272727"/>
      <point x="951.1818181818182" y="1097.7272727272727" type="curve" smooth="yes"/>
      <point x="849.0" y="1097.7272727272727"/>
      <point x="724.5454545454545" y="1080.0"/>
      <point x="630.0909090909091" y="1048.5454545454545" type="curve"/>
      <point x="626.6363636363636" y="776.7272727272727" type="line"/>
      <point x="709.7272727272727" y="808.7272727272727"/>
      <point x="805.1818181818182" y="824.4545454545455"/>
      <point x="885.2727272727273" y="824.4545454545455" type="curve" smooth="yes"/>
      <point x="1027.090909090909" y="824.4545454545455"/>
      <point x="1074.4545454545455" y="782.0"/>
      <point x="1074.4545454545455" y="668.7272727272727" type="curve" smooth="yes"/>
      <point x="1074.4545454545455" y="279.0" type="line"/>
      <point x="1043.090909090909" y="245.45454545454547"/>
      <point x="1005.9090909090909" y="234.8181818181818"/>
      <point x="972.6363636363636" y="234.8181818181818" type="curve" smooth="yes"/>
      <point x="912.3636363636364" y="234.8181818181818"/>
      <point x="872.3636363636364" y="270.27272727272725"/>
      <point x="872.3636363636364" y="343.0909090909091" type="curve" smooth="yes"/>
      <point x="872.3636363636364" y="417.45454545454544"/>
      <point x="915.8181818181818" y="460.6363636363636"/>
      <point x="1001.7272727272727" y="466.8181818181818" type="curve" smooth="yes"/>
      <point x="1158.4545454545455" y="478.0909090909091" type="line"/>
      <point x="1112.1818181818182" y="666.7272727272727" type="line"/>
      <point x="960.5454545454545" y="655.4545454545455" type="line" smooth="yes"/>
      <point x="659.0909090909091" y="634.6363636363636"/>
      <point x="539.2727272727273" y="513.9090909090909"/>
      <point x="539.2727272727273" y="300.54545454545456" type="curve" smooth="yes"/>
      <point x="539.2727272727273" y="105.9090909090909"/>
      <point x="665.6363636363636" y="-21.18181818181818"/>
      <point x="849.1818181818182" y="-21.18181818181818" type="curve" smooth="yes"/>
      <point x="952.8181818181818" y="-21.18181818181818"/>
      <point x="1051.090909090909" y="16.18181818181818"/>
      <point x="1089.7272727272727" y="130.63636363636363" type="curve"/>
      <point x="1106.3636363636363" y="130.63636363636363" type="line"/>
      <point x="1167.0" y="27.909090909090907"/>
      <point x="1269.6363636363635" y="-21.18181818181818"/>
      <point x="1415.7272727272727" y="-21.18181818181818" type="curve" smooth="yes"/>
      <point x="1675.1818181818182" y="-21.18181818181818"/>
      <point x="1864.2727272727273" y="140.8181818181818"/>
      <point x="1864.2727272727273" y="584.1818181818181" type="curve" smooth="yes"/>
      <point x="1864.2727272727273" y="1200.8181818181818"/>
      <point x="1538.5454545454545" y="1498.0"/>
      <point x="971.4545454545455" y="1498.0" type="curve" smooth="yes"/>
      <point x="404.0909090909091" y="1498.0"/>
      <point x="60.0" y="1200.8181818181818"/>
      <point x="60.0" y="520.0" type="curve" smooth="yes"/>
      <point x="60.0" y="-161.9090909090909"/>
      <point x="404.6363636363636" y="-460.0"/>
    </contour>
  </outline>
</glyph>
<glyph name="A" format="2">
  <advance width="1276.8181818181818"/>
  <unicode hex="0041"/>
  <note>
520
</note>
  <anchor x="638.5454545454545" y="0.0" name="bottom"/>
  <anchor x="1280.1818181818182" y="0.0" name="ogonek"/>
  <anchor x="638.5454545454545" y="1520.0" name="top"/>
  <outline>
    <contour>
      <point x="-3.3636363636363633" y="0.0" type="line"/>
      <point x="334.6363636363636" y="0.0" type="line"/>
      <point x="652.0" y="1324.2727272727273" type="line"/>
      <point x="617.6363636363636" y="1324.2727272727273" type="line"/>
      <point x="938.4545454545455" y="0.0" type="line"/>
      <point x="1280.1818181818182" y="0.0" type="line"/>
      <point x="898.1818181818182" y="1480.0" type="line"/>
      <point x="378.6363636363636" y="1480.0" type="line"/>
    </contour>
    <contour>
      <point x="246.0" y="369.0909090909091" type="line"/>
      <point x="1029.090909090909" y="369.0909090909091" type="line"/>
      <point x="964.1818181818182" y="663.0909090909091" type="line"/>
      <point x="310.9090909090909" y="663.0909090909091" type="line"/>
    </contour>
  </outline>
</glyph>
<glyph name="B" format="2">
  <advance width="1221.2727272727273"/>
  <unicode hex="0042"/>
  <anchor x="608.9090909090909" y="0.0" name="bottom"/>
  <anchor x="608.9090909090909" y="1480.0" name="top"/>
  <outline>
    <contour>
      <point x="492.9090909090909" y="-18.636363636363637" type="curve" smooth="yes"/>
      <point x="981.2727272727273" y="-18.636363636363637"/>
      <point x="1188.4545454545455" y="129.45454545454547"/>
      <point x="1188.4545454545455" y="414.1818181818182" type="curve" smooth="yes"/>
      <point x="1188.4545454545455" y="627.0909090909091"/>
      <point x="1068.3636363636365" y="738.8181818181819"/>
      <point x="897.1818181818182" y="768.5454545454545" type="curve"/>
      <point x="897.1818181818182" y="756.2727272727273" type="line"/>
      <point x="1053.7272727272727" y="792.0"/>
      <point x="1146.4545454545455" y="924.0909090909091"/>
      <point x="1146.4545454545455" y="1086.3636363636363" type="curve" smooth="yes"/>
      <point x="1146.4545454545455" y="1374.0"/>
      <point x="953.5454545454545" y="1499.1818181818182"/>
      <point x="539.9090909090909" y="1499.1818181818182" type="curve" smooth="yes"/>
      <point x="392.9090909090909" y="1499.1818181818182"/>
      <point x="227.54545454545456" y="1480.2727272727273"/>
      <point x="98.36363636363636" y="1452.1818181818182" type="curve"/>
      <point x="98.36363636363636" y="12.636363636363637" type="line"/>
      <point x="216.54545454545456" y="-6.0"/>
      <point x="377.6363636363636" y="-18.636363636363637"/>
    </contour>
    <contour>
      <point x="589.9090909090909" y="249.45454545454547" type="curve" smooth="yes"/>
      <point x="542.0909090909091" y="249.45454545454547"/>
      <point x="497.1818181818182" y="251.45454545454547"/>
      <point x="437.54545454545456" y="256.0" type="curve"/>
      <point x="437.54545454545456" y="1218.2727272727273" type="line"/>
      <point x="490.27272727272725" y="1226.8181818181818"/>
      <point x="538.0909090909091" y="1231.090909090909"/>
      <point x="596.3636363636364" y="1231.090909090909" type="curve" smooth="yes"/>
      <point x="758.3636363636364" y="1231.090909090909"/>
      <point x="819.0909090909091" y="1182.5454545454545"/>
      <point x="819.0909090909091" y="1062.1818181818182" type="curve" smooth="yes"/>
      <point x="819.0909090909091" y="946.5454545454545"/>
      <point x="762.8181818181819" y="894.1818181818182"/>
      <point x="587.9090909090909" y="894.1818181818182" type="curve" smooth="yes"/>
      <point x="407.72727272727275" y="894.1818181818182" type="line"/>
      <point x="407.72727272727275" y="615.7272727272727" type="line"/>
      <point x="615.8181818181818" y="615.7272727272727" type="line" smooth="yes"/>
      <point x="786.6363636363636" y="615.7272727272727"/>
      <point x="861.0909090909091" y="560.1818181818181"/>
      <point x="861.0909090909091" y="434.3636363636364" type="curve" smooth="yes"/>
      <point x="861.0909090909091" y="303.3636363636364"/>
      <point x="789.2727272727273" y="249.45454545454547"/>
    </contour>
  </outline>
</glyph>
<glyph name="E" format="2">
  <advance width="1103.1818181818182"/>
  <unicode hex="0045"/>
  <anchor x="590.5454545454545" y="0.0" name="bottom"/>
  <anchor x="968.4545454545455" y="0.0" name="ogonek"/>
  <anchor x="590.5454545454545" y="1520.0" name="top"/>
  <anchor x="36.0" y="1480.0" name="topleft"/>
  <outline>
    <contour>
      <point x="98.36363636363636" y="0.0" type="line"/>
      <point x="1048.4545454545455" y="0.0" type="line"/>
      <point x="1048.4545454545455" y="297.4545454545455" type="line"/>
      <point x="441.0" y="297.4545454545455" type="line"/>
      <point x="441.0" y="1182.5454545454545" type="line"/>
      <point x="1038.4545454545455" y="1182.5454545454545" type="line"/>
      <point x="1038.4545454545455" y="1480.0" type="line"/>
      <point x="98.36363636363636" y="1480.0" type="line"/>
    </contour>
    <contour>
      <point x="346.6363636363636" y="607.0909090909091" type="line"/>
      <point x="936.3636363636364" y="607.0909090909091" type="line"/>
      <point x="936.3636363636364" y="904.5454545454545" type="line"/>
      <point x="346.6363636363636" y="904.5454545454545" type="line"/>
    </contour>
  </outline>
</glyph>
<glyph name="F" format="2">
  <advance width="1048.1818181818182"/>
  <unicode hex="0046"/>
  <outline>
    <contour>
      <point x="98.36363636363636" y="0.0" type="line"/>
      <point x="446.1818181818182" y="0.0" type="line"/>
      <point x="446.1818181818182" y="1179.090909090909" type="line"/>
      <point x="1037.090909090909" y="1179.090909090909" type="line"/>
      <point x="1037.090909090909" y="1480.0" type="line"/>
      <point x="98.36363636363636" y="1480.0" type="line"/>
    </contour>
    <contour>
      <point x="346.6363636363636" y="563.9090909090909" type="line"/>
      <point x="940.1818181818182" y="563.9090909090909" type="line"/>
      <point x="940.1818181818182" y="864.8181818181818" type="line"/>
      <point x="346.6363636363636" y="864.8181818181818" type="line"/>
    </contour>
  </outline>
</glyph>
<glyph name="H" format="2">
  <advance width="1346.090909090909"/>
  <unicode hex="0048"/>
  <anchor x="673.9090909090909" y="0.0" name="bottom"/>
  <anchor x="673.9090909090909" y="1191.8181818181818" name="center"/>
  <anchor x="673.9090909090909" y="1520.0" name="top"/>
  <anchor x="29.09090909090909" y="1480.0" name="topleft"/>
  <outline>
    <contour>
      <point x="98.36363636363636" y="0.0" type="line"/>
      <point x="446.1818181818182" y="0.0" type="line"/>
      <point x="446.1818181818182" y="596.7272727272727" type="line"/>
      <point x="899.9090909090909" y="596.7272727272727" type="line"/>
      <point x="899.9090909090909" y="0.0" type="line"/>
      <point x="1247.7272727272727" y="0.0" type="line"/>
      <point x="1247.7272727272727" y="1480.0" type="line"/>
      <point x="899.9090909090909" y="1480.0" type="line"/>
      <point x="899.9090909090909" y="914.9090909090909" type="line"/>
      <point x="446.1818181818182" y="914.9090909090909" type="line"/>
      <point x="446.1818181818182" y="1480.0" type="line"/>
      <point x="98.36363636363636" y="1480.0" type="line"/>
    </contour>
  </outline>
</glyph>
<glyph name="I" format="2">
  <advance width="544.5454545454545"/>
  <unicode hex="0049"/>
  <anchor x="272.27272727272725" y="0.0" name="bottom"/>
  <anchor x="446.1818181818182" y="0.0" name="ogonek"/>
  <anchor x="272.27272727272725" y="1520.0" name="top"/>
  <outline>
    <contour>
      <point x="98.36363636363636" y="0.0" type="line"/>
      <point x="446.1818181818182" y="0.0" type="line"/>
      <point x="446.1818181818182" y="1480.0" type="line"/>
      <point x="98.36363636363636" y="1480.0" type="line"/>
    </contour>
  </outline>
</glyph>
<glyph name="J" format="2">
  <advance width="544.5454545454545"/>
  <unicode hex="004A"/>
  <anchor x="451.6363636363636" y="0.0" name="bottom"/>
  <anchor x="272.27272727272725" y="1520.0" name="top"/>
  <outline>
    <contour>
      <point x="183.9090909090909" y="-348.6363636363636" type="line"/>
      <point x="377.8181818181818" y="-132.54545454545453"/>
      <point x="445.0909090909091" y="65.18181818181819"/>
      <point x="446.1818181818182" y="313.0" type="curve"/>
      <point x="446.1818181818182" y="1480.0" type="line"/>
      <point x="98.36363636363636" y="1480.0" type="line"/>
      <point x="98.36363636363636" y="303.27272727272725" type="line" smooth="yes"/>
      <point x="98.36363636363636" y="91.27272727272728"/>
      <point x="65.63636363636363" y="-38.272727272727266"/>
      <point x="-44.0" y="-198.9090909090909" type="curve"/>
    </contour>
  </outline>
</glyph>
<glyph name="K" format="2">
  <advance width="1211.0"/>
  <unicode hex="004B"/>
  <anchor x="633.7272727272727" y="0.0" name="bottom"/>
  <anchor x="623.3636363636364" y="1480.0" name="top"/>
  <outline>
    <contour>
      <point x="904.4545454545455" y="0.0" type="line"/>
      <point x="1276.6363636363635" y="0.0" type="line"/>
      <point x="796.7272727272727" y="810.2727272727273" type="line"/>
      <point x="793.2727272727273" y="712.0" type="line"/>
      <point x="1239.8181818181818" y="1480.0" type="line"/>
      <point x="878.2727272727273" y="1480.0" type="line"/>
      <point x="455.54545454545456" y="751.0909090909091" type="line"/>
    </contour>
    <contour>
      <point x="98.36363636363636" y="0.0" type="line"/>
      <point x="446.1818181818182" y="0.0" type="line"/>
      <point x="446.1818181818182" y="1480.0" type="line"/>
      <point x="98.36363636363636" y="1480.0" type="line"/>
    </contour>
    <contour>
      <point x="399.0909090909091" y="596.7272727272727" type="line"/>
      <point x="580.4545454545455" y="596.7272727272727" type="line"/>
      <point x="580.4545454545455" y="914.6363636363636" type="line"/>
      <point x="399.0909090909091" y="914.6363636363636" type="line"/>
    </contour>
  </outline>
</glyph>
<glyph name="L" format="2">
  <advance width="1016.0909090909091"/>
  <unicode hex="004C"/>
  <anchor x="555.3636363636364" y="0.0" name="bottom"/>
  <anchor x="662.6363636363636" y="1616.0" name="caronalt"/>
  <anchor x="774.7272727272727" y="877.6363636363636" name="periodcentered"/>
  <anchor x="279.1818181818182" y="843.0909090909091" name="slash"/>
  <anchor x="279.1818181818182" y="1520.0" name="top"/>
  <outline>
    <contour>
      <point x="98.36363636363636" y="0.0" type="line"/>
      <point x="1012.0909090909091" y="0.0" type="line"/>
      <point x="1012.0909090909091" y="307.8181818181818" type="line"/>
      <point x="446.1818181818182" y="307.8181818181818" type="line"/>
      <point x="446.1818181818182" y="1480.0" type="line"/>
      <point x="98.36363636363636" y="1480.0" type="line"/>
    </contour>
  </outline>
</glyph>
<glyph name="M" format="2">
  <advance width="1706.0"/>
  <unicode hex="004D"/>
  <anchor x="875.4545454545455" y="0.0" name="bottom"/>
  <anchor x="875.4545454545455" y="1480.0" name="top"/>
  <outline>
    <contour>
      <point x="102.36363636363636" y="0.0" type="line"/>
      <point x="425.72727272727275" y="0.0" type="line"/>
      <point x="425.72727272727275" y="1145.3636363636365" type="line"/>
      <point x="355.1818181818182" y="1145.3636363636365" type="line"/>
      <point x="716.5454545454545" y="217.27272727272728" type="line"/>
      <point x="989.4545454545455" y="217.27272727272728" type="line"/>
      <point x="1338.4545454545455" y="1145.3636363636365" type="line"/>
      <point x="1280.2727272727273" y="1145.3636363636365" type="line"/>
      <point x="1280.2727272727273" y="0.0" type="line"/>
      <point x="1603.6363636363635" y="0.0" type="line"/>
      <point x="1603.6363636363635" y="1480.0" type="line"/>
      <point x="1175.2727272727273" y="1480.0" type="line"/>
      <point x="844.1818181818182" y="565.3636363636364" type="line"/>
      <point x="874.4545454545455" y="565.3636363636364" type="line"/>
      <point x="530.7272727272727" y="1480.0" type="line"/>
      <point x="102.36363636363636" y="1480.0" type="line"/>
    </contour>
  </outline>
</glyph>
<glyph name="P" format="2">
  <advance width="1195.6363636363635"/>
  <unicode hex="0050"/>
  <outline>
    <contour>
      <point x="98.36363636363636" y="0.0" type="line"/>
      <point x="446.1818181818182" y="0.0" type="line"/>
      <point x="446.1818181818182" y="413.72727272727275" type="line"/>
      <point x="483.4545454545455" y="412.9090909090909"/>
      <point x="510.0909090909091" y="410.9090909090909"/>
      <point x="551.3636363636364" y="410.9090909090909" type="curve" smooth="yes"/>
      <point x="933.3636363636364" y="410.9090909090909"/>
      <point x="1143.3636363636365" y="597.9090909090909"/>
      <point x="1143.3636363636365" y="953.9090909090909" type="curve" smooth="yes"/>
      <point x="1143.3636363636365" y="1331.3636363636363"/>
      <point x="933.3636363636364" y="1499.1818181818182"/>
      <point x="519.0909090909091" y="1499.1818181818182" type="curve" smooth="yes"/>
      <point x="367.0" y="1499.1818181818182"/>
      <point x="227.54545454545456" y="1480.2727272727273"/>
      <point x="98.36363636363636" y="1452.4545454545455" type="curve"/>
    </contour>
    <contour>
      <point x="555.6363636363636" y="691.0909090909091" type="curve" smooth="yes"/>
      <point x="512.6363636363636" y="691.0909090909091"/>
      <point x="480.27272727272725" y="693.0909090909091"/>
      <point x="446.1818181818182" y="697.6363636363636" type="curve"/>
      <point x="446.1818181818182" y="1209.909090909091" type="line"/>
      <point x="478.1818181818182" y="1216.4545454545455"/>
      <point x="507.0" y="1219.0"/>
      <point x="551.9090909090909" y="1219.0" type="curve" smooth="yes"/>
      <point x="724.0909090909091" y="1219.0"/>
      <point x="805.3636363636364" y="1139.3636363636365"/>
      <point x="805.3636363636364" y="949.9090909090909" type="curve" smooth="yes"/>
      <point x="805.3636363636364" y="762.9090909090909"/>
      <point x="722.7272727272727" y="691.0909090909091"/>
    </contour>
  </outline>
</glyph>
<glyph name="Q" format="2">
  <advance width="1364.3636363636365"/>
  <unicode hex="0051"/>
  <outline>
    <contour>
      <point x="1215.090909090909" y="-330.27272727272725" type="curve"/>
      <point x="1280.6363636363635" y="-46.63636363636364" type="line"/>
      <point x="1110.1818181818182" y="-23.454545454545453"/>
      <point x="937.909090909091" y="19.727272727272734"/>
      <point x="701.0" y="115.27272727272728" type="curve"/>
      <point x="593.1818181818182" y="28.272727272727273" type="line"/>
      <point x="1048.090909090909" y="-37.54545454545455"/>
      <point x="1304.3636363636365" y="221.0"/>
      <point x="1304.3636363636365" y="740.0" type="curve" smooth="yes"/>
      <point x="1304.3636363636365" y="1279.0"/>
      <point x="1050.7272727272727" y="1499.7272727272727"/>
      <point x="682.1818181818182" y="1499.7272727272727" type="curve" smooth="yes"/>
      <point x="313.6363636363636" y="1499.7272727272727"/>
      <point x="60.0" y="1279.0"/>
      <point x="60.0" y="740.0" type="curve" smooth="yes"/>
      <point x="60.0" y="173.63636363636363"/>
      <point x="339.90909090909093" y="-167.72727272727275"/>
    </contour>
    <contour>
      <point x="682.1818181818182" y="269.0909090909091" type="curve" smooth="yes"/>
      <point x="515.3636363636364" y="269.0909090909091"/>
      <point x="418.72727272727275" y="385.6363636363636"/>
      <point x="418.72727272727275" y="747.4545454545455" type="curve" smooth="yes"/>
      <point x="418.72727272727275" y="1094.3636363636365"/>
      <point x="515.3636363636364" y="1210.909090909091"/>
      <point x="682.1818181818182" y="1210.909090909091" type="curve" smooth="yes"/>
      <point x="849.0" y="1210.909090909091"/>
      <point x="945.6363636363636" y="1094.3636363636365"/>
      <point x="945.6363636363636" y="732.5454545454545" type="curve" smooth="yes"/>
      <point x="945.6363636363636" y="385.6363636363636"/>
      <point x="849.0" y="269.0909090909091"/>
    </contour>
  </outline>
</glyph>
<glyph name="U" format="2">
  <advance width="1318.909090909091"/>
  <unicode hex="0055"/>
  <anchor x="663.9090909090909" y="0.0" name="bottom"/>
  <anchor x="897.6363636363636" y="0.0" name="ogonek"/>
  <anchor x="663.9090909090909" y="1520.0" name="top"/>
  <anchor x="944.9090909090909" y="1480.0" name="topright"/>
  <outline>
    <contour>
      <point x="663.9090909090909" y="-19.727272727272727" type="curve" smooth="yes"/>
      <point x="1043.2727272727273" y="-19.727272727272727"/>
      <point x="1226.8181818181818" y="156.36363636363637"/>
      <point x="1226.8181818181818" y="588.7272727272727" type="curve" smooth="yes"/>
      <point x="1226.8181818181818" y="1480.0" type="line"/>
      <point x="886.1818181818182" y="1480.0" type="line"/>
      <point x="886.1818181818182" y="549.3636363636364" type="line" smooth="yes"/>
      <point x="886.1818181818182" y="345.4545454545455"/>
      <point x="807.8181818181819" y="272.54545454545456"/>
      <point x="663.9090909090909" y="272.54545454545456" type="curve" smooth="yes"/>
      <point x="520.0" y="272.54545454545456"/>
      <point x="439.9090909090909" y="345.4545454545455"/>
      <point x="439.9090909090909" y="549.3636363636364" type="curve" smooth="yes"/>
      <point x="439.9090909090909" y="1480.0" type="line"/>
      <point x="92.0909090909091" y="1480.0" type="line"/>
      <point x="92.0909090909091" y="588.7272727272727" type="line" smooth="yes"/>
      <point x="92.0909090909091" y="156.36363636363637"/>
      <point x="281.09090909090907" y="-19.727272727272727"/>
    </contour>
  </outline>
</glyph>
<glyph name="V" format="2">
  <advance width="1255.1818181818182"/>
  <unicode hex="0056"/>
  <outline>
    <contour>
      <point x="362.0909090909091" y="0.0" type="line"/>
      <point x="893.0909090909091" y="0.0" type="line"/>
      <point x="1269.3636363636365" y="1480.0" type="line"/>
      <point x="936.8181818181818" y="1480.0" type="line"/>
      <point x="602.4545454545455" y="135.0" type="line"/>
      <point x="670.2727272727273" y="135.0" type="line"/>
      <point x="343.0909090909091" y="1480.0" type="line"/>
      <point x="-14.181818181818183" y="1480.0" type="line"/>
    </contour>
  </outline>
</glyph>
<glyph name="X" format="2">
  <advance width="1260.8181818181818"/>
  <unicode hex="0058"/>
  <outline>
    <contour>
      <point x="917.0909090909091" y="0.0" type="line"/>
      <point x="1292.7272727272727" y="0.0" type="line"/>
      <point x="831.9090909090909" y="773.9090909090909" type="line"/>
      <point x="629.5454545454545" y="1057.0" type="line"/>
      <point x="381.0909090909091" y="1480.0" type="line"/>
      <point x="0.5454545454545467" y="1480.0" type="line"/>
      <point x="427.1818181818182" y="772.1818181818181" type="line"/>
      <point x="629.5454545454545" y="494.0" type="line"/>
    </contour>
    <contour>
      <point x="-40.54545454545455" y="0.0" type="line"/>
      <point x="340.0" y="0.0" type="line"/>
      <point x="629.5454545454545" y="494.0" type="line"/>
      <point x="831.9090909090909" y="773.9090909090909" type="line"/>
      <point x="1251.6363636363635" y="1480.0" type="line"/>
      <point x="878.0" y="1480.0" type="line"/>
      <point x="629.5454545454545" y="1057.0" type="line"/>
      <point x="427.1818181818182" y="772.1818181818181" type="line"/>
    </contour>
  </outline>
</glyph>
<glyph name="Z" format="2">
  <advance width="1089.909090909091"/>
  <unicode hex="005A"/>
  <anchor x="539.9090909090909" y="0.0" name="bottom"/>
  <anchor x="546.8181818181818" y="1520.0" name="top"/>
  <outline>
    <contour>
      <point x="35.27272727272727" y="0.0" type="line"/>
      <point x="1054.6363636363635" y="0.0" type="line"/>
      <point x="1054.6363636363635" y="307.54545454545456" type="line"/>
      <point x="449.0909090909091" y="307.54545454545456" type="line"/>
      <point x="451.27272727272725" y="247.0" type="line"/>
      <point x="1044.6363636363635" y="1284.5454545454545" type="line"/>
      <point x="1044.6363636363635" y="1480.0" type="line"/>
      <point x="45.27272727272727" y="1480.0" type="line"/>
      <point x="45.27272727272727" y="1172.4545454545455" type="line"/>
      <point x="630.8181818181818" y="1172.4545454545455" type="line"/>
      <point x="628.6363636363636" y="1233.0" type="line"/>
      <point x="35.27272727272727" y="195.45454545454547" type="line"/>
    </contour>
  </outline>
</glyph>
<glyph name="bracketleft" format="2">
  <advance width="656.5454545454545"/>
  <unicode hex="005B"/>
  <outline>
    <contour>
      <point x="118.36363636363636" y="-440.0" type="line"/>
      <point x="687.9090909090909" y="-440.0" type="line"/>
      <point x="687.9090909090909" y="-172.1818181818182" type="line"/>
      <point x="461.0" y="-172.1818181818182" type="line"/>
      <point x="461.0" y="1348.1818181818182" type="line"/>
      <point x="687.9090909090909" y="1348.1818181818182" type="line"/>
      <point x="687.9090909090909" y="1616.0" type="line"/>
      <point x="118.36363636363636" y="1616.0" type="line"/>
    </contour>
  </outline>
</glyph>
<glyph name="backslash" format="2">
  <advance width="703.0"/>
  <unicode hex="005C"/>
  <outline>
    <contour>
      <point x="373.90909090909093" y="-240.0" type="line"/>
      <point x="703.0" y="-240.0" type="line"/>
      <point x="329.0909090909091" y="1616.0" type="line"/>
      <point x="0.0" y="1616.0" type="line"/>
    </contour>
  </outline>
</glyph>
<glyph name="bracketright" format="2">
  <advance width="656.5454545454545"/>
  <unicode hex="005D"/>
  <outline>
    <contour>
      <point x="-31.363636363636363" y="-440.0" type="line"/>
      <point x="538.1818181818182" y="-440.0" type="line"/>
      <point x="538.1818181818182" y="1616.0" type="line"/>
      <point x="-31.363636363636363" y="1616.0" type="line"/>
      <point x="-31.363636363636363" y="1348.1818181818182" type="line"/>
      <point x="195.54545454545456" y="1348.1818181818182" type="line"/>
      <point x="195.54545454545456" y="-172.1818181818182" type="line"/>
      <point x="-31.363636363636363" y="-172.1818181818182" type="line"/>
    </contour>
  </outline>
</glyph>
<glyph name="grave" format="2">
  <advance width="1145.4545454545455"/>
  <unicode hex="0060"/>
  <anchor x="572.7272727272727" y="1200.0" name="_top"/>
  <anchor x="572.7272727272727" y="1642.3636363636363" name="top"/>
  <outline>
    <contour>
      <point x="423.8181818181818" y="1226.0" type="line"/>
      <point x="721.6363636363636" y="1226.0" type="line"/>
      <point x="521.8181818181818" y="1616.0" type="line"/>
      <point x="176.9090909090909" y="1616.0" type="line"/>
    </contour>
  </outline>
</glyph>
<glyph name="b" format="2">
  <advance width="1078.090909090909"/>
  <unicode hex="0062"/>
  <anchor x="548.0909090909091" y="0.0" name="bottom"/>
  <anchor x="259.1818181818182" y="1616.0" name="top"/>
  <outline>
    <contour>
      <point x="465.27272727272725" y="-19.727272727272727" type="curve" smooth="yes"/>
      <point x="859.8181818181818" y="-21.454545454545453"/>
      <point x="1031.5454545454545" y="185.0909090909091"/>
      <point x="1031.5454545454545" y="565.1818181818181" type="curve" smooth="yes"/>
      <point x="1031.5454545454545" y="951.8181818181819"/>
      <point x="862.0909090909091" y="1115.0"/>
      <point x="668.9090909090909" y="1115.0" type="curve" smooth="yes"/>
      <point x="566.4545454545455" y="1115.0"/>
      <point x="488.8181818181818" y="1067.3636363636363"/>
      <point x="446.0" y="986.6363636363636" type="curve"/>
      <point x="429.6363636363636" y="986.6363636363636" type="line"/>
      <point x="429.6363636363636" y="1616.0" type="line"/>
      <point x="87.0" y="1616.0" type="line"/>
      <point x="87.0" y="42.18181818181819" type="line"/>
      <point x="197.0909090909091" y="1.1818181818181817"/>
      <point x="339.1818181818182" y="-19.727272727272727"/>
    </contour>
    <contour>
      <point x="492.9090909090909" y="241.45454545454547" type="curve" smooth="yes"/>
      <point x="471.72727272727275" y="241.45454545454547"/>
      <point x="448.9090909090909" y="244.54545454545456"/>
      <point x="429.6363636363636" y="249.63636363636363" type="curve"/>
      <point x="429.6363636363636" y="794.5454545454545" type="line"/>
      <point x="452.27272727272725" y="815.3636363636364"/>
      <point x="487.1818181818182" y="826.1818181818182"/>
      <point x="519.8181818181819" y="826.1818181818182" type="curve" smooth="yes"/>
      <point x="620.8181818181819" y="826.1818181818182"/>
      <point x="681.4545454545455" y="774.4545454545455"/>
      <point x="681.4545454545455" y="534.7272727272727" type="curve" smooth="yes"/>
      <point x="681.4545454545455" y="306.9090909090909"/>
      <point x="616.0" y="241.45454545454547"/>
    </contour>
  </outline>
</glyph>
<glyph name="f" format="2">
  <advance width="715.7272727272727"/>
  <unicode hex="0066"/>
  <outline>
    <contour>
      <point x="156.1818181818182" y="0.0" type="line"/>
      <point x="493.6363636363636" y="0.0" type="line"/>
      <point x="493.6363636363636" y="1192.8181818181818" type="line" smooth="yes"/>
      <point x="493.6363636363636" y="1307.6363636363635"/>
      <point x="546.9090909090909" y="1359.2727272727273"/>
      <point x="684.6363636363636" y="1359.2727272727273" type="curve" smooth="yes"/>
      <point x="713.6363636363636" y="1359.2727272727273"/>
      <point x="740.7272727272727" y="1357.0"/>
      <point x="774.0909090909091" y="1352.4545454545455" type="curve"/>
      <point x="774.0909090909091" y="1624.2727272727273" type="line"/>
      <point x="730.6363636363636" y="1632.2727272727273"/>
      <point x="677.7272727272727" y="1636.0"/>
      <point x="631.6363636363636" y="1636.0" type="curve" smooth="yes"/>
      <point x="312.6363636363636" y="1636.0"/>
      <point x="156.1818181818182" y="1465.7272727272727"/>
      <point x="156.1818181818182" y="1170.6363636363635" type="curve" smooth="yes"/>
    </contour>
    <contour>
      <point x="8.0" y="829.4545454545455" type="line"/>
      <point x="733.1818181818182" y="829.4545454545455" type="line"/>
      <point x="733.1818181818182" y="1097.2727272727273" type="line"/>
      <point x="8.0" y="1097.2727272727273" type="line"/>
    </contour>
  </outline>
</glyph>
<glyph name="h" format="2">
  <advance width="1075.090909090909"/>
  <unicode hex="0068"/>
  <anchor x="540.8181818181818" y="0.0" name="bottom"/>
  <anchor x="540.8181818181818" y="548.6363636363636" name="center"/>
  <anchor x="87.0" y="1350.8181818181818" name="stroke"/>
  <anchor x="540.8181818181818" y="1616.0" name="top"/>
  <outline>
    <contour>
      <point x="87.0" y="0.0" type="line"/>
      <point x="429.6363636363636" y="0.0" type="line"/>
      <point x="429.6363636363636" y="751.5454545454545" type="line"/>
      <point x="458.72727272727275" y="790.8181818181818"/>
      <point x="511.27272727272725" y="810.3636363636364"/>
      <point x="553.1818181818181" y="810.3636363636364" type="curve" smooth="yes"/>
      <point x="610.6363636363636" y="810.3636363636364"/>
      <point x="650.2727272727273" y="781.4545454545455"/>
      <point x="650.2727272727273" y="685.9090909090909" type="curve" smooth="yes"/>
      <point x="650.2727272727273" y="0.0" type="line"/>
      <point x="992.9090909090909" y="0.0" type="line"/>
      <point x="992.9090909090909" y="716.4545454545455" type="line" smooth="yes"/>
      <point x="992.9090909090909" y="1011.3636363636364"/>
      <point x="857.0909090909091" y="1115.0"/>
      <point x="698.8181818181818" y="1115.0" type="curve" smooth="yes"/>
      <point x="575.0" y="1115.0"/>
      <point x="498.3636363636364" y="1065.8181818181818"/>
      <point x="446.0" y="983.6363636363636" type="curve"/>
      <point x="429.6363636363636" y="983.6363636363636" type="line"/>
      <point x="429.6363636363636" y="1616.0" type="line"/>
      <point x="87.0" y="1616.0" type="line"/>
    </contour>
  </outline>
</glyph>
<glyph name="k" format="2">
  <advance width="1054.8181818181818"/>
  <unicode hex="006B"/>
  <guideline x="601.8181818181819" y="564.0909090909091" angle="0.0"/>
  <anchor x="569.0909090909091" y="0.0" name="bottom"/>
  <anchor x="259.1818181818182" y="1616.0" name="top"/>
  <outline>
    <contour>
      <point x="728.8181818181819" y="0.0" type="line"/>
      <point x="1096.090909090909" y="0.0" type="line"/>
      <point x="746.6363636363636" y="619.2727272727273" type="line"/>
      <point x="746.6363636363636" y="521.0" type="line"/>
      <point x="1060.6363636363635" y="1097.2727272727273" type="line"/>
      <point x="702.2727272727273" y="1097.2727272727273" type="line"/>
      <point x="410.0909090909091" y="564.0909090909091" type="line"/>
    </contour>
    <contour>
      <point x="399.8181818181818" y="430.1818181818182" type="line"/>
      <point x="526.0909090909091" y="430.1818181818182" type="line"/>
      <point x="526.0909090909091" y="698.0" type="line"/>
      <point x="399.8181818181818" y="698.0" type="line"/>
    </contour>
    <contour>
      <point x="87.0" y="0.0" type="line"/>
      <point x="429.6363636363636" y="0.0" type="line"/>
      <point x="429.6363636363636" y="1616.0" type="line"/>
      <point x="87.0" y="1616.0" type="line"/>
    </contour>
  </outline>
</glyph>
<glyph name="m" format="2">
  <advance width="1603.7272727272727"/>
  <unicode hex="006D"/>
  <anchor x="806.2727272727273" y="0.0" name="bottom"/>
  <anchor x="806.2727272727273" y="1200.0" name="top"/>
  <outline>
    <contour>
      <point x="87.0" y="0.0" type="line"/>
      <point x="429.6363636363636" y="0.0" type="line"/>
      <point x="429.6363636363636" y="750.7272727272727" type="line"/>
      <point x="456.72727272727275" y="790.8181818181818"/>
      <point x="506.72727272727275" y="810.6363636363636"/>
      <point x="545.8181818181819" y="810.6363636363636" type="curve" smooth="yes"/>
      <point x="599.9090909090909" y="810.6363636363636"/>
      <point x="637.5454545454545" y="783.1818181818182"/>
      <point x="637.5454545454545" y="694.0" type="curve" smooth="yes"/>
      <point x="637.5454545454545" y="0.0" type="line"/>
      <point x="973.2727272727273" y="0.0" type="line"/>
      <point x="973.2727272727273" y="733.7272727272727" type="line" smooth="yes"/>
      <point x="973.2727272727273" y="1014.8181818181819"/>
      <point x="841.7272727272727" y="1115.0"/>
      <point x="681.6363636363636" y="1115.0" type="curve" smooth="yes"/>
      <point x="565.5454545454545" y="1115.0"/>
      <point x="479.0909090909091" y="1071.0"/>
      <point x="411.4545454545455" y="983.3636363636364" type="curve"/>
      <point x="396.54545454545456" y="983.3636363636364" type="line"/>
      <point x="371.54545454545456" y="1097.2727272727273" type="line"/>
      <point x="87.0" y="1097.2727272727273" type="line"/>
    </contour>
    <contour>
      <point x="1178.909090909091" y="0.0" type="line"/>
      <point x="1521.5454545454545" y="0.0" type="line"/>
      <point x="1521.5454545454545" y="713.0" type="line" smooth="yes"/>
      <point x="1521.5454545454545" y="1011.3636363636364"/>
      <point x="1382.2727272727273" y="1115.0"/>
      <point x="1203.1818181818182" y="1115.0" type="curve" smooth="yes"/>
      <point x="1085.3636363636365" y="1115.0"/>
      <point x="971.4545454545455" y="1058.909090909091"/>
      <point x="901.6363636363636" y="948.9090909090909" type="curve"/>
      <point x="959.0" y="747.4545454545455" type="line"/>
      <point x="989.5454545454545" y="790.8181818181818"/>
      <point x="1044.090909090909" y="810.6363636363636"/>
      <point x="1083.1818181818182" y="810.6363636363636" type="curve" smooth="yes"/>
      <point x="1137.2727272727273" y="810.6363636363636"/>
      <point x="1178.909090909091" y="783.1818181818182"/>
      <point x="1178.909090909091" y="694.0" type="curve" smooth="yes"/>
    </contour>
  </outline>
</glyph>
<glyph name="n" format="2">
  <advance width="1075.090909090909"/>
  <unicode hex="006E"/>
  <anchor x="10.0" y="1200.0" name="apostrophe"/>
  <anchor x="540.8181818181818" y="0.0" name="bottom"/>
  <anchor x="540.8181818181818" y="1200.0" name="top"/>
  <outline>
    <contour>
      <point x="87.0" y="0.0" type="line"/>
      <point x="429.6363636363636" y="0.0" type="line"/>
      <point x="429.6363636363636" y="751.5454545454545" type="line"/>
      <point x="458.72727272727275" y="790.8181818181818"/>
      <point x="507.8181818181818" y="810.6363636363636"/>
      <point x="553.1818181818181" y="810.6363636363636" type="curve" smooth="yes"/>
      <point x="610.6363636363636" y="810.6363636363636"/>
      <point x="650.2727272727273" y="783.1818181818182"/>
      <point x="650.2727272727273" y="691.0909090909091" type="curve" smooth="yes"/>
      <point x="650.2727272727273" y="0.0" type="line"/>
      <point x="992.9090909090909" y="0.0" type="line"/>
      <point x="992.9090909090909" y="717.2727272727273" type="line" smooth="yes"/>
      <point x="992.9090909090909" y="1009.6363636363636"/>
      <point x="857.0909090909091" y="1115.0"/>
      <point x="679.8181818181818" y="1115.0" type="curve" smooth="yes"/>
      <point x="567.0" y="1115.0"/>
      <point x="476.8181818181818" y="1069.909090909091"/>
      <point x="411.4545454545455" y="983.6363636363636" type="curve"/>
      <point x="396.54545454545456" y="983.6363636363636" type="line"/>
      <point x="371.54545454545456" y="1097.2727272727273" type="line"/>
      <point x="87.0" y="1097.2727272727273" type="line"/>
    </contour>
  </outline>
</glyph>
<glyph name="p" format="2">
  <advance width="1078.090909090909"/>
  <unicode hex="0070"/>
  <outline>
    <contour>
      <point x="87.0" y="-440.0" type="line"/>
      <point x="429.6363636363636" y="-440.0" type="line"/>
      <point x="429.6363636363636" y="-18.363636363636363" type="line"/>
      <point x="441.3636363636364" y="-19.18181818181818"/>
      <point x="452.72727272727275" y="-19.727272727272727"/>
      <point x="464.45454545454544" y="-19.727272727272727" type="curve" smooth="yes"/>
      <point x="860.0909090909091" y="-19.727272727272727"/>
      <point x="1031.5454545454545" y="186.8181818181818"/>
      <point x="1031.5454545454545" y="566.9090909090909" type="curve" smooth="yes"/>
      <point x="1031.5454545454545" y="953.5454545454545"/>
      <point x="848.2727272727273" y="1115.0"/>
      <point x="645.9090909090909" y="1115.0" type="curve" smooth="yes"/>
      <point x="533.6363636363636" y="1115.0"/>
      <point x="456.0" y="1060.4545454545455"/>
      <point x="414.9090909090909" y="975.4545454545455" type="curve"/>
      <point x="400.0" y="975.4545454545455" type="line"/>
      <point x="376.72727272727275" y="1097.2727272727273" type="line"/>
      <point x="87.0" y="1097.2727272727273" type="line"/>
    </contour>
    <contour>
      <point x="492.3636363636364" y="241.45454545454547" type="curve" smooth="yes"/>
      <point x="476.9090909090909" y="241.45454545454547"/>
      <point x="448.9090909090909" y="244.0"/>
      <point x="429.6363636363636" y="246.8181818181818" type="curve"/>
      <point x="429.6363636363636" y="788.8181818181818" type="line"/>
      <point x="454.0" y="813.6363636363636"/>
      <point x="492.3636363636364" y="827.9090909090909"/>
      <point x="529.9090909090909" y="827.9090909090909" type="curve" smooth="yes"/>
      <point x="620.8181818181819" y="827.9090909090909"/>
      <point x="681.4545454545455" y="776.1818181818182"/>
      <point x="681.4545454545455" y="536.4545454545455" type="curve" smooth="yes"/>
      <point x="681.4545454545455" y="306.9090909090909"/>
      <point x="616.0" y="241.45454545454547"/>
    </contour>
  </outline>
</glyph>
<glyph name="q" format="2">
  <advance width="1078.090909090909"/>
  <unicode hex="0071"/>
  <outline>
    <contour>
      <point x="648.4545454545455" y="-440.0" type="line"/>
      <point x="991.0909090909091" y="-440.0" type="line"/>
      <point x="991.0909090909091" y="1053.090909090909" type="line"/>
      <point x="881.5454545454545" y="1093.8181818181818"/>
      <point x="738.9090909090909" y="1115.0"/>
      <point x="612.8181818181818" y="1115.0" type="curve" smooth="yes"/>
      <point x="218.27272727272728" y="1115.0"/>
      <point x="46.54545454545455" y="910.1818181818181"/>
      <point x="46.54545454545455" y="530.0909090909091" type="curve" smooth="yes"/>
      <point x="46.54545454545455" y="143.45454545454544"/>
      <point x="216.0" y="-19.727272727272727"/>
      <point x="409.1818181818182" y="-19.727272727272727" type="curve" smooth="yes"/>
      <point x="511.6363636363636" y="-19.727272727272727"/>
      <point x="589.2727272727273" y="27.909090909090907"/>
      <point x="632.0909090909091" y="108.63636363636364" type="curve"/>
      <point x="648.4545454545455" y="108.63636363636364" type="line"/>
    </contour>
    <contour>
      <point x="558.2727272727273" y="269.0909090909091" type="curve" smooth="yes"/>
      <point x="457.27272727272725" y="269.0909090909091"/>
      <point x="396.6363636363636" y="320.8181818181818"/>
      <point x="396.6363636363636" y="560.5454545454545" type="curve" smooth="yes"/>
      <point x="396.6363636363636" y="788.3636363636364"/>
      <point x="465.54545454545456" y="853.8181818181818"/>
      <point x="583.4545454545455" y="853.8181818181818" type="curve" smooth="yes"/>
      <point x="604.6363636363636" y="853.8181818181818"/>
      <point x="629.1818181818181" y="850.7272727272727"/>
      <point x="648.4545454545455" y="847.6363636363636" type="curve"/>
      <point x="648.4545454545455" y="300.72727272727275" type="line"/>
      <point x="625.8181818181819" y="279.9090909090909"/>
      <point x="590.9090909090909" y="269.0909090909091"/>
    </contour>
  </outline>
</glyph>
<glyph name="r" format="2">
  <advance width="749.0909090909091"/>
  <unicode hex="0072"/>
  <anchor x="259.1818181818182" y="0.0" name="bottom"/>
  <anchor x="410.3636363636364" y="1200.0" name="top"/>
  <outline>
    <contour>
      <point x="87.0" y="0.0" type="line"/>
      <point x="429.6363636363636" y="0.0" type="line"/>
      <point x="429.6363636363636" y="708.8181818181818" type="line"/>
      <point x="468.9090909090909" y="762.0"/>
      <point x="552.3636363636364" y="796.9090909090909"/>
      <point x="638.1818181818182" y="796.9090909090909" type="curve" smooth="yes"/>
      <point x="669.0909090909091" y="796.9090909090909"/>
      <point x="707.0" y="795.1818181818182"/>
      <point x="739.0909090909091" y="788.0" type="curve"/>
      <point x="739.0909090909091" y="1106.4545454545455" type="line"/>
      <point x="718.4545454545455" y="1110.1818181818182"/>
      <point x="688.3636363636364" y="1113.909090909091"/>
      <point x="660.9090909090909" y="1113.909090909091" type="curve" smooth="yes"/>
      <point x="549.4545454545455" y="1113.909090909091"/>
      <point x="457.27272727272725" y="1068.8181818181818"/>
      <point x="409.72727272727275" y="944.3636363636364" type="curve"/>
      <point x="394.8181818181818" y="944.3636363636364" type="line"/>
      <point x="368.0909090909091" y="1097.2727272727273" type="line"/>
      <point x="87.0" y="1097.2727272727273" type="line"/>
    </contour>
  </outline>
</glyph>
<glyph name="v" format="2">
  <advance width="1025.5454545454545"/>
  <unicode hex="0076"/>
  <anchor x="512.9090909090909" y="0.0" name="bottom"/>
  <anchor x="512.9090909090909" y="1200.0" name="top"/>
  <outline>
    <contour>
      <point x="290.45454545454544" y="0.0" type="line"/>
      <point x="735.0909090909091" y="0.0" type="line"/>
      <point x="1032.5454545454545" y="1097.2727272727273" type="line"/>
      <point x="694.0" y="1097.2727272727273" type="line"/>
      <point x="506.0909090909091" y="279.27272727272725" type="line"/>
      <point x="533.2727272727273" y="279.27272727272725" type="line"/>
      <point x="345.3636363636364" y="1097.2727272727273" type="line"/>
      <point x="-7.0" y="1097.2727272727273" type="line"/>
    </contour>
  </outline>
</glyph>
<glyph name="w" format="2">
  <advance width="1604.6363636363635"/>
  <unicode hex="0077"/>
  <anchor x="803.1818181818182" y="0.0" name="bottom"/>
  <anchor x="803.4545454545455" y="1200.0" name="top"/>
  <outline>
    <contour>
      <point x="264.27272727272725" y="0.0" type="line"/>
      <point x="631.1818181818182" y="0.0" type="line"/>
      <point x="816.3636363636364" y="783.0" type="line"/>
      <point x="795.4545454545455" y="783.0" type="line"/>
      <point x="975.1818181818181" y="0.0" type="line"/>
      <point x="1342.090909090909" y="0.0" type="line"/>
      <point x="1594.090909090909" y="1097.2727272727273" type="line"/>
      <point x="1290.909090909091" y="1097.2727272727273" type="line"/>
      <point x="1134.3636363636363" y="368.1818181818182" type="line"/>
      <point x="1155.5454545454545" y="368.1818181818182" type="line"/>
      <point x="994.5454545454545" y="1097.2727272727273" type="line"/>
      <point x="627.6363636363636" y="1097.2727272727273" type="line"/>
      <point x="461.45454545454544" y="366.45454545454544" type="line"/>
      <point x="475.72727272727275" y="366.45454545454544" type="line"/>
      <point x="326.0909090909091" y="1097.2727272727273" type="line"/>
      <point x="10.545454545454547" y="1097.2727272727273" type="line"/>
    </contour>
  </outline>
</glyph>
<glyph name="x" format="2">
  <advance width="1015.7272727272727"/>
  <unicode hex="0078"/>
  <anchor x="508.0" y="0.0" name="bottom"/>
  <anchor x="509.72727272727275" y="1200.0" name="top"/>
  <outline>
    <contour>
      <point x="676.4545454545455" y="0.0" type="line"/>
      <point x="1046.6363636363635" y="0.0" type="line"/>
      <point x="711.8181818181818" y="556.3636363636364" type="line"/>
      <point x="511.45454545454544" y="811.5454545454545" type="line"/>
      <point x="348.72727272727275" y="1097.2727272727273" type="line"/>
      <point x="-21.454545454545453" y="1097.2727272727273" type="line"/>
      <point x="302.1818181818182" y="552.6363636363636" type="line"/>
      <point x="506.0" y="301.1818181818182" type="line"/>
    </contour>
    <contour>
      <point x="-27.18181818181818" y="0.0" type="line"/>
      <point x="332.3636363636364" y="0.0" type="line"/>
      <point x="506.0" y="301.1818181818182" type="line"/>
      <point x="711.8181818181818" y="556.3636363636364" type="line"/>
      <point x="1033.7272727272727" y="1097.2727272727273" type="line"/>
      <point x="674.1818181818181" y="1097.2727272727273" type="line"/>
      <point x="511.45454545454544" y="811.5454545454545" type="line"/>
      <point x="302.1818181818182" y="552.6363636363636" type="line"/>
    </contour>
  </outline>
</glyph>
<glyph name="z" format="2">
  <advance width="857.7272727272727"/>
  <unicode hex="007A"/>
  <anchor x="436.1818181818182" y="0.0" name="bottom"/>
  <anchor x="436.1818181818182" y="1200.0" name="top"/>
  <outline>
    <contour>
      <point x="43.63636363636364" y="0.0" type="line"/>
      <point x="828.4545454545455" y="0.0" type="line"/>
      <point x="828.4545454545455" y="267.8181818181818" type="line"/>
      <point x="381.6363636363636" y="267.8181818181818" type="line"/>
      <point x="381.6363636363636" y="202.0909090909091" type="line"/>
      <point x="818.4545454545455" y="884.5454545454545" type="line"/>
      <point x="818.4545454545455" y="1097.2727272727273" type="line"/>
      <point x="53.63636363636364" y="1097.2727272727273" type="line"/>
      <point x="53.63636363636364" y="829.4545454545455" type="line"/>
      <point x="480.45454545454544" y="829.4545454545455" type="line"/>
      <point x="480.45454545454544" y="895.1818181818182" type="line"/>
      <point x="43.63636363636364" y="212.72727272727272" type="line"/>
    </contour>
  </outline>
</glyph>
<glyph name="braceleft" format="2">
  <advance width="696.5454545454545"/>
  <unicode hex="007B"/>
  <outline>
    <contour>
      <point x="556.0909090909091" y="-460.0" type="curve" smooth="yes"/>
      <point x="622.5454545454545" y="-460.0"/>
      <point x="678.9090909090909" y="-454.27272727272725"/>
      <point x="727.9090909090909" y="-446.54545454545456" type="curve"/>
      <point x="727.9090909090909" y="-186.72727272727272" type="line"/>
      <point x="614.2727272727273" y="-186.72727272727272" type="line" smooth="yes"/>
      <point x="539.6363636363636" y="-186.72727272727272"/>
      <point x="501.0" y="-155.0"/>
      <point x="501.0" y="-85.54545454545455" type="curve" smooth="yes"/>
      <point x="501.0" y="360.45454545454544" type="line" smooth="yes"/>
      <point x="501.0" y="545.5454545454545"/>
      <point x="411.8181818181818" y="648.6363636363636"/>
      <point x="157.1818181818182" y="652.1818181818181" type="curve"/>
      <point x="157.1818181818182" y="609.0909090909091" type="line"/>
      <point x="411.8181818181818" y="612.6363636363636"/>
      <point x="501.0" y="715.7272727272727"/>
      <point x="501.0" y="900.8181818181818" type="curve" smooth="yes"/>
      <point x="501.0" y="1261.5454545454545" type="line" smooth="yes"/>
      <point x="501.0" y="1331.0"/>
      <point x="539.6363636363636" y="1362.7272727272727"/>
      <point x="614.2727272727273" y="1362.7272727272727" type="curve" smooth="yes"/>
      <point x="727.9090909090909" y="1362.7272727272727" type="line"/>
      <point x="727.9090909090909" y="1622.5454545454545" type="line"/>
      <point x="678.9090909090909" y="1630.2727272727273"/>
      <point x="622.5454545454545" y="1636.0"/>
      <point x="556.0909090909091" y="1636.0" type="curve" smooth="yes"/>
      <point x="292.3636363636364" y="1636.0"/>
      <point x="158.36363636363637" y="1505.4545454545455"/>
      <point x="158.36363636363637" y="1257.0" type="curve" smooth="yes"/>
      <point x="158.36363636363637" y="874.9090909090909" type="line" smooth="yes"/>
      <point x="158.36363636363637" y="806.4545454545455"/>
      <point x="115.36363636363636" y="764.5454545454545"/>
      <point x="48.27272727272727" y="764.5454545454545" type="curve" smooth="yes"/>
      <point x="-5.81818181818182" y="764.5454545454545" type="line"/>
      <point x="-5.81818181818182" y="496.72727272727275" type="line"/>
      <point x="48.27272727272727" y="496.72727272727275" type="line" smooth="yes"/>
      <point x="115.36363636363636" y="496.72727272727275"/>
      <point x="158.36363636363637" y="454.8181818181818"/>
      <point x="158.36363636363637" y="386.3636363636364" type="curve" smooth="yes"/>
      <point x="158.36363636363637" y="-81.0" type="line" smooth="yes"/>
      <point x="158.36363636363637" y="-329.45454545454544"/>
      <point x="292.3636363636364" y="-460.0"/>
    </contour>
  </outline>
</glyph>
<glyph name="braceright" format="2">
  <advance width="696.5454545454545"/>
  <unicode hex="007D"/>
  <outline>
    <contour>
      <point x="140.45454545454544" y="-460.0" type="curve" smooth="yes"/>
      <point x="404.1818181818182" y="-460.0"/>
      <point x="538.1818181818182" y="-329.45454545454544"/>
      <point x="538.1818181818182" y="-81.0" type="curve" smooth="yes"/>
      <point x="538.1818181818182" y="386.3636363636364" type="line" smooth="yes"/>
      <point x="538.1818181818182" y="454.8181818181818"/>
      <point x="581.1818181818182" y="496.72727272727275"/>
      <point x="648.2727272727273" y="496.72727272727275" type="curve" smooth="yes"/>
      <point x="702.3636363636364" y="496.72727272727275" type="line"/>
      <point x="702.3636363636364" y="764.5454545454545" type="line"/>
      <point x="648.2727272727273" y="764.5454545454545" type="line" smooth="yes"/>
      <point x="581.1818181818182" y="764.5454545454545"/>
      <point x="538.1818181818182" y="806.4545454545455"/>
      <point x="538.1818181818182" y="874.9090909090909" type="curve" smooth="yes"/>
      <point x="538.1818181818182" y="1257.0" type="line" smooth="yes"/>
      <point x="538.1818181818182" y="1505.4545454545455"/>
      <point x="404.1818181818182" y="1636.0"/>
      <point x="140.45454545454544" y="1636.0" type="curve" smooth="yes"/>
      <point x="74.0" y="1636.0"/>
      <point x="17.636363636363637" y="1630.2727272727273"/>
      <point x="-31.363636363636363" y="1622.5454545454545" type="curve"/>
      <point x="-31.363636363636363" y="1362.7272727272727" type="line"/>
      <point x="82.27272727272727" y="1362.7272727272727" type="line" smooth="yes"/>
      <point x="156.9090909090909" y="1362.7272727272727"/>
      <point x="195.54545454545456" y="1331.0"/>
      <point x="195.54545454545456" y="1261.5454545454545" type="curve" smooth="yes"/>
      <point x="195.54545454545456" y="900.8181818181818" type="line" smooth="yes"/>
      <point x="195.54545454545456" y="715.7272727272727"/>
      <point x="289.9090909090909" y="612.6363636363636"/>
      <point x="539.3636363636364" y="609.0909090909091" type="curve"/>
      <point x="539.3636363636364" y="652.1818181818181" type="line"/>
      <point x="289.9090909090909" y="648.6363636363636"/>
      <point x="195.54545454545456" y="545.5454545454545"/>
      <point x="195.54545454545456" y="360.45454545454544" type="curve" smooth="yes"/>
      <point x="195.54545454545456" y="-85.54545454545455" type="line" smooth="yes"/>
      <point x="195.54545454545456" y="-155.0"/>
      <point x="156.9090909090909" y="-186.72727272727272"/>
      <point x="82.27272727272727" y="-186.72727272727272" type="curve" smooth="yes"/>
      <point x="-31.363636363636363" y="-186.72727272727272" type="line"/>
      <point x="-31.363636363636363" y="-446.54545454545456" type="line"/>
      <point x="17.636363636363637" y="-454.27272727272725"/>
      <point x="74.0" y="-460.0"/>
    </contour>
  </outline>
</glyph>
<glyph name="asciitilde" format="2">
  <advance width="1033.2727272727273"/>
  <unicode hex="007E"/>
  <outline>
    <contour>
      <point x="709.3636363636364" y="569.0" type="curve" smooth="yes"/>
      <point x="811.5454545454545" y="569.0"/>
      <point x="883.2727272727273" y="599.2727272727273"/>
      <point x="946.2727272727273" y="669.3636363636364" type="curve"/>
      <point x="946.2727272727273" y="941.3636363636364" type="line"/>
      <point x="871.5454545454545" y="864.1818181818182"/>
      <point x="802.3636363636364" y="831.6363636363636"/>
      <point x="712.5454545454545" y="831.6363636363636" type="curve" smooth="yes"/>
      <point x="589.5454545454545" y="831.6363636363636"/>
      <point x="476.6363636363636" y="949.3636363636364"/>
      <point x="323.90909090909093" y="949.3636363636364" type="curve" smooth="yes"/>
      <point x="221.72727272727272" y="949.3636363636364"/>
      <point x="150.0" y="919.0909090909091"/>
      <point x="87.0" y="849.0" type="curve"/>
      <point x="87.0" y="577.0" type="line"/>
      <point x="161.72727272727272" y="654.1818181818182"/>
      <point x="230.9090909090909" y="686.7272727272727"/>
      <point x="320.72727272727275" y="686.7272727272727" type="curve" smooth="yes"/>
      <point x="443.72727272727275" y="686.7272727272727"/>
      <point x="556.6363636363636" y="569.0"/>
    </contour>
  </outline>
</glyph>
<glyph name="exclamdown" format="2">
  <advance width="558.9090909090909"/>
  <unicode hex="00A1"/>
  <outline>
    <contour>
      <point x="176.0" y="584.3636363636364" type="line"/>
      <point x="94.9090909090909" y="110.54545454545455" type="line"/>
      <point x="94.9090909090909" y="-380.0" type="line"/>
      <point x="464.0" y="-380.0" type="line"/>
      <point x="464.0" y="110.54545454545455" type="line"/>
      <point x="386.3636363636364" y="584.3636363636364" type="line"/>
    </contour>
    <contour>
      <point x="279.45454545454544" y="1115.909090909091" type="curve" smooth="yes"/>
      <point x="150.1818181818182" y="1115.909090909091"/>
      <point x="58.54545454545455" y="1033.1818181818182"/>
      <point x="58.54545454545455" y="898.4545454545455" type="curve" smooth="yes"/>
      <point x="58.54545454545455" y="763.7272727272727"/>
      <point x="146.72727272727272" y="680.7272727272727"/>
      <point x="279.45454545454544" y="680.7272727272727" type="curve" smooth="yes"/>
      <point x="412.1818181818182" y="680.7272727272727"/>
      <point x="500.3636363636364" y="767.1818181818182"/>
      <point x="500.3636363636364" y="898.4545454545455" type="curve" smooth="yes"/>
      <point x="500.3636363636364" y="1029.7272727272727"/>
      <point x="408.72727272727275" y="1115.909090909091"/>
    </contour>
  </outline>
</glyph>
<glyph name="yen" format="2">
  <advance width="1165.5454545454545"/>
  <unicode hex="00A5"/>
  <outline>
    <contour>
      <point x="409.72727272727275" y="0.0" type="line"/>
      <point x="757.5454545454545" y="0.0" type="line"/>
      <point x="757.5454545454545" y="761.5454545454545" type="line"/>
      <point x="686.2727272727273" y="486.1818181818182" type="line"/>
      <point x="1221.1818181818182" y="1480.0" type="line"/>
      <point x="886.0909090909091" y="1480.0" type="line"/>
      <point x="548.9090909090909" y="850.0909090909091" type="line"/>
      <point x="639.0909090909091" y="850.0909090909091" type="line"/>
      <point x="303.9090909090909" y="1480.0" type="line"/>
      <point x="-60.81818181818181" y="1480.0" type="line"/>
      <point x="481.0" y="486.1818181818182" type="line"/>
      <point x="409.72727272727275" y="766.7272727272727" type="line"/>
    </contour>
    <contour>
      <point x="118.36363636363636" y="261.27272727272725" type="line"/>
      <point x="1048.909090909091" y="261.27272727272725" type="line"/>
      <point x="1048.909090909091" y="472.0909090909091" type="line"/>
      <point x="118.36363636363636" y="472.0909090909091" type="line"/>
    </contour>
    <contour>
      <point x="118.36363636363636" y="575.9090909090909" type="line"/>
      <point x="1048.909090909091" y="575.9090909090909" type="line"/>
      <point x="1048.909090909091" y="786.7272727272727" type="line"/>
      <point x="118.36363636363636" y="786.7272727272727" type="line"/>
    </contour>
  </outline>
</glyph>
<glyph name="brokenbar" format="2">
  <advance width="499.6363636363636"/>
  <unicode hex="00A6"/>
  <outline>
    <contour>
      <point x="98.36363636363636" y="836.0" type="line"/>
      <point x="401.27272727272725" y="836.0" type="line"/>
      <point x="401.27272727272725" y="1616.0" type="line"/>
      <point x="98.36363636363636" y="1616.0" type="line"/>
    </contour>
    <contour>
      <point x="98.36363636363636" y="-440.0" type="line"/>
      <point x="401.27272727272725" y="-440.0" type="line"/>
      <point x="401.27272727272725" y="340.0" type="line"/>
      <point x="98.36363636363636" y="340.0" type="line"/>
    </contour>
  </outline>
</glyph>
<glyph name="section" format="2">
  <advance width="957.6363636363636"/>
  <unicode hex="00A7"/>
  <outline>
    <contour>
      <point x="400.0909090909091" y="-21.454545454545453" type="curve" smooth="yes"/>
      <point x="685.1818181818182" y="-21.454545454545453"/>
      <point x="857.5454545454545" y="116.18181818181819"/>
      <point x="857.5454545454545" y="331.54545454545456" type="curve" smooth="yes"/>
      <point x="857.5454545454545" y="487.0909090909091"/>
      <point x="769.0" y="569.2727272727273"/>
      <point x="606.3636363636364" y="609.4545454545455" type="curve" smooth="yes"/>
      <point x="424.54545454545456" y="652.7272727272727" type="line" smooth="yes"/>
      <point x="359.8181818181818" y="669.4545454545455"/>
      <point x="337.8181818181818" y="700.9090909090909"/>
      <point x="337.8181818181818" y="754.7272727272727" type="curve" smooth="yes"/>
      <point x="337.8181818181818" y="807.7272727272727"/>
      <point x="359.72727272727275" y="842.3636363636364"/>
      <point x="403.0" y="891.0" type="curve"/>
      <point x="216.54545454545453" y="1011.0" type="line"/>
      <point x="125.81818181818181" y="950.3636363636364"/>
      <point x="62.81818181818182" y="863.4545454545455"/>
      <point x="62.81818181818182" y="742.0909090909091" type="curve" smooth="yes"/>
      <point x="62.81818181818182" y="559.1818181818182"/>
      <point x="157.36363636363637" y="466.9090909090909"/>
      <point x="301.0909090909091" y="430.72727272727275" type="curve" smooth="yes"/>
      <point x="482.9090909090909" y="385.72727272727275" type="line" smooth="yes"/>
      <point x="526.6363636363636" y="374.1818181818182"/>
      <point x="547.4545454545455" y="355.9090909090909"/>
      <point x="547.4545454545455" y="315.45454545454544" type="curve" smooth="yes"/>
      <point x="547.4545454545455" y="264.4545454545455"/>
      <point x="511.6363636363636" y="231.0909090909091"/>
      <point x="396.6363636363636" y="231.0909090909091" type="curve" smooth="yes"/>
      <point x="300.72727272727275" y="231.0909090909091"/>
      <point x="201.63636363636363" y="244.8181818181818"/>
      <point x="115.36363636363636" y="269.3636363636364" type="curve"/>
      <point x="115.36363636363636" y="16.545454545454547" type="line"/>
      <point x="207.8181818181818" y="-9.181818181818182"/>
      <point x="306.27272727272725" y="-21.454545454545453"/>
    </contour>
    <contour>
      <point x="727.5454545454545" y="458.3636363636364" type="line"/>
      <point x="825.1818181818182" y="520.4545454545455"/>
      <point x="894.8181818181818" y="610.5454545454545"/>
      <point x="894.8181818181818" y="740.1818181818181" type="curve" smooth="yes"/>
      <point x="894.8181818181818" y="925.0909090909091"/>
      <point x="806.2727272727273" y="1012.7272727272727"/>
      <point x="657.4545454545455" y="1049.4545454545455" type="curve" smooth="yes"/>
      <point x="475.6363636363636" y="1092.7272727272727" type="line" smooth="yes"/>
      <point x="431.6363636363636" y="1104.2727272727273"/>
      <point x="410.1818181818182" y="1121.6363636363637"/>
      <point x="410.1818181818182" y="1158.1818181818182" type="curve" smooth="yes"/>
      <point x="410.1818181818182" y="1202.4545454545455"/>
      <point x="447.8181818181818" y="1245.1818181818182"/>
      <point x="599.0" y="1245.1818181818182" type="curve" smooth="yes"/>
      <point x="672.1818181818182" y="1245.1818181818182"/>
      <point x="743.4545454545455" y="1239.1818181818182"/>
      <point x="817.1818181818182" y="1222.909090909091" type="curve"/>
      <point x="817.1818181818182" y="1475.7272727272727" type="line"/>
      <point x="745.0909090909091" y="1489.7272727272727"/>
      <point x="662.6363636363636" y="1497.7272727272727"/>
      <point x="574.8181818181818" y="1497.7272727272727" type="curve" smooth="yes"/>
      <point x="254.9090909090909" y="1497.7272727272727"/>
      <point x="100.0909090909091" y="1356.4545454545455"/>
      <point x="100.0909090909091" y="1142.090909090909" type="curve" smooth="yes"/>
      <point x="100.0909090909091" y="997.1818181818182"/>
      <point x="192.9090909090909" y="906.9090909090909"/>
      <point x="352.1818181818182" y="869.0" type="curve" smooth="yes"/>
      <point x="534.0" y="825.7272727272727" type="line" smooth="yes"/>
      <point x="598.4545454545455" y="809.0"/>
      <point x="619.8181818181819" y="776.6363636363636"/>
      <point x="619.8181818181819" y="727.5454545454545" type="curve" smooth="yes"/>
      <point x="619.8181818181819" y="685.2727272727273"/>
      <point x="603.0909090909091" y="652.9090909090909"/>
      <point x="538.1818181818181" y="599.3636363636364" type="curve"/>
    </contour>
  </outline>
</glyph>
<glyph name="dieresis" format="2">
  <advance width="1145.4545454545455"/>
  <unicode hex="00A8"/>
  <anchor x="572.7272727272727" y="1200.0" name="_top"/>
  <anchor x="572.7272727272727" y="1607.8181818181818" name="top"/>
  <outline>
    <contour>
      <point x="803.5454545454545" y="1239.090909090909" type="curve" smooth="yes"/>
      <point x="915.5454545454545" y="1239.090909090909"/>
      <point x="988.1818181818182" y="1306.2727272727273"/>
      <point x="988.1818181818182" y="1418.5454545454545" type="curve" smooth="yes"/>
      <point x="988.1818181818182" y="1530.8181818181818"/>
      <point x="915.5454545454545" y="1598.2727272727273"/>
      <point x="803.5454545454545" y="1598.2727272727273" type="curve" smooth="yes"/>
      <point x="691.5454545454545" y="1598.2727272727273"/>
      <point x="618.9090909090909" y="1530.8181818181818"/>
      <point x="618.9090909090909" y="1418.5454545454545" type="curve" smooth="yes"/>
      <point x="618.9090909090909" y="1306.2727272727273"/>
      <point x="691.5454545454545" y="1239.090909090909"/>
    </contour>
    <contour>
      <point x="341.9090909090909" y="1239.090909090909" type="curve" smooth="yes"/>
      <point x="453.9090909090909" y="1239.090909090909"/>
      <point x="526.5454545454545" y="1306.2727272727273"/>
      <point x="526.5454545454545" y="1418.5454545454545" type="curve" smooth="yes"/>
      <point x="526.5454545454545" y="1530.8181818181818"/>
      <point x="453.9090909090909" y="1598.2727272727273"/>
      <point x="341.9090909090909" y="1598.2727272727273" type="curve" smooth="yes"/>
      <point x="229.9090909090909" y="1598.2727272727273"/>
      <point x="157.27272727272728" y="1530.8181818181818"/>
      <point x="157.27272727272728" y="1418.5454545454545" type="curve" smooth="yes"/>
      <point x="157.27272727272728" y="1306.2727272727273"/>
      <point x="229.9090909090909" y="1239.090909090909"/>
    </contour>
  </outline>
</glyph>
<glyph name="copyright" format="2">
  <advance width="1618.3636363636363"/>
  <unicode hex="00A9"/>
  <outline>
    <contour>
      <point x="809.1818181818181" y="-22.0" type="curve" smooth="yes"/>
      <point x="1260.3636363636363" y="-22.0"/>
      <point x="1558.3636363636363" y="282.0"/>
      <point x="1558.3636363636363" y="740.0" type="curve" smooth="yes"/>
      <point x="1558.3636363636363" y="1198.0"/>
      <point x="1260.3636363636363" y="1502.0"/>
      <point x="809.1818181818181" y="1502.0" type="curve" smooth="yes"/>
      <point x="358.0" y="1502.0"/>
      <point x="60.0" y="1198.0"/>
      <point x="60.0" y="740.0" type="curve" smooth="yes"/>
      <point x="60.0" y="282.0"/>
      <point x="358.0" y="-22.0"/>
    </contour>
    <contour>
      <point x="874.2727272727273" y="324.0" type="curve" smooth="yes"/>
      <point x="955.7272727272727" y="324.0"/>
      <point x="1027.7272727272727" y="336.0"/>
      <point x="1080.1818181818182" y="355.6363636363636" type="curve"/>
      <point x="1080.1818181818182" y="580.5454545454545" type="line"/>
      <point x="1001.6363636363636" y="560.6363636363636"/>
      <point x="955.5454545454545" y="554.0909090909091"/>
      <point x="899.2727272727273" y="554.0909090909091" type="curve" smooth="yes"/>
      <point x="775.8181818181818" y="554.0909090909091"/>
      <point x="705.6363636363636" y="615.7272727272727"/>
      <point x="705.6363636363636" y="732.8181818181819" type="curve" smooth="yes"/>
      <point x="705.6363636363636" y="850.8181818181818"/>
      <point x="770.6363636363636" y="913.9090909090909"/>
      <point x="912.6363636363636" y="913.9090909090909" type="curve" smooth="yes"/>
      <point x="970.5454545454545" y="913.9090909090909"/>
      <point x="1019.9090909090909" y="907.3636363636364"/>
      <point x="1080.1818181818182" y="896.2727272727273" type="curve"/>
      <point x="1080.1818181818182" y="1121.1818181818182" type="line"/>
      <point x="1023.0909090909091" y="1136.0"/>
      <point x="961.3636363636364" y="1144.0"/>
      <point x="888.1818181818181" y="1144.0" type="curve" smooth="yes"/>
      <point x="610.3636363636364" y="1144.0"/>
      <point x="436.72727272727275" y="992.5454545454545"/>
      <point x="436.72727272727275" y="732.2727272727273" type="curve" smooth="yes"/>
      <point x="436.72727272727275" y="472.3636363636364"/>
      <point x="608.0" y="324.0"/>
    </contour>
    <contour>
      <point x="809.1818181818181" y="170.36363636363637" type="curve" smooth="yes"/>
      <point x="461.90909090909093" y="170.36363636363637"/>
      <point x="261.0" y="389.3636363636364"/>
      <point x="261.0" y="740.0" type="curve" smooth="yes"/>
      <point x="261.0" y="1090.6363636363637"/>
      <point x="461.90909090909093" y="1309.6363636363637"/>
      <point x="809.1818181818181" y="1309.6363636363637" type="curve" smooth="yes"/>
      <point x="1156.4545454545455" y="1309.6363636363637"/>
      <point x="1357.3636363636365" y="1090.6363636363637"/>
      <point x="1357.3636363636365" y="740.0" type="curve" smooth="yes"/>
      <point x="1357.3636363636365" y="389.3636363636364"/>
      <point x="1156.4545454545455" y="170.36363636363637"/>
    </contour>
  </outline>
</glyph>
<glyph name="ordfeminine" format="2">
  <advance width="821.3636363636364"/>
  <unicode hex="00AA"/>
  <outline>
    <contour>
      <point x="271.1818181818182" y="592.5454545454545" type="curve" smooth="yes"/>
      <point x="353.3636363636364" y="592.5454545454545"/>
      <point x="427.0" y="620.1818181818181"/>
      <point x="465.72727272727275" y="699.3636363636364" type="curve"/>
      <point x="480.3636363636364" y="699.3636363636364" type="line"/>
      <point x="503.6363636363636" y="610.0" type="line"/>
      <point x="761.7272727272727" y="610.0" type="line"/>
      <point x="761.7272727272727" y="1125.3636363636363" type="line" smooth="yes"/>
      <point x="761.7272727272727" y="1401.2727272727273"/>
      <point x="639.5454545454545" y="1500.6363636363637"/>
      <point x="362.27272727272725" y="1500.6363636363637" type="curve" smooth="yes"/>
      <point x="270.09090909090907" y="1500.6363636363637"/>
      <point x="167.0909090909091" y="1488.3636363636363"/>
      <point x="84.36363636363636" y="1467.8181818181818" type="curve"/>
      <point x="84.36363636363636" y="1222.4545454545455" type="line"/>
      <point x="151.72727272727272" y="1241.5454545454545"/>
      <point x="225.72727272727272" y="1252.090909090909"/>
      <point x="292.6363636363636" y="1252.090909090909" type="curve" smooth="yes"/>
      <point x="417.6363636363636" y="1252.090909090909"/>
      <point x="449.0" y="1219.6363636363635"/>
      <point x="449.0" y="1153.5454545454545" type="curve" smooth="yes"/>
      <point x="449.0" y="836.9090909090909" type="line"/>
      <point x="435.0909090909091" y="821.5454545454545"/>
      <point x="414.1818181818182" y="816.9090909090909"/>
      <point x="398.6363636363636" y="816.9090909090909" type="curve" smooth="yes"/>
      <point x="355.1818181818182" y="816.9090909090909"/>
      <point x="322.0" y="840.3636363636364"/>
      <point x="322.0" y="899.6363636363636" type="curve" smooth="yes"/>
      <point x="322.0" y="950.9090909090909"/>
      <point x="353.4545454545455" y="976.3636363636364"/>
      <point x="416.54545454545456" y="980.0" type="curve" smooth="yes"/>
      <point x="528.7272727272727" y="985.0" type="line"/>
      <point x="482.72727272727275" y="1148.6363636363637" type="line"/>
      <point x="375.09090909090907" y="1141.909090909091" type="line" smooth="yes"/>
      <point x="115.45454545454545" y="1128.8181818181818"/>
      <point x="15.636363636363633" y="1034.1818181818182"/>
      <point x="15.636363636363633" y="853.6363636363636" type="curve" smooth="yes"/>
      <point x="15.636363636363633" y="701.0"/>
      <point x="120.54545454545455" y="592.5454545454545"/>
    </contour>
  </outline>
</glyph>
<glyph name="guillemetleft" format="2">
  <advance width="1117.090909090909"/>
  <unicode hex="00AB"/>
  <outline>
    <contour>
      <point x="263.45454545454544" y="131.36363636363637" type="line"/>
      <point x="600.9090909090909" y="131.36363636363637" type="line"/>
      <point x="404.27272727272725" y="568.6363636363636" type="line"/>
      <point x="600.9090909090909" y="1005.9090909090909" type="line"/>
      <point x="263.45454545454544" y="1005.9090909090909" type="line"/>
      <point x="66.81818181818181" y="568.6363636363636" type="line"/>
    </contour>
    <contour>
      <point x="752.8181818181818" y="131.36363636363637" type="line"/>
      <point x="1090.2727272727273" y="131.36363636363637" type="line"/>
      <point x="893.6363636363636" y="568.6363636363636" type="line"/>
      <point x="1090.2727272727273" y="1005.9090909090909" type="line"/>
      <point x="752.8181818181818" y="1005.9090909090909" type="line"/>
      <point x="556.1818181818182" y="568.6363636363636" type="line"/>
    </contour>
  </outline>
</glyph>
<glyph name="logicalnot" format="2">
  <advance width="1240.0"/>
  <unicode hex="00AC"/>
  <outline>
    <contour>
      <point x="879.0909090909091" y="190.27272727272728" type="line"/>
      <point x="1157.8181818181818" y="190.27272727272728" type="line"/>
      <point x="1157.8181818181818" y="893.9090909090909" type="line"/>
      <point x="87.0" y="893.9090909090909" type="line"/>
      <point x="87.0" y="626.0909090909091" type="line"/>
      <point x="879.0909090909091" y="626.0909090909091" type="line"/>
    </contour>
  </outline>
</glyph>
<glyph name="registered" format="2">
  <advance width="1374.0"/>
  <unicode hex="00AE"/>
  <outline>
    <contour>
      <point x="687.0" y="268.0" type="curve" smooth="yes"/>
      <point x="1049.0" y="268.0"/>
      <point x="1297.0" y="518.0"/>
      <point x="1297.0" y="882.0" type="curve" smooth="yes"/>
      <point x="1297.0" y="1246.0"/>
      <point x="1049.0" y="1498.0"/>
      <point x="687.0" y="1498.0" type="curve" smooth="yes"/>
      <point x="325.0" y="1498.0"/>
      <point x="77.0" y="1246.0"/>
      <point x="77.0" y="882.0" type="curve" smooth="yes"/>
      <point x="77.0" y="518.0"/>
      <point x="325.0" y="268.0"/>
    </contour>
    <contour>
      <point x="802.8181818181818" y="600.0" type="line"/>
      <point x="970.3636363636364" y="600.0" type="line"/>
      <point x="815.0909090909091" y="825.4545454545455" type="line"/>
      <point x="665.2727272727273" y="799.4545454545455" type="line"/>
    </contour>
    <contour>
      <point x="687.0" y="411.72727272727275" type="curve" smooth="yes"/>
      <point x="410.8181818181818" y="411.72727272727275"/>
      <point x="231.36363636363637" y="596.6363636363636"/>
      <point x="231.36363636363637" y="882.0" type="curve" smooth="yes"/>
      <point x="231.36363636363637" y="1169.090909090909"/>
      <point x="410.8181818181818" y="1354.2727272727273"/>
      <point x="687.0" y="1354.2727272727273" type="curve" smooth="yes"/>
      <point x="963.1818181818182" y="1354.2727272727273"/>
      <point x="1142.6363636363635" y="1169.090909090909"/>
      <point x="1142.6363636363635" y="882.0" type="curve" smooth="yes"/>
      <point x="1142.6363636363635" y="596.6363636363636"/>
      <point x="963.1818181818182" y="411.72727272727275"/>
    </contour>
    <contour>
      <point x="466.9090909090909" y="600.0" type="line"/>
      <point x="619.2727272727273" y="600.0" type="line"/>
      <point x="624.4545454545455" y="791.4545454545455" type="line"/>
      <point x="678.1818181818181" y="791.4545454545455" type="line" smooth="yes"/>
      <point x="855.7272727272727" y="791.4545454545455"/>
      <point x="939.4545454545455" y="855.7272727272727"/>
      <point x="939.4545454545455" y="990.7272727272727" type="curve" smooth="yes"/>
      <point x="939.4545454545455" y="1125.7272727272727"/>
      <point x="853.7272727272727" y="1192.0"/>
      <point x="678.1818181818181" y="1192.0" type="curve" smooth="yes"/>
      <point x="466.9090909090909" y="1192.0" type="line"/>
    </contour>
    <contour>
      <point x="624.4545454545455" y="913.9090909090909" type="line"/>
      <point x="624.4545454545455" y="1069.5454545454545" type="line"/>
      <point x="702.2727272727273" y="1069.5454545454545" type="line" smooth="yes"/>
      <point x="759.0" y="1069.5454545454545"/>
      <point x="790.5454545454545" y="1043.3636363636363"/>
      <point x="790.5454545454545" y="990.7272727272727" type="curve" smooth="yes"/>
      <point x="790.5454545454545" y="938.0909090909091"/>
      <point x="761.0" y="913.9090909090909"/>
      <point x="702.2727272727273" y="913.9090909090909" type="curve" smooth="yes"/>
    </contour>
  </outline>
</glyph>
<glyph name="macron" format="2">
  <advance width="1145.4545454545455"/>
  <unicode hex="00AF"/>
  <anchor x="572.7272727272727" y="1200.0" name="_top"/>
  <anchor x="572.7272727272727" y="1607.8181818181818" name="top"/>
  <outline>
    <contour>
      <point x="231.1818181818182" y="1309.3636363636363" type="line"/>
      <point x="914.2727272727273" y="1309.3636363636363" type="line"/>
      <point x="914.2727272727273" y="1529.7272727272727" type="line"/>
      <point x="231.1818181818182" y="1529.7272727272727" type="line"/>
    </contour>
  </outline>
</glyph>
<glyph name="degree" format="2">
  <advance width="908.5454545454545"/>
  <unicode hex="00B0"/>
  <outline>
    <contour>
      <point x="454.27272727272725" y="757.0" type="curve" smooth="yes"/>
      <point x="671.6363636363636" y="757.0"/>
      <point x="831.5454545454545" y="913.7272727272727"/>
      <point x="831.5454545454545" y="1129.090909090909" type="curve" smooth="yes"/>
      <point x="831.5454545454545" y="1344.4545454545455"/>
      <point x="671.6363636363636" y="1499.4545454545455"/>
      <point x="454.27272727272725" y="1499.4545454545455" type="curve" smooth="yes"/>
      <point x="236.9090909090909" y="1499.4545454545455"/>
      <point x="77.0" y="1344.4545454545455"/>
      <point x="77.0" y="1129.090909090909" type="curve" smooth="yes"/>
      <point x="77.0" y="913.7272727272727"/>
      <point x="236.9090909090909" y="757.0"/>
    </contour>
    <contour>
      <point x="454.27272727272725" y="960.9090909090909" type="curve" smooth="yes"/>
      <point x="363.27272727272725" y="960.9090909090909"/>
      <point x="295.27272727272725" y="1024.6363636363637"/>
      <point x="295.27272727272725" y="1129.090909090909" type="curve" smooth="yes"/>
      <point x="295.27272727272725" y="1233.5454545454545"/>
      <point x="365.0" y="1295.5454545454545"/>
      <point x="454.27272727272725" y="1295.5454545454545" type="curve" smooth="yes"/>
      <point x="543.5454545454545" y="1295.5454545454545"/>
      <point x="613.2727272727273" y="1233.5454545454545"/>
      <point x="613.2727272727273" y="1129.090909090909" type="curve" smooth="yes"/>
      <point x="613.2727272727273" y="1024.6363636363637"/>
      <point x="545.2727272727273" y="960.9090909090909"/>
    </contour>
  </outline>
</glyph>
<glyph name="plusminus" format="2">
  <advance width="1033.2727272727273"/>
  <unicode hex="00B1"/>
  <outline>
    <contour>
      <point x="377.27272727272725" y="376.45454545454544" type="line"/>
      <point x="656.0" y="376.45454545454544" type="line"/>
      <point x="656.0" y="676.3636363636364" type="line"/>
      <point x="946.2727272727273" y="676.3636363636364" type="line"/>
      <point x="946.2727272727273" y="944.1818181818182" type="line"/>
      <point x="656.0" y="944.1818181818182" type="line"/>
      <point x="656.0" y="1244.090909090909" type="line"/>
      <point x="377.27272727272725" y="1244.090909090909" type="line"/>
      <point x="377.27272727272725" y="944.1818181818182" type="line"/>
      <point x="87.0" y="944.1818181818182" type="line"/>
      <point x="87.0" y="676.3636363636364" type="line"/>
      <point x="377.27272727272725" y="676.3636363636364" type="line"/>
    </contour>
    <contour>
      <point x="87.0" y="1.7272727272727273" type="line"/>
      <point x="946.2727272727273" y="1.7272727272727273" type="line"/>
      <point x="946.2727272727273" y="269.54545454545456" type="line"/>
      <point x="87.0" y="269.54545454545456" type="line"/>
    </contour>
  </outline>
</glyph>
<glyph name="acute" format="2">
  <advance width="1145.4545454545455"/>
  <unicode hex="00B4"/>
  <anchor x="572.7272727272727" y="1200.0" name="_top"/>
  <anchor x="572.7272727272727" y="1642.3636363636363" name="top"/>
  <outline>
    <contour>
      <point x="423.8181818181818" y="1226.0" type="line"/>
      <point x="721.6363636363636" y="1226.0" type="line"/>
      <point x="968.5454545454545" y="1616.0" type="line"/>
      <point x="623.6363636363636" y="1616.0" type="line"/>
    </contour>
  </outline>
</glyph>
<glyph name="paragraph" format="2">
  <advance width="1195.6363636363635"/>
  <unicode hex="00B6"/>
  <outline>
    <contour>
      <point x="503.0909090909091" y="0.0" type="line"/>
      <point x="743.8181818181819" y="0.0" type="line"/>
      <point x="743.8181818181819" y="1480.0" type="line"/>
      <point x="677.8181818181819" y="1491.4545454545455"/>
      <point x="586.8181818181819" y="1499.1818181818182"/>
      <point x="503.6363636363636" y="1499.1818181818182" type="curve" smooth="yes"/>
      <point x="185.72727272727272" y="1499.1818181818182"/>
      <point x="52.27272727272727" y="1331.3636363636363"/>
      <point x="52.27272727272727" y="953.9090909090909" type="curve" smooth="yes"/>
      <point x="52.27272727272727" y="597.9090909090909"/>
      <point x="185.72727272727272" y="410.9090909090909"/>
      <point x="435.45454545454544" y="410.9090909090909" type="curve" smooth="yes"/>
      <point x="461.9090909090909" y="410.9090909090909"/>
      <point x="478.3636363636364" y="411.1818181818182"/>
      <point x="503.0909090909091" y="411.72727272727275" type="curve"/>
    </contour>
    <contour>
      <point x="856.5454545454545" y="0.0" type="line"/>
      <point x="1097.2727272727273" y="0.0" type="line"/>
      <point x="1097.2727272727273" y="1480.0" type="line"/>
      <point x="856.5454545454545" y="1480.0" type="line"/>
    </contour>
  </outline>
</glyph>
<glyph name="ordmasculine" format="2">
  <advance width="869.3636363636364"/>
  <unicode hex="00BA"/>
  <outline>
    <contour>
      <point x="435.54545454545456" y="592.5454545454545" type="curve" smooth="yes"/>
      <point x="697.8181818181818" y="592.5454545454545"/>
      <point x="842.8181818181818" y="754.5454545454545"/>
      <point x="842.8181818181818" y="1044.2727272727273" type="curve" smooth="yes"/>
      <point x="842.8181818181818" y="1334.0"/>
      <point x="697.8181818181818" y="1500.6363636363637"/>
      <point x="435.54545454545456" y="1500.6363636363637" type="curve" smooth="yes"/>
      <point x="173.27272727272728" y="1500.6363636363637"/>
      <point x="26.545454545454547" y="1342.6363636363637"/>
      <point x="26.545454545454547" y="1044.2727272727273" type="curve" smooth="yes"/>
      <point x="26.545454545454547" y="745.9090909090909"/>
      <point x="173.27272727272728" y="592.5454545454545"/>
    </contour>
    <contour>
      <point x="435.54545454545456" y="820.3636363636364" type="curve" smooth="yes"/>
      <point x="384.0" y="820.3636363636364"/>
      <point x="345.0" y="849.6363636363636"/>
      <point x="345.0" y="1044.2727272727273" type="curve" smooth="yes"/>
      <point x="345.0" y="1240.6363636363637"/>
      <point x="384.0" y="1272.8181818181818"/>
      <point x="435.54545454545456" y="1272.8181818181818" type="curve" smooth="yes"/>
      <point x="487.0909090909091" y="1272.8181818181818"/>
      <point x="524.3636363636364" y="1240.6363636363637"/>
      <point x="524.3636363636364" y="1044.2727272727273" type="curve" smooth="yes"/>
      <point x="524.3636363636364" y="849.6363636363636"/>
      <point x="487.0909090909091" y="820.3636363636364"/>
    </contour>
  </outline>
</glyph>
<glyph name="guillemetright" format="2">
  <advance width="1117.090909090909"/>
  <unicode hex="00BB"/>
  <outline>
    <contour>
      <point x="26.81818181818182" y="131.36363636363637" type="line"/>
      <point x="364.27272727272725" y="131.36363636363637" type="line"/>
      <point x="560.9090909090909" y="568.6363636363636" type="line"/>
      <point x="364.27272727272725" y="1005.9090909090909" type="line"/>
      <point x="26.81818181818182" y="1005.9090909090909" type="line"/>
      <point x="223.45454545454544" y="568.6363636363636" type="line"/>
    </contour>
    <contour>
      <point x="516.1818181818182" y="131.36363636363637" type="line"/>
      <point x="853.6363636363636" y="131.36363636363637" type="line"/>
      <point x="1050.2727272727273" y="568.6363636363636" type="line"/>
      <point x="853.6363636363636" y="1005.9090909090909" type="line"/>
      <point x="516.1818181818182" y="1005.9090909090909" type="line"/>
      <point x="712.8181818181818" y="568.6363636363636" type="line"/>
    </contour>
  </outline>
</glyph>
<glyph name="onequarter" format="2">
  <advance width="1925.7272727272727"/>
  <unicode hex="00BC"/>
  <outline>
    <contour>
      <point x="297.9090909090909" y="636.0" type="line"/>
      <point x="567.4545454545455" y="636.0" type="line"/>
      <point x="567.4545454545455" y="1620.0" type="line"/>
      <point x="401.6363636363636" y="1620.0" type="line"/>
      <point x="137.1818181818182" y="1454.7272727272727" type="line"/>
      <point x="137.1818181818182" y="1212.0" type="line"/>
      <point x="401.6363636363636" y="1377.2727272727273" type="line"/>
      <point x="297.9090909090909" y="1457.8181818181818" type="line"/>
    </contour>
    <contour>
      <point x="126.45454545454545" y="616.0" type="line"/>
      <point x="730.6363636363636" y="616.0" type="line"/>
      <point x="730.6363636363636" y="845.5454545454545" type="line"/>
      <point x="126.45454545454545" y="845.5454545454545" type="line"/>
    </contour>
    <contour>
      <point x="457.72727272727275" y="-136.0" type="line"/>
      <point x="739.6363636363636" y="-136.0" type="line"/>
      <point x="1468.0" y="1616.0" type="line"/>
      <point x="1186.090909090909" y="1616.0" type="line"/>
    </contour>
    <contour>
      <point x="1150.1818181818182" y="57.27272727272727" type="line"/>
      <point x="1902.6363636363635" y="57.27272727272727" type="line"/>
      <point x="1902.6363636363635" y="258.9090909090909" type="line"/>
      <point x="1378.6363636363635" y="258.9090909090909" type="line"/>
      <point x="1409.909090909091" y="206.0909090909091" type="line"/>
      <point x="1684.8181818181818" y="864.0" type="line"/>
      <point x="1432.0" y="864.0" type="line"/>
      <point x="1150.1818181818182" y="206.0909090909091" type="line"/>
    </contour>
    <contour>
      <point x="1563.5454545454545" y="-136.0" type="line"/>
      <point x="1796.5454545454545" y="-136.0" type="line"/>
      <point x="1796.5454545454545" y="526.0" type="line"/>
      <point x="1623.909090909091" y="526.0" type="line"/>
      <point x="1563.5454545454545" y="258.9090909090909" type="line"/>
    </contour>
  </outline>
</glyph>
<glyph name="onehalf" format="2">
  <advance width="1925.7272727272727"/>
  <unicode hex="00BD"/>
  <outline>
    <contour>
      <point x="297.9090909090909" y="636.0" type="line"/>
      <point x="567.4545454545455" y="636.0" type="line"/>
      <point x="567.4545454545455" y="1620.0" type="line"/>
      <point x="401.6363636363636" y="1620.0" type="line"/>
      <point x="137.1818181818182" y="1454.7272727272727" type="line"/>
      <point x="137.1818181818182" y="1212.0" type="line"/>
      <point x="401.6363636363636" y="1377.2727272727273" type="line"/>
      <point x="297.9090909090909" y="1457.8181818181818" type="line"/>
    </contour>
    <contour>
      <point x="126.45454545454545" y="616.0" type="line"/>
      <point x="730.6363636363636" y="616.0" type="line"/>
      <point x="730.6363636363636" y="845.5454545454545" type="line"/>
      <point x="126.45454545454545" y="845.5454545454545" type="line"/>
    </contour>
    <contour>
      <point x="457.72727272727275" y="-136.0" type="line"/>
      <point x="739.6363636363636" y="-136.0" type="line"/>
      <point x="1468.0" y="1616.0" type="line"/>
      <point x="1186.090909090909" y="1616.0" type="line"/>
    </contour>
    <contour>
      <point x="1209.909090909091" y="-136.0" type="line"/>
      <point x="1848.2727272727273" y="-136.0" type="line"/>
      <point x="1848.2727272727273" y="93.54545454545456" type="line"/>
      <point x="1508.0" y="93.54545454545456" type="line"/>
      <point x="1518.5454545454545" y="30.36363636363636" type="line"/>
      <point x="1682.8181818181818" y="256.09090909090907" type="line" smooth="yes"/>
      <point x="1773.6363636363635" y="378.45454545454544"/>
      <point x="1808.1818181818182" y="475.9090909090909"/>
      <point x="1808.4545454545455" y="572.4545454545455" type="curve" smooth="yes"/>
      <point x="1808.7272727272727" y="791.9090909090909"/>
      <point x="1663.0" y="877.7272727272727"/>
      <point x="1427.909090909091" y="877.7272727272727" type="curve" smooth="yes"/>
      <point x="1349.0" y="877.7272727272727"/>
      <point x="1254.8181818181818" y="864.0"/>
      <point x="1196.1818181818182" y="843.4545454545455" type="curve"/>
      <point x="1196.1818181818182" y="625.7272727272727" type="line"/>
      <point x="1250.7272727272727" y="646.5454545454545"/>
      <point x="1322.5454545454545" y="658.5454545454545"/>
      <point x="1382.4545454545455" y="658.5454545454545" type="curve" smooth="yes"/>
      <point x="1498.909090909091" y="658.5454545454545"/>
      <point x="1540.3636363636365" y="620.6363636363636"/>
      <point x="1540.3636363636365" y="549.7272727272727" type="curve" smooth="yes"/>
      <point x="1540.3636363636365" y="490.8181818181818"/>
      <point x="1509.2727272727273" y="422.09090909090907"/>
      <point x="1435.6363636363635" y="321.1818181818182" type="curve" smooth="yes"/>
      <point x="1209.909090909091" y="11.090909090909093" type="line"/>
    </contour>
  </outline>
</glyph>
<glyph name="questiondown" format="2">
  <advance width="891.2727272727273"/>
  <unicode hex="00BF"/>
  <outline>
    <contour>
      <point x="612.9090909090909" y="596.9090909090909" type="line"/>
      <point x="402.54545454545456" y="596.9090909090909" type="line"/>
      <point x="375.27272727272725" y="405.0" type="line"/>
      <point x="161.0" y="336.8181818181818"/>
      <point x="34.09090909090909" y="199.0"/>
      <point x="34.09090909090909" y="-8.545454545454547" type="curve" smooth="yes"/>
      <point x="34.09090909090909" y="-259.90909090909093"/>
      <point x="208.0909090909091" y="-400.0"/>
      <point x="543.2727272727273" y="-400.0" type="curve" smooth="yes"/>
      <point x="656.5454545454545" y="-400.0"/>
      <point x="791.9090909090909" y="-380.0"/>
      <point x="877.1818181818182" y="-349.45454545454544" type="curve"/>
      <point x="877.1818181818182" y="-77.63636363636363" type="line"/>
      <point x="794.6363636363636" y="-108.72727272727272"/>
      <point x="688.1818181818182" y="-126.72727272727272"/>
      <point x="591.6363636363636" y="-126.72727272727272" type="curve" smooth="yes"/>
      <point x="433.1818181818182" y="-126.72727272727272"/>
      <point x="366.6363636363636" y="-75.63636363636363"/>
      <point x="366.6363636363636" y="30.909090909090907" type="curve" smooth="yes"/>
      <point x="366.6363636363636" y="132.63636363636363"/>
      <point x="430.1818181818182" y="195.36363636363637"/>
      <point x="671.5454545454545" y="247.27272727272725" type="curve"/>
    </contour>
    <contour>
      <point x="507.72727272727275" y="1115.909090909091" type="curve" smooth="yes"/>
      <point x="378.1818181818182" y="1115.909090909091"/>
      <point x="286.8181818181818" y="1029.4545454545455"/>
      <point x="286.8181818181818" y="903.6363636363636" type="curve" smooth="yes"/>
      <point x="286.8181818181818" y="777.5454545454545"/>
      <point x="375.0" y="691.090909090909"/>
      <point x="507.72727272727275" y="691.090909090909" type="curve" smooth="yes"/>
      <point x="640.4545454545455" y="691.090909090909"/>
      <point x="728.6363636363636" y="774.0909090909091"/>
      <point x="728.6363636363636" y="903.6363636363636" type="curve" smooth="yes"/>
      <point x="728.6363636363636" y="1032.909090909091"/>
      <point x="637.0" y="1115.909090909091"/>
    </contour>
  </outline>
</glyph>
<glyph name="Atilde" format="2">
  <advance width="1276.8181818181818"/>
  <unicode hex="00C3"/>
  <anchor x="638.5454545454545" y="1520.0" name="_top"/>
  <anchor x="638.5454545454545" y="0.0" name="bottom"/>
  <anchor x="1280.1818181818182" y="0.0" name="ogonek"/>
  <anchor x="638.5454545454545" y="1520.0" name="top"/>
  <outline>
    <contour>
      <point x="-3.3636363636363633" y="0.0" type="line"/>
      <point x="334.6363636363636" y="0.0" type="line"/>
      <point x="652.0" y="1324.2727272727273" type="line"/>
      <point x="617.6363636363636" y="1324.2727272727273" type="line"/>
      <point x="938.4545454545455" y="0.0" type="line"/>
      <point x="1280.1818181818182" y="0.0" type="line"/>
      <point x="898.1818181818182" y="1480.0" type="line"/>
      <point x="378.6363636363636" y="1480.0" type="line"/>
    </contour>
    <contour>
      <point x="246.0" y="369.0909090909091" type="line"/>
      <point x="1029.090909090909" y="369.0909090909091" type="line"/>
      <point x="964.1818181818182" y="663.0909090909091" type="line"/>
      <point x="310.9090909090909" y="663.0909090909091" type="line"/>
    </contour>
    <contour>
      <point x="802.8181818181818" y="1601.0" type="curve" smooth="yes"/>
      <point x="890.1818181818182" y="1601.0"/>
      <point x="948.2727272727273" y="1623.2727272727273"/>
      <point x="999.0" y="1675.090909090909" type="curve"/>
      <point x="999.0" y="1886.1818181818182" type="line"/>
      <point x="940.2727272727273" y="1836.4545454545455"/>
      <point x="886.4545454545455" y="1810.7272727272727"/>
      <point x="806.2727272727273" y="1810.7272727272727" type="curve" smooth="yes"/>
      <point x="696.6363636363636" y="1810.7272727272727"/>
      <point x="607.0909090909091" y="1892.1818181818182"/>
      <point x="474.27272727272725" y="1892.1818181818182" type="curve" smooth="yes"/>
      <point x="386.90909090909093" y="1892.1818181818182"/>
      <point x="328.8181818181818" y="1868.1818181818182"/>
      <point x="278.09090909090907" y="1816.3636363636363" type="curve"/>
      <point x="278.09090909090907" y="1605.2727272727273" type="line"/>
      <point x="336.8181818181818" y="1655.0"/>
      <point x="390.6363636363636" y="1680.7272727272727"/>
      <point x="470.8181818181818" y="1680.7272727272727" type="curve" smooth="yes"/>
      <point x="580.4545454545455" y="1680.7272727272727"/>
      <point x="670.0" y="1601.0"/>
    </contour>
  </outline>
</glyph>
<glyph name="Adieresis" format="2">
  <advance width="1276.8181818181818"/>
  <unicode hex="00C4"/>
  <anchor x="638.5454545454545" y="1520.0" name="_top"/>
  <anchor x="638.5454545454545" y="0.0" name="bottom"/>
  <anchor x="1280.1818181818182" y="0.0" name="ogonek"/>
  <anchor x="638.5454545454545" y="1520.0" name="top"/>
  <outline>
    <contour>
      <point x="-3.3636363636363633" y="0.0" type="line"/>
      <point x="334.6363636363636" y="0.0" type="line"/>
      <point x="652.0" y="1324.2727272727273" type="line"/>
      <point x="617.6363636363636" y="1324.2727272727273" type="line"/>
      <point x="938.4545454545455" y="0.0" type="line"/>
      <point x="1280.1818181818182" y="0.0" type="line"/>
      <point x="898.1818181818182" y="1480.0" type="line"/>
      <point x="378.6363636363636" y="1480.0" type="line"/>
    </contour>
    <contour>
      <point x="246.0" y="369.0909090909091" type="line"/>
      <point x="1029.090909090909" y="369.0909090909091" type="line"/>
      <point x="964.1818181818182" y="663.0909090909091" type="line"/>
      <point x="310.9090909090909" y="663.0909090909091" type="line"/>
    </contour>
    <contour>
      <point x="879.0" y="1586.3636363636363" type="curve" smooth="yes"/>
      <point x="997.9090909090909" y="1586.3636363636363"/>
      <point x="1067.090909090909" y="1644.909090909091"/>
      <point x="1067.090909090909" y="1750.2727272727273" type="curve" smooth="yes"/>
      <point x="1067.090909090909" y="1855.6363636363637"/>
      <point x="997.9090909090909" y="1914.4545454545455"/>
      <point x="879.0" y="1914.4545454545455" type="curve" smooth="yes"/>
      <point x="760.0909090909091" y="1914.4545454545455"/>
      <point x="690.9090909090909" y="1855.6363636363637"/>
      <point x="690.9090909090909" y="1750.2727272727273" type="curve" smooth="yes"/>
      <point x="690.9090909090909" y="1644.909090909091"/>
      <point x="760.0909090909091" y="1586.3636363636363"/>
    </contour>
    <contour>
      <point x="398.09090909090907" y="1586.3636363636363" type="curve" smooth="yes"/>
      <point x="517.0" y="1586.3636363636363"/>
      <point x="586.1818181818182" y="1644.909090909091"/>
      <point x="586.1818181818182" y="1750.2727272727273" type="curve" smooth="yes"/>
      <point x="586.1818181818182" y="1855.6363636363637"/>
      <point x="517.0" y="1914.4545454545455"/>
      <point x="398.09090909090907" y="1914.4545454545455" type="curve" smooth="yes"/>
      <point x="279.1818181818182" y="1914.4545454545455"/>
      <point x="210.0" y="1855.6363636363637"/>
      <point x="210.0" y="1750.2727272727273" type="curve" smooth="yes"/>
      <point x="210.0" y="1644.909090909091"/>
      <point x="279.1818181818182" y="1586.3636363636363"/>
    </contour>
  </outline>
</glyph>
<glyph name="AE" format="2">
  <advance width="1801.6363636363635"/>
  <unicode hex="00C6"/>
  <anchor x="940.0909090909091" y="0.0" name="bottom"/>
  <anchor x="931.6363636363636" y="1520.0" name="top"/>
  <outline>
    <contour>
      <point x="-3.3636363636363633" y="0.0" type="line"/>
      <point x="339.8181818181818" y="0.0" type="line"/>
      <point x="630.0909090909091" y="1182.5454545454545" type="line"/>
      <point x="944.8181818181818" y="1182.5454545454545" type="line"/>
      <point x="944.8181818181818" y="1480.0" type="line"/>
      <point x="380.27272727272725" y="1480.0" type="line"/>
    </contour>
    <contour>
      <point x="246.27272727272728" y="367.3636363636364" type="line"/>
      <point x="939.7272727272727" y="367.3636363636364" type="line"/>
      <point x="939.7272727272727" y="664.8181818181818" type="line"/>
      <point x="311.1818181818182" y="664.8181818181818" type="line"/>
    </contour>
    <contour>
      <point x="880.1818181818181" y="0.0" type="line"/>
      <point x="1746.909090909091" y="0.0" type="line"/>
      <point x="1746.909090909091" y="297.4545454545455" type="line"/>
      <point x="1194.909090909091" y="297.4545454545455" type="line"/>
      <point x="1126.2727272727273" y="1182.5454545454545" type="line"/>
      <point x="1736.909090909091" y="1182.5454545454545" type="line"/>
      <point x="1736.909090909091" y="1480.0" type="line"/>
      <point x="778.1818181818181" y="1480.0" type="line"/>
    </contour>
    <contour>
      <point x="1045.0" y="607.0909090909091" type="line"/>
      <point x="1634.8181818181818" y="607.0909090909091" type="line"/>
      <point x="1634.8181818181818" y="904.5454545454545" type="line"/>
      <point x="1045.0" y="904.5454545454545" type="line"/>
    </contour>
  </outline>
</glyph>
<glyph name="Ccedilla" format="2">
  <advance width="1078.5454545454545"/>
  <unicode hex="00C7"/>
  <anchor x="675.7272727272727" y="0.0" name="_bottom"/>
  <anchor x="675.7272727272727" y="0.0" name="bottom"/>
  <anchor x="674.3636363636364" y="1520.0" name="top"/>
  <outline>
    <contour>
      <point x="751.4545454545455" y="-19.727272727272727" type="curve" smooth="yes"/>
      <point x="855.7272727272727" y="-19.727272727272727"/>
      <point x="970.4545454545455" y="-1.1818181818181817"/>
      <point x="1046.7272727272727" y="28.545454545454547" type="curve"/>
      <point x="1046.7272727272727" y="321.0909090909091" type="line"/>
      <point x="955.0909090909091" y="292.0"/>
      <point x="871.3636363636364" y="274.27272727272725"/>
      <point x="801.2727272727273" y="274.27272727272725" type="curve" smooth="yes"/>
      <point x="546.3636363636364" y="274.27272727272725"/>
      <point x="423.9090909090909" y="381.3636363636364"/>
      <point x="423.9090909090909" y="740.2727272727273" type="curve" smooth="yes"/>
      <point x="423.9090909090909" y="1088.6363636363635"/>
      <point x="552.1818181818182" y="1205.7272727272727"/>
      <point x="802.3636363636364" y="1205.7272727272727" type="curve" smooth="yes"/>
      <point x="887.1818181818182" y="1205.7272727272727"/>
      <point x="967.4545454545455" y="1194.2727272727273"/>
      <point x="1046.7272727272727" y="1175.8181818181818" type="curve"/>
      <point x="1046.7272727272727" y="1468.3636363636363" type="line"/>
      <point x="962.4545454545455" y="1489.1818181818182"/>
      <point x="867.0" y="1499.7272727272727"/>
      <point x="772.3636363636364" y="1499.7272727272727" type="curve" smooth="yes"/>
      <point x="325.90909090909093" y="1499.7272727272727"/>
      <point x="60.0" y="1260.8181818181818"/>
      <point x="60.0" y="736.2727272727273" type="curve" smooth="yes"/>
      <point x="60.0" y="193.36363636363637"/>
      <point x="316.3636363636364" y="-19.727272727272727"/>
    </contour>
    <contour>
      <point x="632.4545454545455" y="-451.8181818181818" type="curve" smooth="yes"/>
      <point x="832.9090909090909" y="-451.8181818181818"/>
      <point x="912.0909090909091" y="-377.6363636363636"/>
      <point x="912.0909090909091" y="-261.1818181818182" type="curve" smooth="yes"/>
      <point x="912.0909090909091" y="-141.27272727272728"/>
      <point x="819.0909090909091" y="-77.45454545454545"/>
      <point x="658.3636363636364" y="-77.45454545454545" type="curve"/>
      <point x="736.5454545454545" y="-124.72727272727272" type="line"/>
      <point x="736.5454545454545" y="20.0" type="line"/>
      <point x="568.2727272727273" y="20.0" type="line"/>
      <point x="568.2727272727273" y="-176.0909090909091" type="line"/>
      <point x="609.7272727272727" y="-176.0909090909091" type="line" smooth="yes"/>
      <point x="685.4545454545455" y="-176.0909090909091"/>
      <point x="726.5454545454545" y="-198.9090909090909"/>
      <point x="726.5454545454545" y="-247.36363636363637" type="curve" smooth="yes"/>
      <point x="726.5454545454545" y="-297.54545454545456"/>
      <point x="688.9090909090909" y="-315.1818181818182"/>
      <point x="613.4545454545455" y="-315.1818181818182" type="curve" smooth="yes"/>
      <point x="566.6363636363636" y="-315.1818181818182"/>
      <point x="499.3636363636364" y="-306.90909090909093"/>
      <point x="444.90909090909093" y="-287.0" type="curve"/>
      <point x="444.90909090909093" y="-424.1818181818182" type="line"/>
      <point x="497.1818181818182" y="-441.54545454545456"/>
      <point x="560.9090909090909" y="-451.8181818181818"/>
    </contour>
  </outline>
</glyph>
<glyph name="Eacute" format="2">
  <advance width="1103.1818181818182"/>
  <unicode hex="00C9"/>
  <anchor x="590.5454545454545" y="1520.0" name="_top"/>
  <anchor x="590.5454545454545" y="0.0" name="bottom"/>
  <anchor x="968.4545454545455" y="0.0" name="ogonek"/>
  <anchor x="590.5454545454545" y="1520.0" name="top"/>
  <anchor x="36.0" y="1480.0" name="topleft"/>
  <outline>
    <contour>
      <point x="98.36363636363636" y="0.0" type="line"/>
      <point x="1048.4545454545455" y="0.0" type="line"/>
      <point x="1048.4545454545455" y="297.4545454545455" type="line"/>
      <point x="441.0" y="297.4545454545455" type="line"/>
      <point x="441.0" y="1182.5454545454545" type="line"/>
      <point x="1038.4545454545455" y="1182.5454545454545" type="line"/>
      <point x="1038.4545454545455" y="1480.0" type="line"/>
      <point x="98.36363636363636" y="1480.0" type="line"/>
    </contour>
    <contour>
      <point x="346.6363636363636" y="607.0909090909091" type="line"/>
      <point x="936.3636363636364" y="607.0909090909091" type="line"/>
      <point x="936.3636363636364" y="904.5454545454545" type="line"/>
      <point x="346.6363636363636" y="904.5454545454545" type="line"/>
    </contour>
    <contour>
      <point x="438.1818181818182" y="1590.090909090909" type="line"/>
      <point x="742.9090909090909" y="1590.090909090909" type="line"/>
      <point x="950.8181818181818" y="1900.090909090909" type="line"/>
      <point x="595.5454545454545" y="1900.090909090909" type="line"/>
    </contour>
  </outline>
</glyph>
<glyph name="Edieresis" format="2">
  <advance width="1103.1818181818182"/>
  <unicode hex="00CB"/>
  <anchor x="590.5454545454545" y="1520.0" name="_top"/>
  <anchor x="590.5454545454545" y="0.0" name="bottom"/>
  <anchor x="968.4545454545455" y="0.0" name="ogonek"/>
  <anchor x="590.5454545454545" y="1520.0" name="top"/>
  <anchor x="36.0" y="1480.0" name="topleft"/>
  <outline>
    <contour>
      <point x="98.36363636363636" y="0.0" type="line"/>
      <point x="1048.4545454545455" y="0.0" type="line"/>
      <point x="1048.4545454545455" y="297.4545454545455" type="line"/>
      <point x="441.0" y="297.4545454545455" type="line"/>
      <point x="441.0" y="1182.5454545454545" type="line"/>
      <point x="1038.4545454545455" y="1182.5454545454545" type="line"/>
      <point x="1038.4545454545455" y="1480.0" type="line"/>
      <point x="98.36363636363636" y="1480.0" type="line"/>
    </contour>
    <contour>
      <point x="346.6363636363636" y="607.0909090909091" type="line"/>
      <point x="936.3636363636364" y="607.0909090909091" type="line"/>
      <point x="936.3636363636364" y="904.5454545454545" type="line"/>
      <point x="346.6363636363636" y="904.5454545454545" type="line"/>
    </contour>
    <contour>
      <point x="831.0" y="1586.3636363636363" type="curve" smooth="yes"/>
      <point x="949.9090909090909" y="1586.3636363636363"/>
      <point x="1019.0909090909091" y="1644.909090909091"/>
      <point x="1019.0909090909091" y="1750.2727272727273" type="curve" smooth="yes"/>
      <point x="1019.0909090909091" y="1855.6363636363637"/>
      <point x="949.9090909090909" y="1914.4545454545455"/>
      <point x="831.0" y="1914.4545454545455" type="curve" smooth="yes"/>
      <point x="712.0909090909091" y="1914.4545454545455"/>
      <point x="642.9090909090909" y="1855.6363636363637"/>
      <point x="642.9090909090909" y="1750.2727272727273" type="curve" smooth="yes"/>
      <point x="642.9090909090909" y="1644.909090909091"/>
      <point x="712.0909090909091" y="1586.3636363636363"/>
    </contour>
    <contour>
      <point x="350.09090909090907" y="1586.3636363636363" type="curve" smooth="yes"/>
      <point x="469.0" y="1586.3636363636363"/>
      <point x="538.1818181818182" y="1644.909090909091"/>
      <point x="538.1818181818182" y="1750.2727272727273" type="curve" smooth="yes"/>
      <point x="538.1818181818182" y="1855.6363636363637"/>
      <point x="469.0" y="1914.4545454545455"/>
      <point x="350.09090909090907" y="1914.4545454545455" type="curve" smooth="yes"/>
      <point x="231.1818181818182" y="1914.4545454545455"/>
      <point x="162.0" y="1855.6363636363637"/>
      <point x="162.0" y="1750.2727272727273" type="curve" smooth="yes"/>
      <point x="162.0" y="1644.909090909091"/>
      <point x="231.1818181818182" y="1586.3636363636363"/>
    </contour>
  </outline>
</glyph>
<glyph name="Iacute" format="2">
  <advance width="544.5454545454545"/>
  <unicode hex="00CD"/>
  <anchor x="272.27272727272725" y="1520.0" name="_top"/>
  <anchor x="272.27272727272725" y="0.0" name="bottom"/>
  <anchor x="446.1818181818182" y="0.0" name="ogonek"/>
  <anchor x="272.27272727272725" y="1520.0" name="top"/>
  <outline>
    <contour>
      <point x="98.36363636363636" y="0.0" type="line"/>
      <point x="446.1818181818182" y="0.0" type="line"/>
      <point x="446.1818181818182" y="1480.0" type="line"/>
      <point x="98.36363636363636" y="1480.0" type="line"/>
    </contour>
    <contour>
      <point x="119.9090909090909" y="1590.090909090909" type="line"/>
      <point x="424.6363636363636" y="1590.090909090909" type="line"/>
      <point x="632.5454545454545" y="1900.090909090909" type="line"/>
      <point x="277.27272727272725" y="1900.090909090909" type="line"/>
    </contour>
  </outline>
</glyph>
<glyph name="Icircumflex" format="2">
  <advance width="544.5454545454545"/>
  <unicode hex="00CE"/>
  <anchor x="272.27272727272725" y="1520.0" name="_top"/>
  <anchor x="272.27272727272725" y="0.0" name="bottom"/>
  <anchor x="446.1818181818182" y="0.0" name="ogonek"/>
  <anchor x="272.27272727272725" y="1520.0" name="top"/>
  <outline>
    <contour>
      <point x="98.36363636363636" y="0.0" type="line"/>
      <point x="446.1818181818182" y="0.0" type="line"/>
      <point x="446.1818181818182" y="1480.0" type="line"/>
      <point x="98.36363636363636" y="1480.0" type="line"/>
    </contour>
    <contour>
      <point x="-65.36363636363636" y="1590.090909090909" type="line"/>
      <point x="165.27272727272728" y="1590.090909090909" type="line"/>
      <point x="292.3636363636364" y="1811.3636363636363" type="line"/>
      <point x="252.1818181818182" y="1811.3636363636363" type="line"/>
      <point x="379.27272727272725" y="1590.090909090909" type="line"/>
      <point x="609.9090909090909" y="1590.090909090909" type="line"/>
      <point x="417.3636363636364" y="1900.090909090909" type="line"/>
      <point x="127.18181818181819" y="1900.090909090909" type="line"/>
    </contour>
  </outline>
</glyph>
<glyph name="Idieresis" format="2">
  <advance width="544.5454545454545"/>
  <unicode hex="00CF"/>
  <anchor x="272.27272727272725" y="1520.0" name="_top"/>
  <anchor x="272.27272727272725" y="0.0" name="bottom"/>
  <anchor x="446.1818181818182" y="0.0" name="ogonek"/>
  <anchor x="272.27272727272725" y="1520.0" name="top"/>
  <outline>
    <contour>
      <point x="98.36363636363636" y="0.0" type="line"/>
      <point x="446.1818181818182" y="0.0" type="line"/>
      <point x="446.1818181818182" y="1480.0" type="line"/>
      <point x="98.36363636363636" y="1480.0" type="line"/>
    </contour>
    <contour>
      <point x="512.7272727272727" y="1586.3636363636363" type="curve" smooth="yes"/>
      <point x="631.6363636363636" y="1586.3636363636363"/>
      <point x="700.8181818181818" y="1644.909090909091"/>
      <point x="700.8181818181818" y="1750.2727272727273" type="curve" smooth="yes"/>
      <point x="700.8181818181818" y="1855.6363636363637"/>
      <point x="631.6363636363636" y="1914.4545454545455"/>
      <point x="512.7272727272727" y="1914.4545454545455" type="curve" smooth="yes"/>
      <point x="393.8181818181818" y="1914.4545454545455"/>
      <point x="324.6363636363636" y="1855.6363636363637"/>
      <point x="324.6363636363636" y="1750.2727272727273" type="curve" smooth="yes"/>
      <point x="324.6363636363636" y="1644.909090909091"/>
      <point x="393.8181818181818" y="1586.3636363636363"/>
    </contour>
    <contour>
      <point x="31.81818181818182" y="1586.3636363636363" type="curve" smooth="yes"/>
      <point x="150.72727272727275" y="1586.3636363636363"/>
      <point x="219.9090909090909" y="1644.909090909091"/>
      <point x="219.9090909090909" y="1750.2727272727273" type="curve" smooth="yes"/>
      <point x="219.9090909090909" y="1855.6363636363637"/>
      <point x="150.72727272727275" y="1914.4545454545455"/>
      <point x="31.81818181818182" y="1914.4545454545455" type="curve" smooth="yes"/>
      <point x="-87.0909090909091" y="1914.4545454545455"/>
      <point x="-156.27272727272728" y="1855.6363636363637"/>
      <point x="-156.27272727272728" y="1750.2727272727273" type="curve" smooth="yes"/>
      <point x="-156.27272727272728" y="1644.909090909091"/>
      <point x="-87.0909090909091" y="1586.3636363636363"/>
    </contour>
  </outline>
</glyph>
<glyph name="Ntilde" format="2">
  <advance width="1362.0"/>
  <unicode hex="00D1"/>
  <anchor x="681.0" y="1520.0" name="_top"/>
  <anchor x="681.0" y="0.0" name="bottom"/>
  <anchor x="681.0" y="1520.0" name="top"/>
  <outline>
    <contour>
      <point x="98.36363636363636" y="0.0" type="line"/>
      <point x="423.4545454545455" y="0.0" type="line"/>
      <point x="423.4545454545455" y="996.8181818181818" type="line"/>
      <point x="369.0" y="996.8181818181818" type="line"/>
      <point x="916.4545454545455" y="0.0" type="line"/>
      <point x="1263.6363636363635" y="0.0" type="line"/>
      <point x="1263.6363636363635" y="1480.0" type="line"/>
      <point x="938.5454545454545" y="1480.0" type="line"/>
      <point x="938.5454545454545" y="483.1818181818182" type="line"/>
      <point x="993.0" y="483.1818181818182" type="line"/>
      <point x="445.54545454545456" y="1480.0" type="line"/>
      <point x="98.36363636363636" y="1480.0" type="line"/>
    </contour>
    <contour>
      <point x="845.2727272727273" y="1601.0" type="curve" smooth="yes"/>
      <point x="932.6363636363636" y="1601.0"/>
      <point x="990.7272727272727" y="1623.2727272727273"/>
      <point x="1041.4545454545455" y="1675.090909090909" type="curve"/>
      <point x="1041.4545454545455" y="1886.1818181818182" type="line"/>
      <point x="982.7272727272727" y="1836.4545454545455"/>
      <point x="928.9090909090909" y="1810.7272727272727"/>
      <point x="848.7272727272727" y="1810.7272727272727" type="curve" smooth="yes"/>
      <point x="739.0909090909091" y="1810.7272727272727"/>
      <point x="649.5454545454545" y="1892.1818181818182"/>
      <point x="516.7272727272727" y="1892.1818181818182" type="curve" smooth="yes"/>
      <point x="429.3636363636364" y="1892.1818181818182"/>
      <point x="371.27272727272725" y="1868.1818181818182"/>
      <point x="320.54545454545456" y="1816.3636363636363" type="curve"/>
      <point x="320.54545454545456" y="1605.2727272727273" type="line"/>
      <point x="379.27272727272725" y="1655.0"/>
      <point x="433.09090909090907" y="1680.7272727272727"/>
      <point x="513.2727272727273" y="1680.7272727272727" type="curve" smooth="yes"/>
      <point x="622.9090909090909" y="1680.7272727272727"/>
      <point x="712.4545454545455" y="1601.0"/>
    </contour>
  </outline>
</glyph>
<glyph name="Otilde" format="2">
  <advance width="1364.3636363636365"/>
  <unicode hex="00D5"/>
  <anchor x="682.1818181818182" y="1520.0" name="_top"/>
  <anchor x="682.1818181818182" y="0.0" name="bottom"/>
  <anchor x="682.1818181818182" y="740.0" name="center"/>
  <anchor x="867.0909090909091" y="0.0" name="ogonek"/>
  <anchor x="682.1818181818182" y="1520.0" name="top"/>
  <anchor x="41.45454545454545" y="1480.0" name="topleft"/>
  <anchor x="860.1818181818182" y="1480.0" name="topright"/>
  <outline>
    <contour>
      <point x="682.1818181818182" y="-19.727272727272727" type="curve" smooth="yes"/>
      <point x="1050.7272727272727" y="-19.727272727272727"/>
      <point x="1304.3636363636365" y="201.0"/>
      <point x="1304.3636363636365" y="740.0" type="curve" smooth="yes"/>
      <point x="1304.3636363636365" y="1279.0"/>
      <point x="1050.7272727272727" y="1499.7272727272727"/>
      <point x="682.1818181818182" y="1499.7272727272727" type="curve" smooth="yes"/>
      <point x="313.6363636363636" y="1499.7272727272727"/>
      <point x="60.0" y="1279.0"/>
      <point x="60.0" y="740.0" type="curve" smooth="yes"/>
      <point x="60.0" y="201.0"/>
      <point x="313.6363636363636" y="-19.727272727272727"/>
    </contour>
    <contour>
      <point x="682.1818181818182" y="269.0909090909091" type="curve" smooth="yes"/>
      <point x="515.3636363636364" y="269.0909090909091"/>
      <point x="418.72727272727275" y="385.6363636363636"/>
      <point x="418.72727272727275" y="747.4545454545455" type="curve" smooth="yes"/>
      <point x="418.72727272727275" y="1094.3636363636365"/>
      <point x="515.3636363636364" y="1210.909090909091"/>
      <point x="682.1818181818182" y="1210.909090909091" type="curve" smooth="yes"/>
      <point x="849.0" y="1210.909090909091"/>
      <point x="945.6363636363636" y="1094.3636363636365"/>
      <point x="945.6363636363636" y="732.5454545454545" type="curve" smooth="yes"/>
      <point x="945.6363636363636" y="385.6363636363636"/>
      <point x="849.0" y="269.0909090909091"/>
    </contour>
    <contour>
      <point x="846.4545454545455" y="1601.0" type="curve" smooth="yes"/>
      <point x="933.8181818181818" y="1601.0"/>
      <point x="991.9090909090909" y="1623.2727272727273"/>
      <point x="1042.6363636363635" y="1675.090909090909" type="curve"/>
      <point x="1042.6363636363635" y="1886.1818181818182" type="line"/>
      <point x="983.9090909090909" y="1836.4545454545455"/>
      <point x="930.0909090909091" y="1810.7272727272727"/>
      <point x="849.9090909090909" y="1810.7272727272727" type="curve" smooth="yes"/>
      <point x="740.2727272727273" y="1810.7272727272727"/>
      <point x="650.7272727272727" y="1892.1818181818182"/>
      <point x="517.9090909090909" y="1892.1818181818182" type="curve" smooth="yes"/>
      <point x="430.54545454545456" y="1892.1818181818182"/>
      <point x="372.45454545454544" y="1868.1818181818182"/>
      <point x="321.72727272727275" y="1816.3636363636363" type="curve"/>
      <point x="321.72727272727275" y="1605.2727272727273" type="line"/>
      <point x="380.45454545454544" y="1655.0"/>
      <point x="434.27272727272725" y="1680.7272727272727"/>
      <point x="514.4545454545455" y="1680.7272727272727" type="curve" smooth="yes"/>
      <point x="624.0909090909091" y="1680.7272727272727"/>
      <point x="713.6363636363636" y="1601.0"/>
    </contour>
  </outline>
</glyph>
<glyph name="Odieresis" format="2">
  <advance width="1364.3636363636365"/>
  <unicode hex="00D6"/>
  <anchor x="682.1818181818182" y="1520.0" name="_top"/>
  <anchor x="682.1818181818182" y="0.0" name="bottom"/>
  <anchor x="682.1818181818182" y="740.0" name="center"/>
  <anchor x="867.0909090909091" y="0.0" name="ogonek"/>
  <anchor x="682.1818181818182" y="1520.0" name="top"/>
  <anchor x="41.45454545454545" y="1480.0" name="topleft"/>
  <anchor x="860.1818181818182" y="1480.0" name="topright"/>
  <outline>
    <contour>
      <point x="682.1818181818182" y="-19.727272727272727" type="curve" smooth="yes"/>
      <point x="1050.7272727272727" y="-19.727272727272727"/>
      <point x="1304.3636363636365" y="201.0"/>
      <point x="1304.3636363636365" y="740.0" type="curve" smooth="yes"/>
      <point x="1304.3636363636365" y="1279.0"/>
      <point x="1050.7272727272727" y="1499.7272727272727"/>
      <point x="682.1818181818182" y="1499.7272727272727" type="curve" smooth="yes"/>
      <point x="313.6363636363636" y="1499.7272727272727"/>
      <point x="60.0" y="1279.0"/>
      <point x="60.0" y="740.0" type="curve" smooth="yes"/>
      <point x="60.0" y="201.0"/>
      <point x="313.6363636363636" y="-19.727272727272727"/>
    </contour>
    <contour>
      <point x="682.1818181818182" y="269.0909090909091" type="curve" smooth="yes"/>
      <point x="515.3636363636364" y="269.0909090909091"/>
      <point x="418.72727272727275" y="385.6363636363636"/>
      <point x="418.72727272727275" y="747.4545454545455" type="curve" smooth="yes"/>
      <point x="418.72727272727275" y="1094.3636363636365"/>
      <point x="515.3636363636364" y="1210.909090909091"/>
      <point x="682.1818181818182" y="1210.909090909091" type="curve" smooth="yes"/>
      <point x="849.0" y="1210.909090909091"/>
      <point x="945.6363636363636" y="1094.3636363636365"/>
      <point x="945.6363636363636" y="732.5454545454545" type="curve" smooth="yes"/>
      <point x="945.6363636363636" y="385.6363636363636"/>
      <point x="849.0" y="269.0909090909091"/>
    </contour>
    <contour>
      <point x="922.6363636363636" y="1586.3636363636363" type="curve" smooth="yes"/>
      <point x="1041.5454545454545" y="1586.3636363636363"/>
      <point x="1110.7272727272727" y="1644.909090909091"/>
      <point x="1110.7272727272727" y="1750.2727272727273" type="curve" smooth="yes"/>
      <point x="1110.7272727272727" y="1855.6363636363637"/>
      <point x="1041.5454545454545" y="1914.4545454545455"/>
      <point x="922.6363636363636" y="1914.4545454545455" type="curve" smooth="yes"/>
      <point x="803.7272727272727" y="1914.4545454545455"/>
      <point x="734.5454545454545" y="1855.6363636363637"/>
      <point x="734.5454545454545" y="1750.2727272727273" type="curve" smooth="yes"/>
      <point x="734.5454545454545" y="1644.909090909091"/>
      <point x="803.7272727272727" y="1586.3636363636363"/>
    </contour>
    <contour>
      <point x="441.72727272727275" y="1586.3636363636363" type="curve" smooth="yes"/>
      <point x="560.6363636363636" y="1586.3636363636363"/>
      <point x="629.8181818181818" y="1644.909090909091"/>
      <point x="629.8181818181818" y="1750.2727272727273" type="curve" smooth="yes"/>
      <point x="629.8181818181818" y="1855.6363636363637"/>
      <point x="560.6363636363636" y="1914.4545454545455"/>
      <point x="441.72727272727275" y="1914.4545454545455" type="curve" smooth="yes"/>
      <point x="322.8181818181818" y="1914.4545454545455"/>
      <point x="253.63636363636363" y="1855.6363636363637"/>
      <point x="253.63636363636363" y="1750.2727272727273" type="curve" smooth="yes"/>
      <point x="253.63636363636363" y="1644.909090909091"/>
      <point x="322.8181818181818" y="1586.3636363636363"/>
    </contour>
  </outline>
</glyph>
<glyph name="multiply" format="2">
  <advance width="999.8181818181819"/>
  <unicode hex="00D7"/>
  <outline>
    <contour>
      <point x="255.8181818181818" y="326.8181818181818" type="line"/>
      <point x="499.90909090909093" y="570.9090909090909" type="line"/>
      <point x="744.0" y="326.8181818181818" type="line"/>
      <point x="933.0909090909091" y="515.9090909090909" type="line"/>
      <point x="689.0" y="760.0" type="line"/>
      <point x="933.0909090909091" y="1004.0909090909091" type="line"/>
      <point x="744.0" y="1193.1818181818182" type="line"/>
      <point x="499.90909090909093" y="949.0909090909091" type="line"/>
      <point x="255.8181818181818" y="1193.1818181818182" type="line"/>
      <point x="66.72727272727272" y="1004.0909090909091" type="line"/>
      <point x="310.8181818181818" y="760.0" type="line"/>
      <point x="66.72727272727272" y="515.9090909090909" type="line"/>
    </contour>
  </outline>
</glyph>
<glyph name="Udieresis" format="2">
  <advance width="1318.909090909091"/>
  <unicode hex="00DC"/>
  <anchor x="663.9090909090909" y="1520.0" name="_top"/>
  <anchor x="663.9090909090909" y="0.0" name="bottom"/>
  <anchor x="897.6363636363636" y="0.0" name="ogonek"/>
  <anchor x="663.9090909090909" y="1520.0" name="top"/>
  <anchor x="944.9090909090909" y="1480.0" name="topright"/>
  <outline>
    <contour>
      <point x="663.9090909090909" y="-19.727272727272727" type="curve" smooth="yes"/>
      <point x="1043.2727272727273" y="-19.727272727272727"/>
      <point x="1226.8181818181818" y="156.36363636363637"/>
      <point x="1226.8181818181818" y="588.7272727272727" type="curve" smooth="yes"/>
      <point x="1226.8181818181818" y="1480.0" type="line"/>
      <point x="886.1818181818182" y="1480.0" type="line"/>
      <point x="886.1818181818182" y="549.3636363636364" type="line" smooth="yes"/>
      <point x="886.1818181818182" y="345.4545454545455"/>
      <point x="807.8181818181819" y="272.54545454545456"/>
      <point x="663.9090909090909" y="272.54545454545456" type="curve" smooth="yes"/>
      <point x="520.0" y="272.54545454545456"/>
      <point x="439.9090909090909" y="345.4545454545455"/>
      <point x="439.9090909090909" y="549.3636363636364" type="curve" smooth="yes"/>
      <point x="439.9090909090909" y="1480.0" type="line"/>
      <point x="92.0909090909091" y="1480.0" type="line"/>
      <point x="92.0909090909091" y="588.7272727272727" type="line" smooth="yes"/>
      <point x="92.0909090909091" y="156.36363636363637"/>
      <point x="281.09090909090907" y="-19.727272727272727"/>
    </contour>
    <contour>
      <point x="904.3636363636364" y="1586.3636363636363" type="curve" smooth="yes"/>
      <point x="1023.2727272727273" y="1586.3636363636363"/>
      <point x="1092.4545454545455" y="1644.909090909091"/>
      <point x="1092.4545454545455" y="1750.2727272727273" type="curve" smooth="yes"/>
      <point x="1092.4545454545455" y="1855.6363636363637"/>
      <point x="1023.2727272727273" y="1914.4545454545455"/>
      <point x="904.3636363636364" y="1914.4545454545455" type="curve" smooth="yes"/>
      <point x="785.4545454545455" y="1914.4545454545455"/>
      <point x="716.2727272727273" y="1855.6363636363637"/>
      <point x="716.2727272727273" y="1750.2727272727273" type="curve" smooth="yes"/>
      <point x="716.2727272727273" y="1644.909090909091"/>
      <point x="785.4545454545455" y="1586.3636363636363"/>
    </contour>
    <contour>
      <point x="423.45454545454544" y="1586.3636363636363" type="curve" smooth="yes"/>
      <point x="542.3636363636364" y="1586.3636363636363"/>
      <point x="611.5454545454545" y="1644.909090909091"/>
      <point x="611.5454545454545" y="1750.2727272727273" type="curve" smooth="yes"/>
      <point x="611.5454545454545" y="1855.6363636363637"/>
      <point x="542.3636363636364" y="1914.4545454545455"/>
      <point x="423.45454545454544" y="1914.4545454545455" type="curve" smooth="yes"/>
      <point x="304.54545454545456" y="1914.4545454545455"/>
      <point x="235.36363636363637" y="1855.6363636363637"/>
      <point x="235.36363636363637" y="1750.2727272727273" type="curve" smooth="yes"/>
      <point x="235.36363636363637" y="1644.909090909091"/>
      <point x="304.54545454545456" y="1586.3636363636363"/>
    </contour>
  </outline>
</glyph>
<glyph name="Thorn" format="2">
  <advance width="1205.6363636363635"/>
  <unicode hex="00DE"/>
  <outline>
    <contour>
      <point x="98.36363636363636" y="0.0" type="line"/>
      <point x="446.1818181818182" y="0.0" type="line"/>
      <point x="446.1818181818182" y="219.54545454545456" type="line"/>
      <point x="483.4545454545455" y="218.72727272727272"/>
      <point x="511.8181818181818" y="216.72727272727272"/>
      <point x="554.8181818181818" y="216.72727272727272" type="curve" smooth="yes"/>
      <point x="935.0909090909091" y="216.72727272727272"/>
      <point x="1143.3636363636365" y="400.27272727272725"/>
      <point x="1143.3636363636365" y="759.7272727272727" type="curve" smooth="yes"/>
      <point x="1143.3636363636365" y="1137.1818181818182"/>
      <point x="933.3636363636364" y="1305.0"/>
      <point x="522.5454545454545" y="1305.0" type="curve" smooth="yes"/>
      <point x="497.54545454545456" y="1305.0"/>
      <point x="467.0909090909091" y="1302.1818181818182"/>
      <point x="446.1818181818182" y="1301.090909090909" type="curve"/>
      <point x="446.1818181818182" y="1480.0" type="line"/>
      <point x="98.36363636363636" y="1480.0" type="line"/>
    </contour>
    <contour>
      <point x="555.6363636363636" y="496.9090909090909" type="curve" smooth="yes"/>
      <point x="512.6363636363636" y="496.9090909090909"/>
      <point x="480.27272727272725" y="498.9090909090909"/>
      <point x="446.1818181818182" y="503.4545454545455" type="curve"/>
      <point x="446.1818181818182" y="1015.7272727272727" type="line"/>
      <point x="478.1818181818182" y="1022.2727272727273"/>
      <point x="507.0" y="1024.8181818181818"/>
      <point x="551.9090909090909" y="1024.8181818181818" type="curve" smooth="yes"/>
      <point x="724.0909090909091" y="1024.8181818181818"/>
      <point x="805.3636363636364" y="945.1818181818182"/>
      <point x="805.3636363636364" y="755.7272727272727" type="curve" smooth="yes"/>
      <point x="805.3636363636364" y="568.7272727272727"/>
      <point x="722.7272727272727" y="496.9090909090909"/>
    </contour>
  </outline>
</glyph>
<glyph name="germandbls" format="2">
  <advance width="1390.5454545454545"/>
  <unicode hex="00DF"/>
  <outline>
    <contour>
      <point x="909.3636363636364" y="-21.454545454545453" type="curve" smooth="yes"/>
      <point x="1193.909090909091" y="-21.454545454545453"/>
      <point x="1366.2727272727273" y="116.18181818181819"/>
      <point x="1366.2727272727273" y="340.1818181818182" type="curve" smooth="yes"/>
      <point x="1366.2727272727273" y="525.0909090909091"/>
      <point x="1277.7272727272727" y="616.1818181818182"/>
      <point x="1115.090909090909" y="656.3636363636364" type="curve" smooth="yes"/>
      <point x="964.3636363636364" y="692.7272727272727" type="line" smooth="yes"/>
      <point x="920.3636363636364" y="704.2727272727273"/>
      <point x="898.909090909091" y="721.6363636363636"/>
      <point x="898.909090909091" y="758.1818181818181" type="curve" smooth="yes"/>
      <point x="898.909090909091" y="802.4545454545455"/>
      <point x="936.5454545454545" y="845.1818181818182"/>
      <point x="1087.7272727272727" y="845.1818181818182" type="curve" smooth="yes"/>
      <point x="1131.909090909091" y="845.1818181818182"/>
      <point x="1177.4545454545455" y="842.6363636363636"/>
      <point x="1216.0" y="836.0909090909091" type="curve"/>
      <point x="1239.5454545454545" y="922.1818181818182"/>
      <point x="1257.0" y="1023.1818181818182"/>
      <point x="1257.0" y="1123.6363636363637" type="curve" smooth="yes"/>
      <point x="1257.0" y="1497.0"/>
      <point x="1041.7272727272727" y="1636.0"/>
      <point x="753.4545454545455" y="1636.0" type="curve" smooth="yes"/>
      <point x="379.0" y="1636.0"/>
      <point x="156.1818181818182" y="1413.090909090909"/>
      <point x="156.1818181818182" y="1051.090909090909" type="curve" smooth="yes"/>
      <point x="156.1818181818182" y="0.0" type="line"/>
      <point x="498.8181818181818" y="0.0" type="line"/>
      <point x="498.8181818181818" y="1048.5454545454545" type="line" smooth="yes"/>
      <point x="498.8181818181818" y="1283.1818181818182"/>
      <point x="585.3636363636364" y="1388.6363636363635"/>
      <point x="776.1818181818182" y="1388.6363636363635" type="curve" smooth="yes"/>
      <point x="911.9090909090909" y="1388.6363636363635"/>
      <point x="1011.6363636363636" y="1323.090909090909"/>
      <point x="1011.6363636363636" y="1126.8181818181818" type="curve" smooth="yes"/>
      <point x="1011.6363636363636" y="1059.0"/>
      <point x="1002.1818181818182" y="997.1818181818182"/>
      <point x="987.2727272727273" y="935.6363636363636" type="curve"/>
      <point x="1194.909090909091" y="1097.8181818181818" type="line"/>
      <point x="1158.909090909091" y="1102.3636363636363"/>
      <point x="1087.8181818181818" y="1104.3636363636363"/>
      <point x="1053.1818181818182" y="1104.3636363636363" type="curve" smooth="yes"/>
      <point x="743.6363636363636" y="1104.3636363636363"/>
      <point x="588.8181818181818" y="973.4545454545455"/>
      <point x="588.8181818181818" y="759.3636363636364" type="curve" smooth="yes"/>
      <point x="588.8181818181818" y="576.4545454545455"/>
      <point x="681.6363636363636" y="477.27272727272725"/>
      <point x="840.9090909090909" y="439.3636363636364" type="curve" smooth="yes"/>
      <point x="991.6363636363636" y="403.0" type="line" smooth="yes"/>
      <point x="1035.3636363636363" y="391.45454545454544"/>
      <point x="1056.1818181818182" y="373.1818181818182"/>
      <point x="1056.1818181818182" y="332.72727272727275" type="curve" smooth="yes"/>
      <point x="1056.1818181818182" y="281.72727272727275"/>
      <point x="1020.3636363636364" y="248.36363636363637"/>
      <point x="905.3636363636364" y="248.36363636363637" type="curve" smooth="yes"/>
      <point x="809.4545454545455" y="248.36363636363637"/>
      <point x="710.3636363636364" y="261.8181818181818"/>
      <point x="624.0909090909091" y="286.3636363636364" type="curve"/>
      <point x="624.0909090909091" y="16.272727272727273" type="line"/>
      <point x="716.5454545454545" y="-9.454545454545455"/>
      <point x="815.0" y="-21.454545454545453"/>
    </contour>
    <contour>
      <point x="8.0" y="829.1818181818182" type="line"/>
      <point x="294.0" y="829.1818181818182" type="line"/>
      <point x="294.0" y="1097.2727272727273" type="line"/>
      <point x="8.0" y="1097.2727272727273" type="line"/>
    </contour>
  </outline>
</glyph>
<glyph name="aring" format="2">
  <advance width="986.7272727272727"/>
  <unicode hex="00E5"/>
  <anchor x="490.8181818181818" y="1200.0" name="_top"/>
  <anchor x="491.3636363636364" y="0.0" name="bottom"/>
  <anchor x="904.5454545454545" y="0.0" name="ogonek"/>
  <anchor x="490.8181818181818" y="1200.0" name="top"/>
  <outline>
    <contour>
      <point x="347.0" y="-21.18181818181818" type="curve" smooth="yes"/>
      <point x="450.6363636363636" y="-21.18181818181818"/>
      <point x="538.2727272727273" y="16.18181818181818"/>
      <point x="587.0" y="113.36363636363636" type="curve"/>
      <point x="601.9090909090909" y="113.36363636363636" type="line"/>
      <point x="626.9090909090909" y="0.0" type="line"/>
      <point x="904.5454545454545" y="0.0" type="line"/>
      <point x="904.5454545454545" y="660.7272727272727" type="line" smooth="yes"/>
      <point x="904.5454545454545" y="998.1818181818181"/>
      <point x="764.0909090909091" y="1115.0"/>
      <point x="443.54545454545456" y="1115.0" type="curve" smooth="yes"/>
      <point x="339.3636363636364" y="1115.0"/>
      <point x="214.9090909090909" y="1100.7272727272727"/>
      <point x="118.72727272727272" y="1076.1818181818182" type="curve"/>
      <point x="118.72727272727272" y="804.3636363636364" type="line"/>
      <point x="203.54545454545456" y="829.4545454545455"/>
      <point x="299.0" y="841.7272727272727"/>
      <point x="375.90909090909093" y="841.7272727272727" type="curve" smooth="yes"/>
      <point x="524.9090909090909" y="841.7272727272727"/>
      <point x="572.2727272727273" y="799.2727272727273"/>
      <point x="572.2727272727273" y="676.5454545454545" type="curve" smooth="yes"/>
      <point x="572.2727272727273" y="275.54545454545456" type="line"/>
      <point x="540.9090909090909" y="242.0"/>
      <point x="503.72727272727275" y="231.36363636363637"/>
      <point x="470.45454545454544" y="231.36363636363637" type="curve" smooth="yes"/>
      <point x="410.1818181818182" y="231.36363636363637"/>
      <point x="370.1818181818182" y="266.8181818181818"/>
      <point x="370.1818181818182" y="339.6363636363636" type="curve" smooth="yes"/>
      <point x="370.1818181818182" y="414.0"/>
      <point x="413.6363636363636" y="457.45454545454544"/>
      <point x="499.54545454545456" y="463.3636363636364" type="curve" smooth="yes"/>
      <point x="656.2727272727273" y="474.6363636363636" type="line"/>
      <point x="610.0" y="668.4545454545455" type="line"/>
      <point x="458.3636363636364" y="657.1818181818182" type="line" smooth="yes"/>
      <point x="156.9090909090909" y="636.6363636363636"/>
      <point x="37.09090909090909" y="513.9090909090909"/>
      <point x="37.09090909090909" y="300.54545454545456" type="curve" smooth="yes"/>
      <point x="37.09090909090909" y="104.45454545454545"/>
      <point x="163.45454545454544" y="-21.18181818181818"/>
    </contour>
    <contour>
      <point x="490.8181818181818" y="1220.2727272727273" type="curve" smooth="yes"/>
      <point x="619.2727272727273" y="1220.2727272727273"/>
      <point x="712.8181818181818" y="1310.3636363636363"/>
      <point x="712.8181818181818" y="1435.3636363636363" type="curve" smooth="yes"/>
      <point x="712.8181818181818" y="1560.3636363636363"/>
      <point x="619.2727272727273" y="1650.4545454545455"/>
      <point x="490.8181818181818" y="1650.4545454545455" type="curve" smooth="yes"/>
      <point x="362.3636363636364" y="1650.4545454545455"/>
      <point x="268.8181818181818" y="1560.3636363636363"/>
      <point x="268.8181818181818" y="1435.3636363636363" type="curve" smooth="yes"/>
      <point x="268.8181818181818" y="1310.3636363636363"/>
      <point x="362.3636363636364" y="1220.2727272727273"/>
    </contour>
    <contour>
      <point x="490.8181818181818" y="1346.5454545454545" type="curve" smooth="yes"/>
      <point x="440.72727272727275" y="1346.5454545454545"/>
      <point x="405.72727272727275" y="1381.0"/>
      <point x="405.72727272727275" y="1435.3636363636363" type="curve" smooth="yes"/>
      <point x="405.72727272727275" y="1489.7272727272727"/>
      <point x="440.72727272727275" y="1524.1818181818182"/>
      <point x="490.8181818181818" y="1524.1818181818182" type="curve" smooth="yes"/>
      <point x="540.9090909090909" y="1524.1818181818182"/>
      <point x="575.9090909090909" y="1489.7272727272727"/>
      <point x="575.9090909090909" y="1435.3636363636363" type="curve" smooth="yes"/>
      <point x="575.9090909090909" y="1381.0"/>
      <point x="540.9090909090909" y="1346.5454545454545"/>
    </contour>
  </outline>
</glyph>
<glyph name="ae" format="2">
  <advance width="1480.909090909091"/>
  <unicode hex="00E6"/>
  <anchor x="742.7272727272727" y="0.0" name="bottom"/>
  <anchor x="742.7272727272727" y="1200.0" name="top"/>
  <outline>
    <contour>
      <point x="1105.2727272727273" y="-21.454545454545453" type="curve" smooth="yes"/>
      <point x="1200.6363636363637" y="-21.454545454545453"/>
      <point x="1286.4545454545455" y="-9.727272727272727"/>
      <point x="1391.4545454545455" y="15.09090909090909" type="curve"/>
      <point x="1391.4545454545455" y="286.9090909090909" type="line"/>
      <point x="1306.090909090909" y="265.54545454545456"/>
      <point x="1224.2727272727273" y="251.8181818181818"/>
      <point x="1145.5454545454545" y="251.8181818181818" type="curve" smooth="yes"/>
      <point x="960.0909090909091" y="251.8181818181818"/>
      <point x="904.5454545454545" y="305.6363636363636"/>
      <point x="904.5454545454545" y="480.45454545454544" type="curve" smooth="yes"/>
      <point x="904.5454545454545" y="633.1818181818182" type="line" smooth="yes"/>
      <point x="904.5454545454545" y="843.3636363636364"/>
      <point x="942.8181818181818" y="892.0909090909091"/>
      <point x="1017.3636363636364" y="892.0909090909091" type="curve" smooth="yes"/>
      <point x="1090.1818181818182" y="892.0909090909091"/>
      <point x="1125.6363636363637" y="844.1818181818182"/>
      <point x="1125.6363636363637" y="631.5454545454545" type="curve"/>
      <point x="1174.4545454545455" y="650.2727272727273" type="line"/>
      <point x="878.2727272727273" y="650.2727272727273" type="line"/>
      <point x="878.2727272727273" y="444.3636363636364" type="line"/>
      <point x="1444.6363636363637" y="444.3636363636364" type="line"/>
      <point x="1444.6363636363637" y="543.4545454545455" type="line" smooth="yes"/>
      <point x="1444.6363636363637" y="929.1818181818181"/>
      <point x="1285.0" y="1115.2727272727273"/>
      <point x="1036.3636363636363" y="1115.2727272727273" type="curve" smooth="yes"/>
      <point x="776.4545454545455" y="1115.2727272727273"/>
      <point x="643.9090909090909" y="909.9090909090909"/>
      <point x="643.9090909090909" y="588.0" type="curve"/>
      <point x="579.1818181818182" y="553.8181818181819" type="line"/>
      <point x="579.1818181818182" y="146.72727272727272"/>
      <point x="727.8181818181819" y="-21.454545454545453"/>
    </contour>
    <contour>
      <point x="381.8181818181818" y="-21.18181818181818" type="curve" smooth="yes"/>
      <point x="508.6363636363636" y="-21.18181818181818"/>
      <point x="621.0909090909091" y="17.272727272727273"/>
      <point x="707.9090909090909" y="158.0909090909091" type="curve"/>
      <point x="625.0" y="320.54545454545456" type="line"/>
      <point x="578.9090909090909" y="252.8181818181818"/>
      <point x="529.7272727272727" y="233.0909090909091"/>
      <point x="475.9090909090909" y="233.0909090909091" type="curve" smooth="yes"/>
      <point x="410.72727272727275" y="233.0909090909091"/>
      <point x="370.1818181818182" y="268.54545454545456"/>
      <point x="370.1818181818182" y="335.6363636363636" type="curve" smooth="yes"/>
      <point x="370.1818181818182" y="408.27272727272725"/>
      <point x="411.3636363636364" y="456.45454545454544"/>
      <point x="505.6363636363636" y="456.45454545454544" type="curve" smooth="yes"/>
      <point x="639.3636363636364" y="456.45454545454544" type="line"/>
      <point x="639.3636363636364" y="650.2727272727273" type="line"/>
      <point x="464.45454545454544" y="650.2727272727273" type="line" smooth="yes"/>
      <point x="161.0" y="650.2727272727273"/>
      <point x="37.09090909090909" y="508.1818181818182"/>
      <point x="37.09090909090909" y="305.1818181818182" type="curve" smooth="yes"/>
      <point x="37.09090909090909" y="100.72727272727272"/>
      <point x="164.0" y="-21.18181818181818"/>
    </contour>
    <contour>
      <point x="579.1818181818182" y="553.8181818181819" type="line"/>
      <point x="841.5454545454545" y="552.4545454545455" type="line"/>
      <point x="841.5454545454545" y="682.2727272727273" type="line" smooth="yes"/>
      <point x="841.5454545454545" y="967.0909090909091"/>
      <point x="729.2727272727273" y="1115.0"/>
      <point x="428.0" y="1115.0" type="curve" smooth="yes"/>
      <point x="332.45454545454544" y="1115.0"/>
      <point x="232.1818181818182" y="1104.1818181818182"/>
      <point x="120.45454545454545" y="1076.1818181818182" type="curve"/>
      <point x="120.45454545454545" y="804.3636363636364" type="line"/>
      <point x="205.27272727272728" y="829.4545454545455"/>
      <point x="300.72727272727275" y="841.7272727272727"/>
      <point x="372.45454545454544" y="841.7272727272727" type="curve" smooth="yes"/>
      <point x="516.2727272727273" y="841.7272727272727"/>
      <point x="579.1818181818182" y="801.0"/>
      <point x="579.1818181818182" y="672.1818181818182" type="curve" smooth="yes"/>
    </contour>
  </outline>
</glyph>
<glyph name="ccedilla" format="2">
  <advance width="824.6363636363636"/>
  <unicode hex="00E7"/>
  <anchor x="470.9090909090909" y="0.0" name="_bottom"/>
  <anchor x="470.9090909090909" y="0.0" name="bottom"/>
  <anchor x="453.6363636363636" y="1200.0" name="top"/>
  <outline>
    <contour>
      <point x="552.6363636363636" y="-21.454545454545453" type="curve" smooth="yes"/>
      <point x="629.5454545454545" y="-21.454545454545453"/>
      <point x="715.0909090909091" y="-9.454545454545455"/>
      <point x="789.6363636363636" y="15.09090909090909" type="curve"/>
      <point x="789.6363636363636" y="293.8181818181818" type="line"/>
      <point x="729.8181818181818" y="274.1818181818182"/>
      <point x="677.3636363636364" y="263.9090909090909"/>
      <point x="629.7272727272727" y="263.9090909090909" type="curve" smooth="yes"/>
      <point x="478.72727272727275" y="263.9090909090909"/>
      <point x="403.54545454545456" y="331.27272727272725"/>
      <point x="403.54545454545456" y="552.6363636363636" type="curve" smooth="yes"/>
      <point x="403.54545454545456" y="756.1818181818182"/>
      <point x="479.8181818181818" y="829.6363636363636"/>
      <point x="656.1818181818182" y="829.6363636363636" type="curve" smooth="yes"/>
      <point x="697.6363636363636" y="829.6363636363636"/>
      <point x="746.0909090909091" y="825.3636363636364"/>
      <point x="789.6363636363636" y="817.7272727272727" type="curve"/>
      <point x="789.6363636363636" y="1096.4545454545455" type="line"/>
      <point x="726.4545454545455" y="1109.0"/>
      <point x="661.0" y="1115.0"/>
      <point x="590.0" y="1115.0" type="curve" smooth="yes"/>
      <point x="258.45454545454544" y="1115.0"/>
      <point x="46.54545454545455" y="952.2727272727273"/>
      <point x="46.54545454545455" y="546.9090909090909" type="curve" smooth="yes"/>
      <point x="46.54545454545455" y="153.63636363636363"/>
      <point x="229.1818181818182" y="-21.454545454545453"/>
    </contour>
    <contour>
      <point x="460.0" y="-451.8181818181818" type="curve" smooth="yes"/>
      <point x="643.7272727272727" y="-451.8181818181818"/>
      <point x="721.0" y="-376.54545454545456"/>
      <point x="721.0" y="-261.45454545454544" type="curve" smooth="yes"/>
      <point x="721.0" y="-142.36363636363637"/>
      <point x="630.7272727272727" y="-77.72727272727272"/>
      <point x="486.45454545454544" y="-77.72727272727272" type="curve"/>
      <point x="566.5454545454545" y="-124.72727272727272" type="line"/>
      <point x="566.5454545454545" y="20.0" type="line"/>
      <point x="398.27272727272725" y="20.0" type="line"/>
      <point x="398.27272727272725" y="-176.0909090909091" type="line"/>
      <point x="438.09090909090907" y="-176.0909090909091" type="line" smooth="yes"/>
      <point x="501.1818181818182" y="-176.0909090909091"/>
      <point x="535.7272727272727" y="-199.1818181818182"/>
      <point x="535.7272727272727" y="-247.63636363636363" type="curve" smooth="yes"/>
      <point x="535.7272727272727" y="-297.0"/>
      <point x="505.1818181818182" y="-315.1818181818182"/>
      <point x="441.8181818181818" y="-315.1818181818182" type="curve" smooth="yes"/>
      <point x="402.72727272727275" y="-315.1818181818182"/>
      <point x="345.8181818181818" y="-307.1818181818182"/>
      <point x="293.54545454545456" y="-287.54545454545456" type="curve"/>
      <point x="293.54545454545456" y="-424.72727272727275" type="line"/>
      <point x="343.6363636363636" y="-441.54545454545456"/>
      <point x="396.45454545454544" y="-451.8181818181818"/>
    </contour>
  </outline>
</glyph>
<glyph name="igrave" format="2">
  <advance width="518.3636363636364"/>
  <unicode hex="00EC"/>
  <anchor x="259.1818181818182" y="1200.0" name="_top"/>
  <anchor x="259.1818181818182" y="0.0" name="bottom"/>
  <anchor x="431.3636363636364" y="0.0" name="ogonek"/>
  <anchor x="259.1818181818182" y="1200.0" name="top"/>
  <outline>
    <contour>
      <point x="87.0" y="0.0" type="line"/>
      <point x="431.3636363636364" y="0.0" type="line"/>
      <point x="431.3636363636364" y="1097.2727272727273" type="line"/>
      <point x="87.0" y="1097.2727272727273" type="line"/>
    </contour>
    <contour>
      <point x="110.27272727272728" y="1226.0" type="line"/>
      <point x="408.0909090909091" y="1226.0" type="line"/>
      <point x="208.27272727272728" y="1616.0" type="line"/>
      <point x="-136.63636363636363" y="1616.0" type="line"/>
    </contour>
  </outline>
</glyph>
<glyph name="icircumflex" format="2">
  <advance width="518.3636363636364"/>
  <unicode hex="00EE"/>
  <anchor x="259.1818181818182" y="1200.0" name="_top"/>
  <anchor x="259.1818181818182" y="0.0" name="bottom"/>
  <anchor x="431.3636363636364" y="0.0" name="ogonek"/>
  <anchor x="259.1818181818182" y="1200.0" name="top"/>
  <outline>
    <contour>
      <point x="87.0" y="0.0" type="line"/>
      <point x="431.3636363636364" y="0.0" type="line"/>
      <point x="431.3636363636364" y="1097.2727272727273" type="line"/>
      <point x="87.0" y="1097.2727272727273" type="line"/>
    </contour>
    <contour>
      <point x="-75.72727272727272" y="1226.0" type="line"/>
      <point x="154.0909090909091" y="1226.0" type="line"/>
      <point x="279.27272727272725" y="1505.3636363636363" type="line"/>
      <point x="239.0909090909091" y="1505.3636363636363" type="line"/>
      <point x="364.27272727272725" y="1226.0" type="line"/>
      <point x="594.0909090909091" y="1226.0" type="line"/>
      <point x="404.27272727272725" y="1616.0" type="line"/>
      <point x="114.0909090909091" y="1616.0" type="line"/>
    </contour>
  </outline>
</glyph>
<glyph name="idieresis" format="2">
  <advance width="518.3636363636364"/>
  <unicode hex="00EF"/>
  <anchor x="259.1818181818182" y="1200.0" name="_top"/>
  <anchor x="259.1818181818182" y="0.0" name="bottom"/>
  <anchor x="431.3636363636364" y="0.0" name="ogonek"/>
  <anchor x="259.1818181818182" y="1200.0" name="top"/>
  <outline>
    <contour>
      <point x="87.0" y="0.0" type="line"/>
      <point x="431.3636363636364" y="0.0" type="line"/>
      <point x="431.3636363636364" y="1097.2727272727273" type="line"/>
      <point x="87.0" y="1097.2727272727273" type="line"/>
    </contour>
    <contour>
      <point x="490.0" y="1239.090909090909" type="curve" smooth="yes"/>
      <point x="602.0" y="1239.090909090909"/>
      <point x="674.6363636363636" y="1306.2727272727273"/>
      <point x="674.6363636363636" y="1418.5454545454545" type="curve" smooth="yes"/>
      <point x="674.6363636363636" y="1530.8181818181818"/>
      <point x="602.0" y="1598.2727272727273"/>
      <point x="490.0" y="1598.2727272727273" type="curve" smooth="yes"/>
      <point x="378.0" y="1598.2727272727273"/>
      <point x="305.3636363636364" y="1530.8181818181818"/>
      <point x="305.3636363636364" y="1418.5454545454545" type="curve" smooth="yes"/>
      <point x="305.3636363636364" y="1306.2727272727273"/>
      <point x="378.0" y="1239.090909090909"/>
    </contour>
    <contour>
      <point x="28.363636363636363" y="1239.090909090909" type="curve" smooth="yes"/>
      <point x="140.36363636363637" y="1239.090909090909"/>
      <point x="213.0" y="1306.2727272727273"/>
      <point x="213.0" y="1418.5454545454545" type="curve" smooth="yes"/>
      <point x="213.0" y="1530.8181818181818"/>
      <point x="140.36363636363637" y="1598.2727272727273"/>
      <point x="28.363636363636363" y="1598.2727272727273" type="curve" smooth="yes"/>
      <point x="-83.63636363636364" y="1598.2727272727273"/>
      <point x="-156.27272727272728" y="1530.8181818181818"/>
      <point x="-156.27272727272728" y="1418.5454545454545" type="curve" smooth="yes"/>
      <point x="-156.27272727272728" y="1306.2727272727273"/>
      <point x="-83.63636363636364" y="1239.090909090909"/>
    </contour>
  </outline>
</glyph>
<glyph name="eth" format="2">
  <advance width="1046.7272727272727"/>
  <unicode hex="00F0"/>
  <outline>
    <contour>
      <point x="523.6363636363636" y="-24.90909090909091" type="curve" smooth="yes"/>
      <point x="826.8181818181818" y="-24.90909090909091"/>
      <point x="999.9090909090909" y="153.72727272727272"/>
      <point x="999.9090909090909" y="613.1818181818181" type="curve" smooth="yes"/>
      <point x="999.9090909090909" y="993.0"/>
      <point x="802.8181818181818" y="1402.4545454545455"/>
      <point x="555.6363636363636" y="1616.0" type="curve"/>
      <point x="186.0909090909091" y="1616.0" type="line"/>
      <point x="397.6363636363636" y="1424.909090909091"/>
      <point x="575.5454545454545" y="1201.909090909091"/>
      <point x="640.7272727272727" y="954.0" type="curve"/>
      <point x="715.4545454545455" y="995.6363636363636" type="line"/>
      <point x="672.5454545454545" y="1068.2727272727273"/>
      <point x="572.4545454545455" y="1109.8181818181818"/>
      <point x="497.45454545454544" y="1109.8181818181818" type="curve" smooth="yes"/>
      <point x="228.54545454545453" y="1109.8181818181818"/>
      <point x="46.54545454545455" y="941.0909090909091"/>
      <point x="46.54545454545455" y="541.7272727272727" type="curve" smooth="yes"/>
      <point x="46.54545454545455" y="151.0"/>
      <point x="220.45454545454547" y="-24.90909090909091"/>
    </contour>
    <contour>
      <point x="523.6363636363636" y="229.36363636363637" type="curve" smooth="yes"/>
      <point x="440.0909090909091" y="229.36363636363637"/>
      <point x="396.6363636363636" y="279.1818181818182"/>
      <point x="396.6363636363636" y="540.5454545454545" type="curve" smooth="yes"/>
      <point x="396.6363636363636" y="802.5454545454545"/>
      <point x="443.54545454545456" y="855.5454545454545"/>
      <point x="523.3636363636364" y="855.5454545454545" type="curve" smooth="yes"/>
      <point x="603.1818181818181" y="855.5454545454545"/>
      <point x="650.0909090909091" y="802.5454545454545"/>
      <point x="650.0909090909091" y="536.0" type="curve" smooth="yes"/>
      <point x="650.0909090909091" y="281.9090909090909"/>
      <point x="606.0909090909091" y="229.36363636363637"/>
    </contour>
    <contour>
      <point x="159.8181818181818" y="1182.2727272727273" type="line"/>
      <point x="974.7272727272727" y="1360.5454545454545" type="line"/>
      <point x="931.9090909090909" y="1541.1818181818182" type="line"/>
      <point x="117.0" y="1362.909090909091" type="line"/>
    </contour>
  </outline>
</glyph>
<glyph name="ntilde" format="2">
  <advance width="1075.090909090909"/>
  <unicode hex="00F1"/>
  <anchor x="540.8181818181818" y="1200.0" name="_top"/>
  <anchor x="10.0" y="1200.0" name="apostrophe"/>
  <anchor x="540.8181818181818" y="0.0" name="bottom"/>
  <anchor x="540.8181818181818" y="1200.0" name="top"/>
  <outline>
    <contour>
      <point x="87.0" y="0.0" type="line"/>
      <point x="429.6363636363636" y="0.0" type="line"/>
      <point x="429.6363636363636" y="751.5454545454545" type="line"/>
      <point x="458.72727272727275" y="790.8181818181818"/>
      <point x="507.8181818181818" y="810.6363636363636"/>
      <point x="553.1818181818181" y="810.6363636363636" type="curve" smooth="yes"/>
      <point x="610.6363636363636" y="810.6363636363636"/>
      <point x="650.2727272727273" y="783.1818181818182"/>
      <point x="650.2727272727273" y="691.0909090909091" type="curve" smooth="yes"/>
      <point x="650.2727272727273" y="0.0" type="line"/>
      <point x="992.9090909090909" y="0.0" type="line"/>
      <point x="992.9090909090909" y="717.2727272727273" type="line" smooth="yes"/>
      <point x="992.9090909090909" y="1009.6363636363636"/>
      <point x="857.0909090909091" y="1115.0"/>
      <point x="679.8181818181818" y="1115.0" type="curve" smooth="yes"/>
      <point x="567.0" y="1115.0"/>
      <point x="476.8181818181818" y="1069.909090909091"/>
      <point x="411.4545454545455" y="983.6363636363636" type="curve"/>
      <point x="396.54545454545456" y="983.6363636363636" type="line"/>
      <point x="371.54545454545456" y="1097.2727272727273" type="line"/>
      <point x="87.0" y="1097.2727272727273" type="line"/>
    </contour>
    <contour>
      <point x="693.3636363636364" y="1267.7272727272727" type="curve" smooth="yes"/>
      <point x="773.5454545454545" y="1267.7272727272727"/>
      <point x="831.6363636363636" y="1291.7272727272727"/>
      <point x="882.3636363636364" y="1347.0" type="curve"/>
      <point x="882.3636363636364" y="1571.909090909091" type="line"/>
      <point x="823.6363636363636" y="1511.8181818181818"/>
      <point x="769.8181818181818" y="1484.3636363636363"/>
      <point x="696.8181818181818" y="1484.3636363636363" type="curve" smooth="yes"/>
      <point x="598.9090909090909" y="1484.3636363636363"/>
      <point x="509.3636363636364" y="1577.909090909091"/>
      <point x="388.27272727272725" y="1577.909090909091" type="curve" smooth="yes"/>
      <point x="308.09090909090907" y="1577.909090909091"/>
      <point x="250.0" y="1553.909090909091"/>
      <point x="199.27272727272728" y="1498.6363636363637" type="curve"/>
      <point x="199.27272727272728" y="1273.7272727272727" type="line"/>
      <point x="258.0" y="1333.8181818181818"/>
      <point x="311.8181818181818" y="1361.2727272727273"/>
      <point x="384.8181818181818" y="1361.2727272727273" type="curve" smooth="yes"/>
      <point x="482.72727272727275" y="1361.2727272727273"/>
      <point x="572.2727272727273" y="1267.7272727272727"/>
    </contour>
  </outline>
</glyph>
